<?xml version='1.0' encoding='utf-8'?>
<score-partwise><part-list><score-part id="P1"><part-name>Piano</part-name></score-part></part-list><part id="P1"><measure number="1"><attributes><divisions>480</divisions><time><beats>4</beats><beat-type>4</beat-type></time><key><fifths>0</fifths></key><clef><sign>G</sign><line>2</line></clef></attributes><note><pitch><step>A</step><alter>-0.5</alter><octave>9</octave></pitch><duration>400</duration><voice>1</voice></note><note><pitch><step>D</step><octave>3</octave></pitch><duration>120</duration><voice>1</voice></note></measure><measure number="101" /><measure number="228"><note><pitch><step>D</step><octave>3</octave></pitch><duration>400</duration><voice>1</voice></note><forward><duration>1440</duration></forward><note><pitch><step>G</step><alter>-0.5</alter><octave>3</octave></pitch><duration>400</duration><voice>1</voice></note><note><pitch><step>D</step><octave>4</octave></pitch><duration>400</duration><voice>1</voice></note></measure><measure number="7" /><measure number="27" /><measure number="41"><forward><duration>360</duration></forward><note><rest /><duration>360</duration><voice>1</voice></note></measure><measure number="490" /><measure number="388" /><measure number="71" /><measure number="8" /><measure number="74"><forward><duration>360</duration></forward><note><pitch><step>D</step><octave>3</octave></pitch><duration>240</duration><voice>1</voice></note></measure><measure number="43"><forward><duration>1680</duration></forward><note><pitch><step>D</step><octave>3</octave></pitch><duration>360</duration><voice>1</voice></note><forward><duration>3560</duration></forward><note><pitch><step>G</step><alter>1.0</alter><octave>2</octave></pitch><duration>360</duration><voice>1</voice></note></measure><measure number="280"><forward><duration>2040</duration></forward><note><pitch><step>F</step><octave>5</octave></pitch><duration>80</duration><voice>1</voice></note><note><pitch><step>C</step><alter>0.5</alter><octave>-1</octave></pitch><duration>400</duration><voice>1</voice></note></measure><measure number="54" /><measure number="150"><note><pitch><step>E</step><octave>1</octave></pitch><duration>400</duration><voice>1</voice></note><note><pitch><step>F</step><alter>1.0</alter><octave>5</octave></pitch><duration>80</duration><voice>1</voice></note></measure><measure number="142"><forward><duration>4200</duration></forward><note><pitch><step>F</step><alter>1.0</alter><octave>5</octave></pitch><duration>80</duration><voice>1</voice></note><note><pitch><step>G</step><octave>8</octave></pitch><duration>400</duration><voice>1</voice></note></measure><measure number="60" /><measure number="61"><forward><duration>360</duration></forward><note><pitch><step>G</step><octave>5</octave></pitch><duration>80</duration><voice>1</voice></note></measure><measure number="47"><forward><duration>1320</duration></forward><note><pitch><step>G</step><octave>5</octave></pitch><duration>80</duration><voice>1</voice></note></measure><measure number="53"><forward><duration>2280</duration></forward><note><pitch><step>F</step><octave>2</octave></pitch><duration>400</duration><voice>1</voice></note><note><pitch><step>B</step><octave>4</octave></pitch><duration>360</duration><voice>1</voice></note><note><pitch><step>A</step><octave>4</octave></pitch><duration>840</duration><voice>1</voice></note><note><pitch><step>C</step><alter>1.0</alter><octave>2</octave></pitch><duration>80</duration><voice>1</voice></note></measure><measure number="6"><forward><duration>360</duration></forward><note><pitch><step>F</step><alter>1.0</alter><octave>5</octave></pitch><duration>840</duration><voice>1</voice></note><note><pitch><step>B</step><octave>5</octave></pitch><duration>80</duration><voice>1</voice></note><note><pitch><step>B</step><octave>5</octave></pitch><duration>80</duration><voice>1</voice></note><forward><duration>160</duration></forward><note><pitch><step>C</step><alter>1.0</alter><octave>8</octave></pitch><duration>400</duration><voice>1</voice></note><note><pitch><step>B</step><octave>6</octave></pitch><duration>400</duration><voice>1</voice></note></measure><measure number="158"><forward><duration>360</duration></forward><note><pitch><step>F</step><octave>4</octave></pitch><duration>360</duration><voice>1</voice></note><forward><duration>1080</duration></forward><note><pitch><step>C</step><alter>1.0</alter><octave>5</octave></pitch><duration>840</duration><voice>1</voice></note><note><pitch><step>C</step><alter>1.0</alter><octave>4</octave></pitch><duration>80</duration><voice>1</voice></note></measure><measure number="44"><forward><duration>360</duration></forward><note><pitch><step>F</step><octave>4</octave></pitch><duration>360</duration><voice>1</voice></note><note><pitch><step>D</step><alter>1.0</alter><octave>5</octave></pitch><duration>80</duration><voice>1</voice></note></measure><measure number="58"><forward><duration>360</duration></forward><note><pitch><step>G</step><octave>2</octave></pitch><duration>400</duration><voice>1</voice></note><note><pitch><step>D</step><alter>1.0</alter><octave>4</octave></pitch><duration>400</duration><voice>1</voice></note><note><pitch><step>D</step><alter>1.0</alter><octave>4</octave></pitch><duration>240</duration><voice>1</voice></note></measure><measure number="65"><forward><duration>120</duration></forward><note><pitch><step>C</step><octave>3</octave></pitch><duration>240</duration><voice>1</voice></note><forward><duration>240</duration></forward><note><pitch><step>A</step><octave>5</octave></pitch><duration>80</duration><voice>1</voice></note><note><pitch><step>D</step><alter>1.0</alter><octave>4</octave></pitch><duration>80</duration><voice>1</voice></note></measure><measure number="246"><forward><duration>1680</duration></forward><note><pitch><step>B</step><octave>2</octave></pitch><duration>80</duration><voice>1</voice></note><note><pitch><step>C</step><alter>1.0</alter><octave>4</octave></pitch><duration>80</duration><voice>1</voice></note><forward><duration>160</duration></forward><note><pitch><step>C</step><alter>1.0</alter><octave>2</octave></pitch><duration>80</duration><voice>1</voice></note><forward><duration>400</duration></forward><note><pitch><step>C</step><alter>1.0</alter><octave>5</octave></pitch><duration>240</duration><voice>1</voice></note><note><pitch><step>A</step><octave>4</octave></pitch><duration>240</duration><voice>1</voice></note></measure><measure number="44"><note><pitch><step>F</step><octave>4</octave></pitch><duration>480</duration><voice>1</voice></note><forward><duration>840</duration></forward><note><pitch><step>B</step><octave>5</octave></pitch><duration>80</duration><voice>1</voice></note><note><pitch><step>A</step><octave>2</octave></pitch><duration>80</duration><voice>1</voice></note><forward><duration>640</duration></forward><note><pitch><step>D</step><octave>4</octave></pitch><duration>240</duration><voice>1</voice></note><note><pitch><step>C</step><alter>1.0</alter><octave>4</octave></pitch><duration>80</duration><voice>1</voice></note><forward><duration>1240</duration></forward><note><pitch><step>E</step><octave>6</octave></pitch><duration>80</duration><voice>1</voice></note><note><pitch><step>D</step><alter>1.0</alter><octave>4</octave></pitch><duration>80</duration><voice>1</voice></note><forward><duration>880</duration></forward><note><pitch><step>F</step><alter>1.0</alter><octave>5</octave></pitch><duration>840</duration><voice>1</voice></note></measure><measure number="114"><forward><duration>120</duration></forward><note><pitch><step>D</step><alter>1.0</alter><octave>4</octave></pitch><duration>120</duration><voice>1</voice></note><forward><duration>840</duration></forward><note><pitch><step>A</step><alter>1.0</alter><octave>3</octave></pitch><duration>400</duration><voice>1</voice></note></measure></part></score-partwise>