<?xml version='1.0' encoding='utf-8'?>
<score-partwise><part-list><score-part id="P1"><part-name>Piano</part-name></score-part></part-list><part id="P1"><measure number="1"><attributes><divisions>480</divisions><time><beats>4</beats><beat-type>4</beat-type></time><key><fifths>0</fifths></key><clef><sign>G</sign><line>2</line></clef></attributes><note><pitch><step>A</step><octave>4</octave></pitch><duration>400</duration><voice>1</voice></note><note><pitch><step>F</step><alter>1.0</alter><octave>4</octave></pitch><duration>400</duration><voice>1</voice></note></measure><measure number="240" /><measure number="47"><note><pitch><step>A</step><octave>3</octave></pitch><duration>400</duration><voice>1</voice></note><note><pitch><step>E</step><alter>-0.5</alter><octave>4</octave></pitch><duration>400</duration><voice>1</voice></note><note><rest /><duration>400</duration><voice>1</voice></note><note><pitch><step>D</step><octave>-1</octave></pitch><duration>400</duration><voice>1</voice></note></measure><measure number="56"><forward><duration>360</duration></forward><note><pitch><step>A</step><octave>4</octave></pitch><duration>240</duration><voice>1</voice></note><note><rest /><duration>400</duration><voice>1</voice></note></measure><measure number="125"><forward><duration>1320</duration></forward><note><pitch><step>F</step><octave>4</octave></pitch><duration>400</duration><voice>1</voice></note><note><pitch><step>D</step><octave>4</octave></pitch><duration>400</duration><voice>1</voice></note></measure><measure number="67"><forward><duration>840</duration></forward><note><pitch><step>G</step><alter>1.0</alter><octave>6</octave></pitch><duration>400</duration><voice>1</voice></note></measure><measure number="203"><forward><duration>1200</duration></forward><note><pitch><step>C</step><octave>5</octave></pitch><duration>400</duration><voice>1</voice></note></measure><measure number="222"><forward><duration>2760</duration></forward><note><pitch><step>A</step><octave>3</octave></pitch><duration>400</duration><voice>1</voice></note><note><pitch><step>A</step><alter>1.0</alter><octave>4</octave></pitch><duration>400</duration><voice>1</voice></note><note><rest /><duration>400</duration><voice>1</voice></note></measure><measure number="153"><note><pitch><step>D</step><octave>5</octave></pitch><duration>120</duration><voice>1</voice></note><note><pitch><step>G</step><alter>1.0</alter><octave>4</octave></pitch><duration>400</duration><voice>1</voice></note></measure><measure number="188"><note><pitch><step>F</step><octave>5</octave></pitch><duration>400</duration><voice>1</voice></note></measure><measure number="256"><forward><duration>600</duration></forward><note><pitch><step>E</step><octave>4</octave></pitch><duration>400</duration><voice>1</voice></note><note><rest /><duration>400</duration><voice>1</voice></note></measure><measure number="44"><forward><duration>1200</duration></forward><note><pitch><step>F</step><octave>4</octave></pitch><duration>400</duration><voice>1</voice></note></measure><measure number="2"><forward><duration>360</duration></forward><note><pitch><step>C</step><octave>4</octave></pitch><duration>120</duration><voice>1</voice></note></measure><measure number="75" /><measure number="445"><note><pitch><step>G</step><alter>1.0</alter><octave>4</octave></pitch><duration>26880</duration><voice>1</voice></note><note><pitch><step>G</step><octave>5</octave></pitch><duration>400</duration><voice>1</voice></note><note><pitch><step>G</step><alter>1.0</alter><octave>4</octave></pitch><duration>400</duration><voice>1</voice></note></measure><measure number="308"><note><pitch><step>C</step><alter>1.0</alter><octave>5</octave></pitch><duration>400</duration><voice>1</voice></note></measure><measure number="326" /><measure number="418" /><measure number="81" /><measure number="375" /><measure number="458"><note><pitch><step>G</step><octave>3</octave></pitch><duration>240</duration><voice>1</voice></note><forward><duration>2600</duration></forward><note><pitch><step>G</step><alter>1.0</alter><octave>4</octave></pitch><duration>960</duration><voice>1</voice></note></measure><measure number="95"><note><pitch><step>F</step><alter>1.0</alter><octave>4</octave></pitch><duration>120</duration><voice>1</voice></note></measure><measure number="393"><note><pitch><step>E</step><alter>0.5</alter><octave>5</octave></pitch><duration>400</duration><voice>1</voice></note><note><pitch><step>F</step><alter>1.0</alter><octave>4</octave></pitch><duration>400</duration><voice>1</voice></note><note><pitch><step>F</step><alter>1.0</alter><octave>4</octave></pitch><duration>400</duration><voice>1</voice></note><note><pitch><step>A</step><octave>4</octave></pitch><duration>400</duration><voice>1</voice></note><note><pitch><step>F</step><alter>1.0</alter><octave>4</octave></pitch><duration>400</duration><voice>1</voice></note></measure><measure number="126"><note><pitch><step>E</step><octave>4</octave></pitch><duration>400</duration><voice>1</voice></note><note><pitch><step>D</step><octave>4</octave></pitch><duration>400</duration><voice>1</voice></note><note><rest /><duration>240</duration><voice>1</voice></note><note><pitch><step>E</step><octave>5</octave></pitch><duration>400</duration><voice>1</voice></note></measure><measure number="13"><note><pitch><step>D</step><alter>1.0</alter><octave>3</octave></pitch><duration>400</duration><voice>1</voice></note></measure><measure number="416"><forward><duration>1320</duration></forward><note><pitch><step>G</step><octave>5</octave></pitch><duration>400</duration><voice>1</voice></note><note><pitch><step>A</step><octave>5</octave></pitch><duration>400</duration><voice>1</voice></note><note><pitch><step>B</step><octave>3</octave></pitch><duration>400</duration><voice>1</voice></note><forward><duration>1040</duration></forward><note><pitch><step>B</step><octave>2</octave></pitch><duration>400</duration><voice>1</voice></note></measure><measure number="53"><note><pitch><step>E</step><alter>-0.5</alter><octave>4</octave></pitch><duration>400</duration><voice>1</voice></note></measure><measure number="204" /><measure number="25"><forward><duration>120</duration></forward><note><pitch><step>C</step><octave>5</octave></pitch><duration>400</duration><voice>1</voice></note><note><pitch><step>B</step><octave>3</octave></pitch><duration>400</duration><voice>1</voice></note><note><pitch><step>C</step><alter>0.5</alter><octave>4</octave></pitch><duration>400</duration><voice>1</voice></note></measure><measure number="225"><forward><duration>120</duration></forward><note><pitch><step>F</step><alter>1.0</alter><octave>4</octave></pitch><duration>400</duration><voice>1</voice></note><note><pitch><step>E</step><octave>4</octave></pitch><duration>400</duration><voice>1</voice></note></measure><measure number="45"><note><pitch><step>G</step><octave>4</octave></pitch><duration>400</duration><voice>1</voice></note></measure><measure number="190"><note><pitch><step>D</step><octave>5</octave></pitch><duration>400</duration><voice>1</voice></note></measure><measure number="48"><note><pitch><step>A</step><octave>5</octave></pitch><duration>400</duration><voice>1</voice></note><note><pitch><step>C</step><octave>4</octave></pitch><duration>400</duration><voice>1</voice></note></measure><measure number="425" /><measure number="20" /><measure number="327"><forward><duration>1320</duration></forward><note><pitch><step>G</step><octave>3</octave></pitch><duration>400</duration><voice>1</voice></note><note><pitch><step>D</step><octave>4</octave></pitch><duration>400</duration><voice>1</voice></note><note><pitch><step>F</step><octave>4</octave></pitch><duration>400</duration><voice>1</voice></note><note><pitch><step>G</step><alter>1.0</alter><octave>4</octave></pitch><duration>23040</duration><voice>1</voice></note></measure><measure number="264"><note><pitch><step>C</step><octave>4</octave></pitch><duration>400</duration><voice>1</voice></note><note><pitch><step>A</step><alter>1.0</alter><octave>4</octave></pitch><duration>400</duration><voice>1</voice></note><note><pitch><step>B</step><octave>5</octave></pitch><duration>960</duration><voice>1</voice></note><forward><duration>960</duration></forward><note><pitch><step>A</step><alter>1.0</alter><octave>4</octave></pitch><duration>400</duration><voice>1</voice></note></measure><measure number="143"><note><pitch><step>G</step><octave>4</octave></pitch><duration>120</duration><voice>1</voice></note><note><pitch><step>G</step><octave>6</octave></pitch><duration>120</duration><voice>1</voice></note><note><pitch><step>D</step><octave>5</octave></pitch><duration>960</duration><voice>1</voice></note></measure><measure number="158"><forward><duration>840</duration></forward><note><rest /><duration>240</duration><voice>1</voice></note><note><pitch><step>B</step><octave>4</octave></pitch><duration>400</duration><voice>1</voice></note><note><pitch><step>A</step><octave>4</octave></pitch><duration>400</duration><voice>1</voice></note><note><pitch><step>C</step><octave>-1</octave></pitch><duration>400</duration><voice>1</voice></note><note><rest /><duration>960</duration><voice>1</voice></note><note><pitch><step>A</step><octave>4</octave></pitch><duration>400</duration><voice>1</voice></note><note><rest /><duration>400</duration><voice>1</voice></note><note><pitch><step>E</step><alter>-0.5</alter><octave>-1</octave></pitch><duration>400</duration><voice>1</voice></note><note><pitch><step>B</step><alter>-0.5</alter><octave>4</octave></pitch><duration>400</duration><voice>1</voice></note></measure><measure number="54"><forward><duration>1800</duration></forward><note><rest /><duration>400</duration><voice>1</voice></note><note><rest /><duration>240</duration><voice>1</voice></note></measure><measure number="489"><note><pitch><step>E</step><octave>3</octave></pitch><duration>400</duration><voice>1</voice></note><note><pitch><step>G</step><octave>2</octave></pitch><duration>400</duration><voice>1</voice></note><forward><duration>920</duration></forward><note><pitch><step>A</step><octave>4</octave></pitch><duration>400</duration><voice>1</voice></note><note><pitch><step>C</step><alter>1.0</alter><octave>4</octave></pitch><duration>400</duration><voice>1</voice></note><note><pitch><step>E</step><octave>4</octave></pitch><duration>400</duration><voice>1</voice></note></measure><measure number="68"><forward><duration>1680</duration></forward><note><pitch><step>A</step><alter>1.0</alter><octave>4</octave></pitch><duration>400</duration><voice>1</voice></note></measure><measure number="105"><forward><duration>600</duration></forward><note><pitch><step>D</step><alter>1.0</alter><octave>4</octave></pitch><duration>400</duration><voice>1</voice></note><note><pitch><step>A</step><octave>4</octave></pitch><duration>400</duration><voice>1</voice></note><note><pitch><step>G</step><octave>4</octave></pitch><duration>1920</duration><voice>1</voice></note><note><pitch><step>C</step><alter>1.0</alter><octave>3</octave></pitch><duration>400</duration><voice>1</voice></note><forward><duration>1040</duration></forward><note><pitch><step>C</step><octave>5</octave></pitch><duration>160</duration><voice>1</voice></note><note><pitch><step>G</step><alter>-0.5</alter><octave>6</octave></pitch><duration>400</duration><voice>1</voice></note><note><pitch><step>F</step><octave>4</octave></pitch><duration>400</duration><voice>1</voice></note></measure><measure number="478"><forward><duration>3880</duration></forward><note><rest /><duration>400</duration><voice>1</voice></note></measure><measure number="111" /><measure number="31"><note><pitch><step>G</step><octave>4</octave></pitch><duration>240</duration><voice>1</voice></note></measure><measure number="138"><note><pitch><step>C</step><octave>5</octave></pitch><duration>400</duration><voice>1</voice></note></measure><measure number="26"><forward><duration>840</duration></forward><note><rest /><duration>240</duration><voice>1</voice></note><note><pitch><step>E</step><alter>0.5</alter><octave>2</octave></pitch><duration>400</duration><voice>1</voice></note></measure><measure number="152"><note><pitch><step>D</step><alter>1.0</alter><octave>6</octave></pitch><duration>400</duration><voice>1</voice></note><note><pitch><step>A</step><octave>4</octave></pitch><duration>400</duration><voice>1</voice></note><note><pitch><step>A</step><alter>0.5</alter><octave>3</octave></pitch><duration>400</duration><voice>1</voice></note></measure><measure number="149"><forward><duration>600</duration></forward><note><pitch><step>A</step><octave>5</octave></pitch><duration>400</duration><voice>1</voice></note></measure><measure number="35"><forward><duration>360</duration></forward><note><pitch><step>D</step><octave>4</octave></pitch><duration>400</duration><voice>1</voice></note><note><pitch><step>F</step><alter>1.0</alter><octave>4</octave></pitch><duration>400</duration><voice>1</voice></note></measure><measure number="181" /></part></score-partwise>