<?xml version='1.0' encoding='utf-8'?>
<score-partwise><part-list><score-part id="P1"><part-name>Piano</part-name></score-part></part-list><part id="P1"><measure number="1"><attributes><divisions>480</divisions><time><beats>4</beats><beat-type>4</beat-type></time><key><fifths>0</fifths></key><clef><sign>G</sign><line>2</line></clef></attributes><note><pitch><step>A</step><alter>-0.5</alter><octave>9</octave></pitch><duration>400</duration><voice>1</voice></note><note><pitch><step>D</step><octave>3</octave></pitch><duration>120</duration><voice>1</voice></note></measure><measure number="2" /><measure number="3"><note><pitch><step>D</step><octave>3</octave></pitch><duration>400</duration><voice>1</voice></note><forward><duration>1440</duration></forward><note><pitch><step>G</step><alter>-0.5</alter><octave>3</octave></pitch><duration>80</duration><voice>1</voice></note></measure><measure number="4"><note><pitch><step>G</step><alter>-0.5</alter><octave>3</octave></pitch><voice>1</voice><duration>320</duration><voice>1</voice></note><forward><duration>240</duration></forward><note><pitch><step>D</step><octave>4</octave></pitch><duration>400</duration><voice>1</voice></note></measure><measure number="5" /><measure number="6" /><measure number="7"><forward><duration>360</duration></forward><note><rest /><duration>360</duration><voice>1</voice></note></measure><measure number="8" /><measure number="9" /><measure number="10" /><measure number="11" /><measure number="12"><forward><duration>360</duration></forward><note><pitch><step>D</step><octave>3</octave></pitch><duration>240</duration><voice>1</voice></note></measure><measure number="13"><forward><duration>1680</duration></forward><note><pitch><step>D</step><octave>3</octave></pitch><duration>240</duration><voice>1</voice></note></measure><measure number="14"><note><pitch><step>D</step><octave>3</octave></pitch><voice>1</voice><duration>120</duration><voice>1</voice></note><forward><duration>1800</duration></forward></measure><measure number="15"><note><pitch><step>G</step><alter>1.0</alter><octave>2</octave></pitch><voice>1</voice><duration>360</duration><voice>1</voice></note></measure><measure number="16"><forward><duration>1920</duration></forward></measure><measure number="17"><note><pitch><step>F</step><octave>5</octave></pitch><voice>1</voice><duration>80</duration><voice>1</voice></note><note><pitch><step>C</step><alter>0.5</alter><octave>-1</octave></pitch><duration>400</duration><voice>1</voice></note></measure><measure number="18" /><measure number="19"><note><pitch><step>E</step><octave>1</octave></pitch><duration>400</duration><voice>1</voice></note><note><pitch><step>F</step><alter>1.0</alter><octave>5</octave></pitch><duration>80</duration><voice>1</voice></note></measure><measure number="20"><forward><duration>1920</duration></forward></measure><measure number="21"><note><pitch><step>F</step><alter>1.0</alter><octave>5</octave></pitch><voice>1</voice><duration>80</duration><voice>1</voice></note><forward><duration>640</duration></forward><note><pitch><step>G</step><octave>8</octave></pitch><duration>400</duration><voice>1</voice></note></measure><measure number="22" /><measure number="23"><forward><duration>360</duration></forward><note><pitch><step>G</step><octave>5</octave></pitch><duration>80</duration><voice>1</voice></note></measure><measure number="24"><forward><duration>1320</duration></forward><note><pitch><step>G</step><octave>5</octave></pitch><duration>80</duration><voice>1</voice></note></measure><measure number="25"><forward><duration>1920</duration></forward></measure><measure number="26"><note><pitch><step>F</step><octave>2</octave></pitch><voice>1</voice><duration>400</duration><voice>1</voice></note><note><pitch><step>B</step><octave>4</octave></pitch><duration>360</duration><voice>1</voice></note><forward><duration>840</duration></forward></measure><measure number="27"><note><pitch><step>A</step><octave>4</octave></pitch><voice>1</voice><duration>120</duration><voice>1</voice></note><forward><duration>480</duration></forward><note><pitch><step>C</step><alter>1.0</alter><octave>2</octave></pitch><duration>80</duration><voice>1</voice></note></measure><measure number="28"><forward><duration>360</duration></forward><note><pitch><step>F</step><alter>1.0</alter><octave>5</octave></pitch><duration>840</duration><voice>1</voice></note><note><pitch><step>B</step><octave>5</octave></pitch><duration>80</duration><voice>1</voice></note><note><pitch><step>B</step><octave>5</octave></pitch><duration>80</duration><voice>1</voice></note><forward><duration>160</duration></forward><note><pitch><step>C</step><alter>1.0</alter><octave>8</octave></pitch><duration>400</duration><voice>1</voice></note></measure><measure number="29"><forward><duration>360</duration></forward><note><pitch><step>F</step><octave>4</octave></pitch><duration>360</duration><voice>1</voice></note><forward><duration>1080</duration></forward><note><pitch><step>C</step><alter>1.0</alter><octave>5</octave></pitch><duration>120</duration><voice>1</voice></note></measure><measure number="30"><note><pitch><step>C</step><alter>1.0</alter><octave>5</octave></pitch><voice>1</voice><duration>720</duration><voice>1</voice></note><note><pitch><step>C</step><alter>1.0</alter><octave>4</octave></pitch><duration>80</duration><voice>1</voice></note></measure><measure number="31"><forward><duration>360</duration></forward><note><pitch><step>F</step><octave>4</octave></pitch><duration>360</duration><voice>1</voice></note><note><pitch><step>D</step><alter>1.0</alter><octave>5</octave></pitch><duration>80</duration><voice>1</voice></note></measure><measure number="32"><forward><duration>360</duration></forward><note><pitch><step>G</step><octave>2</octave></pitch><duration>400</duration><voice>1</voice></note><note><pitch><step>D</step><alter>1.0</alter><octave>4</octave></pitch><duration>400</duration><voice>1</voice></note><note><pitch><step>D</step><alter>1.0</alter><octave>4</octave></pitch><duration>240</duration><voice>1</voice></note></measure><measure number="33"><forward><duration>120</duration></forward><note><pitch><step>C</step><octave>3</octave></pitch><duration>240</duration><voice>1</voice></note><forward><duration>240</duration></forward><note><pitch><step>A</step><octave>5</octave></pitch><duration>80</duration><voice>1</voice></note><note><pitch><step>D</step><alter>1.0</alter><octave>4</octave></pitch><duration>80</duration><voice>1</voice></note></measure><measure number="34"><forward><duration>1680</duration></forward><note><pitch><step>B</step><octave>2</octave></pitch><duration>80</duration><voice>1</voice></note><note><pitch><step>C</step><alter>1.0</alter><octave>4</octave></pitch><duration>80</duration><voice>1</voice></note><note><pitch><step>C</step><alter>1.0</alter><octave>2</octave></pitch><duration>80</duration><voice>1</voice></note></measure><measure number="35"><note><pitch><step>F</step><octave>4</octave></pitch><duration>480</duration><voice>1</voice></note><forward><duration>840</duration></forward><note><pitch><step>B</step><octave>5</octave></pitch><duration>80</duration><voice>1</voice></note><note><pitch><step>A</step><octave>2</octave></pitch><duration>80</duration><voice>1</voice></note><note><pitch><step>D</step><octave>4</octave></pitch><duration>240</duration><voice>1</voice></note><note><pitch><step>C</step><alter>1.0</alter><octave>4</octave></pitch><duration>80</duration><voice>1</voice></note><note><pitch><step>E</step><octave>6</octave></pitch><duration>80</duration><voice>1</voice></note></measure><measure number="36"><note><pitch><step>F</step><alter>1.0</alter><octave>5</octave></pitch><voice>1</voice><duration>240</duration><voice>1</voice></note></measure><measure number="37"><forward><duration>120</duration></forward><note><pitch><step>D</step><alter>1.0</alter><octave>4</octave></pitch><duration>120</duration><voice>1</voice></note><forward><duration>840</duration></forward><note><pitch><step>A</step><alter>1.0</alter><octave>3</octave></pitch><duration>400</duration><voice>1</voice></note></measure><measure number="38"><note><pitch><step>A</step><octave>4</octave></pitch><duration>720</duration><voice>1</voice></note></measure><measure number="39"><note><pitch><step>B</step><octave>6</octave></pitch><duration>400</duration><voice>1</voice></note></measure><measure number="40"><forward><duration>160</duration></forward></measure><measure number="41"><forward><duration>640</duration></forward></measure><measure number="42"><forward><duration>1240</duration></forward></measure><measure number="43"><forward><duration>880</duration></forward></measure><measure number="44"><forward><duration>400</duration></forward></measure><measure number="45"><note><pitch><step>D</step><alter>1.0</alter><octave>4</octave></pitch><duration>80</duration><voice>1</voice></note></measure><measure number="46"><note><pitch><step>C</step><alter>1.0</alter><octave>5</octave></pitch><duration>240</duration><voice>1</voice></note></measure><measure number="47"><note><pitch><step>F</step><alter>1.0</alter><octave>5</octave></pitch><duration>600</duration><voice>1</voice></note></measure><measure number="48"><note><pitch><step>A</step><octave>4</octave></pitch><duration>240</duration><voice>1</voice></note></measure></part></score-partwise>