<?xml version='1.0' encoding='utf-8'?>
<score-partwise><part-list><score-part id="P1"><part-name>Piano</part-name></score-part></part-list><part id="P1"><measure number="1"><attributes><divisions>480</divisions><time><beats>4</beats><beat-type>4</beat-type></time><key><fifths>0</fifths></key><clef><sign>G</sign><line>2</line></clef><clef number="2"><sign>F</sign><line>4</line></clef></attributes><note><rest /><duration>480</duration><voice>1</voice><staff>1</staff></note><note><rest /><duration>120</duration><voice>1</voice></note><note><pitch><step>C</step><octave>5</octave></pitch><duration>480</duration><voice>1</voice><staff>1</staff></note><note><rest /><duration>240</duration><voice>1</voice></note><note><pitch><step>D</step><octave>4</octave></pitch><duration>480</duration><voice>1</voice><staff>1</staff></note><note><pitch><step>F</step><octave>4</octave></pitch><duration>120</duration><voice>1</voice><staff>1</staff></note></measure><measure number="2"><note><pitch><step>F</step><octave>4</octave></pitch><staff>1</staff><duration>240</duration><voice>1</voice></note><note><pitch><step>G</step><octave>4</octave></pitch><duration>240</duration><voice>1</voice><staff>1</staff></note><note><rest /><duration>1440</duration><voice>1</voice><staff>1</staff></note></measure><measure number="3"><note><rest /><duration>360</duration><voice>1</voice></note><note><pitch><step>B</step><alter>-0.5</alter><octave>4</octave></pitch><duration>480</duration><voice>1</voice><staff>1</staff></note><note><pitch><step>G</step><octave>4</octave></pitch><duration>480</duration><voice>1</voice><staff>1</staff></note><note><pitch><step>G</step><octave>4</octave></pitch><duration>480</duration><voice>1</voice><staff>1</staff></note><note><rest /><duration>120</duration><voice>1</voice><staff>1</staff></note></measure><measure number="4"><note><pitch><step>D</step><alter>1.0</alter><octave>4</octave></pitch><staff>1</staff><duration>120</duration><voice>1</voice></note><note><rest /><duration>960</duration><voice>1</voice></note><note><pitch><step>A</step><alter>1.0</alter><octave>4</octave></pitch><duration>240</duration><voice>1</voice><staff>1</staff></note><note><pitch><step>C</step><octave>5</octave></pitch><duration>360</duration><voice>1</voice><staff>1</staff></note><note><rest /><duration>240</duration><voice>1</voice><staff>1</staff></note></measure><measure number="5"><note><pitch><step>C</step><octave>5</octave></pitch><staff>1</staff><duration>120</duration><voice>1</voice></note><note><rest /><duration>1800</duration><voice>1</voice><staff>1</staff></note></measure><measure number="6"><note><rest /><duration>120</duration><voice>1</voice></note><note><pitch><step>G</step><octave>4</octave></pitch><duration>240</duration><voice>1</voice><staff>1</staff></note><note><pitch><step>C</step><octave>5</octave></pitch><duration>240</duration><voice>1</voice><staff>1</staff></note><note><pitch><step>C</step><octave>5</octave></pitch><duration>480</duration><voice>1</voice><staff>1</staff></note><note><rest /><duration>240</duration><voice>1</voice></note><note><pitch><step>A</step><alter>1.0</alter><octave>4</octave></pitch><duration>240</duration><voice>1</voice><staff>1</staff></note><note><rest /><duration>240</duration><voice>1</voice></note><note><pitch><step>C</step><octave>5</octave></pitch><duration>120</duration><voice>1</voice><staff>1</staff></note></measure><measure number="7"><note><pitch><step>C</step><octave>5</octave></pitch><staff>1</staff><duration>120</duration><voice>1</voice></note><note><rest /><duration>1800</duration><voice>1</voice><staff>1</staff></note></measure><measure number="8"><note><rest /><staff>1</staff><duration>480</duration><voice>1</voice></note><note><rest /><duration>180</duration><voice>1</voice></note><note><pitch><step>D</step><alter>1.0</alter><octave>4</octave></pitch><duration>480</duration><voice>1</voice><staff>1</staff></note><note><rest /><duration>720</duration><voice>1</voice></note><note><rest /><duration>60</duration><voice>1</voice><staff>1</staff></note></measure><measure number="9"><note><pitch><step>F</step><octave>4</octave></pitch><staff>1</staff><duration>120</duration><voice>1</voice></note><note><rest /><duration>1440</duration><voice>1</voice></note><note><pitch><step>D</step><alter>1.0</alter><octave>4</octave></pitch><duration>360</duration><voice>1</voice><staff>1</staff></note></measure><measure number="10"><note><pitch><step>D</step><alter>1.0</alter><octave>4</octave></pitch><staff>1</staff><duration>120</duration><voice>1</voice></note><note><rest /><duration>1440</duration><voice>1</voice></note><note><pitch><step>A</step><alter>1.0</alter><octave>4</octave></pitch><duration>120</duration><voice>1</voice><staff>1</staff></note><note><rest /><duration>240</duration><voice>1</voice><staff>1</staff></note></measure><measure number="11"><note><pitch><step>A</step><alter>1.0</alter><octave>4</octave></pitch><staff>1</staff><duration>360</duration><voice>1</voice></note><note><rest /><duration>480</duration><voice>1</voice></note><note><pitch><step>A</step><alter>1.0</alter><octave>4</octave></pitch><duration>480</duration><voice>1</voice><staff>1</staff></note><note><pitch><step>C</step><octave>5</octave></pitch><duration>240</duration><voice>1</voice><staff>1</staff></note><note><pitch><step>C</step><octave>5</octave></pitch><duration>360</duration><voice>1</voice><staff>1</staff></note></measure><measure number="12"><note><pitch><step>C</step><octave>5</octave></pitch><staff>1</staff><duration>120</duration><voice>1</voice></note><note><rest /><duration>1440</duration><voice>1</voice></note><note><pitch><step>E</step><alter>-0.5</alter><octave>4</octave></pitch><duration>120</duration><voice>1</voice><staff>1</staff></note><note><rest /><duration>240</duration><voice>1</voice><staff>1</staff></note></measure><measure number="13"><note><pitch><step>E</step><alter>-0.5</alter><octave>4</octave></pitch><staff>1</staff><duration>360</duration><voice>1</voice></note><note><rest /><duration>1440</duration><voice>1</voice><staff>1</staff></note><note><rest /><duration>120</duration><voice>1</voice><staff>1</staff></note></measure><measure number="14"><note><rest /><duration>120</duration><voice>1</voice></note><note><pitch><step>G</step><octave>4</octave></pitch><duration>480</duration><voice>1</voice><staff>1</staff></note><note><pitch><step>C</step><octave>4</octave></pitch><duration>120</duration><voice>1</voice><staff>1</staff></note><note><rest /><duration>840</duration><voice>1</voice></note><note><pitch><step>D</step><octave>5</octave></pitch><duration>360</duration><voice>1</voice><staff>1</staff></note></measure><measure number="15"><note><pitch><step>D</step><octave>5</octave></pitch><staff>1</staff><duration>120</duration><voice>1</voice></note><note><rest /><duration>1800</duration><voice>1</voice><staff>1</staff></note></measure><measure number="16"><note><rest /><duration>120</duration><voice>1</voice></note><note><pitch><step>F</step><alter>1.0</alter><octave>4</octave></pitch><duration>480</duration><voice>1</voice><staff>1</staff></note><note><pitch><step>D</step><octave>4</octave></pitch><duration>480</duration><voice>1</voice><staff>1</staff></note><note><rest /><duration>840</duration><voice>1</voice><staff>1</staff></note></measure><measure number="17"><note><pitch><step>D</step><octave>5</octave></pitch><duration>240</duration><voice>1</voice><staff>1</staff></note><note><rest /><duration>1440</duration><voice>1</voice><staff>1</staff></note><note><rest /><duration>240</duration><voice>1</voice><staff>1</staff></note></measure><measure number="18"><note><pitch><step>D</step><alter>1.0</alter><octave>4</octave></pitch><duration>840</duration><voice>1</voice><staff>1</staff></note><note><rest /><duration>960</duration><voice>1</voice><staff>1</staff></note><note><rest /><duration>120</duration><voice>1</voice><staff>1</staff></note></measure><measure number="19"><note><rest /><duration>1920</duration><voice>1</voice></note></measure><measure number="20"><note><pitch><step>F</step><octave>4</octave></pitch><duration>120</duration><voice>1</voice><staff>1</staff></note><note><rest /><duration>1800</duration><voice>1</voice><staff>1</staff></note></measure><measure number="21"><note><pitch><step>C</step><octave>5</octave></pitch><duration>480</duration><voice>1</voice><staff>1</staff></note><note><rest /><duration>1440</duration><voice>1</voice><staff>1</staff></note></measure><measure number="22"><note><pitch><step>A</step><octave>4</octave></pitch><duration>480</duration><voice>1</voice><staff>1</staff></note><note><rest /><duration>1440</duration><voice>1</voice><staff>1</staff></note></measure></part></score-partwise>