<?xml version='1.0' encoding='utf-8'?>
<score-partwise><part-list><score-part id="P1"><part-name>Piano</part-name></score-part></part-list><part id="P1"><measure number="1"><attributes><divisions>480</divisions><time><beats>4</beats><beat-type>4</beat-type></time><key><fifths>0</fifths></key><clef><sign>G</sign><line>2</line></clef></attributes></measure><measure number="77" /><measure number="238"><note><pitch><step>D</step><octave>3</octave></pitch><duration>400</duration><voice>1</voice></note><note><pitch><step>C</step><alter>0.5</alter><octave>4</octave></pitch><duration>400</duration><voice>1</voice></note></measure><measure number="100"><forward><duration>360</duration></forward><note><pitch><step>E</step><octave>4</octave></pitch><duration>720</duration><voice>1</voice></note><note><rest /><duration>360</duration><voice>1</voice></note></measure><measure number="41"><forward><duration>960</duration></forward><note><rest /><duration>960</duration><voice>1</voice></note><note><pitch><step>C</step><octave>5</octave></pitch><duration>400</duration><voice>1</voice></note><note><pitch><step>A</step><alter>1.0</alter><octave>4</octave></pitch><duration>400</duration><voice>1</voice></note><note><pitch><step>C</step><octave>4</octave></pitch><duration>400</duration><voice>1</voice></note></measure><measure number="107" /><measure number="29"><note><pitch><step>C</step><octave>4</octave></pitch><duration>240</duration><voice>1</voice></note><forward><duration>3680</duration></forward><note><pitch><step>G</step><octave>4</octave></pitch><duration>400</duration><voice>1</voice></note><note><pitch><step>F</step><alter>1.0</alter><octave>4</octave></pitch><duration>400</duration><voice>1</voice></note><note><pitch><step>D</step><octave>5</octave></pitch><duration>400</duration><voice>1</voice></note><note><rest /><duration>400</duration><voice>1</voice></note><note><pitch><step>C</step><alter>1.0</alter><octave>5</octave></pitch><duration>400</duration><voice>1</voice></note><note><pitch><step>A</step><octave>4</octave></pitch><duration>400</duration><voice>1</voice></note><note><pitch><step>F</step><octave>5</octave></pitch><duration>400</duration><voice>1</voice></note></measure><measure number="3"><forward><duration>120</duration></forward><note><pitch><step>E</step><octave>7</octave></pitch><duration>400</duration><voice>1</voice></note><forward><duration>440</duration></forward><note><pitch><step>D</step><octave>2</octave></pitch><duration>400</duration><voice>1</voice></note><note><pitch><step>A</step><octave>4</octave></pitch><duration>400</duration><voice>1</voice></note><note><pitch><step>G</step><alter>1.0</alter><octave>4</octave></pitch><duration>240</duration><voice>1</voice></note></measure><measure number="504"><note><pitch><step>F</step><octave>4</octave></pitch><duration>240</duration><voice>1</voice></note></measure><measure number="347"><note><pitch><step>G</step><octave>4</octave></pitch><duration>240</duration><voice>1</voice></note></measure><measure number="508"><note><pitch><step>C</step><octave>6</octave></pitch><duration>400</duration><voice>1</voice></note></measure><measure number="93"><note><pitch><step>F</step><octave>4</octave></pitch><duration>400</duration><voice>1</voice></note></measure><measure number="428"><note><pitch><step>B</step><octave>3</octave></pitch><duration>400</duration><voice>1</voice></note><note><pitch><step>A</step><octave>4</octave></pitch><duration>400</duration><voice>1</voice></note><note><pitch><step>C</step><alter>0.5</alter><octave>9</octave></pitch><duration>400</duration><voice>1</voice></note><note><pitch><step>A</step><octave>4</octave></pitch><duration>400</duration><voice>1</voice></note><note><pitch><step>E</step><octave>3</octave></pitch><duration>400</duration><voice>1</voice></note></measure><measure number="150"><forward><duration>40</duration></forward><note><pitch><step>F</step><octave>4</octave></pitch><duration>240</duration><voice>1</voice></note><note><pitch><step>A</step><alter>1.0</alter><octave>1</octave></pitch><duration>400</duration><voice>1</voice></note></measure><measure number="21"><note><pitch><step>F</step><alter>1.0</alter><octave>3</octave></pitch><duration>400</duration><voice>1</voice></note><forward><duration>1400</duration></forward><note><pitch><step>A</step><octave>5</octave></pitch><duration>400</duration><voice>1</voice></note><note><pitch><step>A</step><octave>4</octave></pitch><duration>240</duration><voice>1</voice></note><note><pitch><step>D</step><alter>0.5</alter><octave>-1</octave></pitch><duration>400</duration><voice>1</voice></note><note><pitch><step>A</step><alter>1.0</alter><octave>4</octave></pitch><duration>240</duration><voice>1</voice></note><note><pitch><step>D</step><octave>2</octave></pitch><duration>400</duration><voice>1</voice></note><note><pitch><step>A</step><octave>4</octave></pitch><duration>400</duration><voice>1</voice></note></measure><measure number="247" /><measure number="26"><note><pitch><step>G</step><octave>4</octave></pitch><duration>120</duration><voice>1</voice></note><forward><duration>240</duration></forward><note><pitch><step>A</step><octave>4</octave></pitch><duration>400</duration><voice>1</voice></note></measure><measure number="122"><note><pitch><step>E</step><octave>4</octave></pitch><duration>120</duration><voice>1</voice></note><note><pitch><step>C</step><octave>4</octave></pitch><duration>240</duration><voice>1</voice></note><note><pitch><step>D</step><alter>-0.5</alter><octave>0</octave></pitch><duration>400</duration><voice>1</voice></note><forward><duration>200</duration></forward><note><pitch><step>B</step><octave>4</octave></pitch><duration>240</duration><voice>1</voice></note></measure><measure number="35"><note><pitch><step>G</step><alter>1.0</alter><octave>4</octave></pitch><duration>240</duration><voice>1</voice></note><note><pitch><step>E</step><alter>-0.5</alter><octave>3</octave></pitch><duration>400</duration><voice>1</voice></note><note><pitch><step>G</step><octave>4</octave></pitch><duration>240</duration><voice>1</voice></note><note><pitch><step>A</step><octave>4</octave></pitch><duration>480</duration><voice>1</voice></note><note><pitch><step>F</step><octave>4</octave></pitch><duration>240</duration><voice>1</voice></note><note><pitch><step>B</step><octave>5</octave></pitch><duration>400</duration><voice>1</voice></note></measure><measure number="34"><forward><duration>120</duration></forward><note><pitch><step>F</step><alter>1.0</alter><octave>4</octave></pitch><duration>240</duration><voice>1</voice></note></measure><measure number="67"><forward><duration>1680</duration></forward><note><pitch><step>D</step><alter>1.0</alter><octave>4</octave></pitch><duration>240</duration><voice>1</voice></note><note><pitch><step>B</step><octave>3</octave></pitch><duration>240</duration><voice>1</voice></note></measure><measure number="238"><forward><duration>4280</duration></forward><note><pitch><step>C</step><octave>5</octave></pitch><duration>480</duration><voice>1</voice></note><note><pitch><step>F</step><alter>1.0</alter><octave>4</octave></pitch><duration>240</duration><voice>1</voice></note></measure><measure number="490"><note><pitch><step>C</step><alter>1.0</alter><octave>5</octave></pitch><duration>400</duration><voice>1</voice></note></measure><measure number="96"><note><pitch><step>A</step><octave>5</octave></pitch><duration>400</duration><voice>1</voice></note><note><pitch><step>C</step><octave>5</octave></pitch><duration>240</duration><voice>1</voice></note><note><pitch><step>E</step><alter>-0.5</alter><octave>5</octave></pitch><duration>400</duration><voice>1</voice></note><note><pitch><step>E</step><alter>-0.5</alter><octave>4</octave></pitch><duration>240</duration><voice>1</voice></note></measure><measure number="55"><forward><duration>720</duration></forward><note><pitch><step>G</step><octave>4</octave></pitch><duration>240</duration><voice>1</voice></note></measure><measure number="247"><forward><duration>840</duration></forward><note><pitch><step>F</step><octave>4</octave></pitch><duration>240</duration><voice>1</voice></note><note><pitch><step>F</step><octave>4</octave></pitch><duration>240</duration><voice>1</voice></note><forward><duration>800</duration></forward><note><pitch><step>G</step><alter>-0.5</alter><octave>0</octave></pitch><duration>120</duration><voice>1</voice></note><note><pitch><step>C</step><octave>5</octave></pitch><duration>240</duration><voice>1</voice></note><note><pitch><step>D</step><alter>1.0</alter><octave>5</octave></pitch><duration>240</duration><voice>1</voice></note></measure><measure number="93"><note><pitch><step>F</step><alter>0.5</alter><octave>4</octave></pitch><duration>400</duration><voice>1</voice></note><note><pitch><step>G</step><octave>5</octave></pitch><duration>400</duration><voice>1</voice></note><note><pitch><step>D</step><octave>4</octave></pitch><duration>240</duration><voice>1</voice></note><note><pitch><step>G</step><octave>4</octave></pitch><duration>1440</duration><voice>1</voice></note><note><pitch><step>C</step><octave>5</octave></pitch><duration>720</duration><voice>1</voice></note><note><pitch><step>A</step><octave>4</octave></pitch><duration>240</duration><voice>1</voice></note><forward><duration>360</duration></forward><note><pitch><step>D</step><octave>4</octave></pitch><duration>240</duration><voice>1</voice></note><note><pitch><step>F</step><octave>4</octave></pitch><duration>240</duration><voice>1</voice></note><note><pitch><step>G</step><octave>5</octave></pitch><duration>400</duration><voice>1</voice></note><forward><duration>1280</duration></forward><note><pitch><step>F</step><alter>1.0</alter><octave>4</octave></pitch><duration>240</duration><voice>1</voice></note><note><pitch><step>G</step><octave>4</octave></pitch><duration>480</duration><voice>1</voice></note></measure><measure number="340"><forward><duration>920</duration></forward><note><pitch><step>A</step><alter>1.0</alter><octave>4</octave></pitch><duration>160</duration><voice>1</voice></note><note><pitch><step>F</step><octave>3</octave></pitch><duration>240</duration><voice>1</voice></note></measure><measure number="386"><forward><duration>1080</duration></forward><note><pitch><step>F</step><octave>4</octave></pitch><duration>240</duration><voice>1</voice></note></measure></part></score-partwise>