<?xml version='1.0' encoding='utf-8'?>
<score-partwise><part-list><score-part id="P1"><part-name>Piano</part-name></score-part></part-list><part id="P1"><measure number="1"><attributes><divisions>480</divisions><time><beats>4</beats><beat-type>4</beat-type></time><key><fifths>0</fifths></key><clef><sign>G</sign><line>2</line></clef></attributes></measure><measure number="16"><forward><duration>600</duration></forward><note><pitch><step>C</step><octave>5</octave></pitch><duration>400</duration><voice>1</voice></note><note><pitch><step>D</step><alter>1.0</alter><octave>5</octave></pitch><duration>400</duration><voice>1</voice></note><note><pitch><step>G</step><alter>1.0</alter><octave>5</octave></pitch><duration>400</duration><voice>1</voice></note></measure><measure number="146"><note><pitch><step>B</step><octave>5</octave></pitch><duration>400</duration><voice>1</voice></note></measure><measure number="68"><forward><duration>840</duration></forward><note><pitch><step>B</step><alter>0.5</alter><octave>5</octave></pitch><duration>400</duration><voice>1</voice></note><note><pitch><step>G</step><alter>-0.5</alter><octave>9</octave></pitch><duration>400</duration><voice>1</voice></note></measure><measure number="4"><forward><duration>200</duration></forward><note><pitch><step>C</step><octave>5</octave></pitch><duration>1920</duration><voice>1</voice></note><note><pitch><step>C</step><octave>5</octave></pitch><duration>120</duration><voice>1</voice></note></measure><measure number="21"><forward><duration>840</duration></forward><note><pitch><step>B</step><octave>3</octave></pitch><duration>400</duration><voice>1</voice></note><note><pitch><step>A</step><octave>5</octave></pitch><duration>480</duration><voice>1</voice></note></measure><measure number="6"><forward><duration>1400</duration></forward><note><pitch><step>A</step><octave>3</octave></pitch><duration>120</duration><voice>1</voice></note><note><pitch><step>E</step><octave>5</octave></pitch><duration>480</duration><voice>1</voice></note><note><pitch><step>E</step><octave>3</octave></pitch><duration>480</duration><voice>1</voice></note></measure><measure number="6"><forward><duration>80</duration></forward><note><pitch><step>F</step><octave>4</octave></pitch><duration>400</duration><voice>1</voice></note><note><pitch><step>B</step><octave>4</octave></pitch><duration>120</duration><voice>1</voice></note></measure><measure number="8"><forward><duration>600</duration></forward><note><pitch><step>D</step><alter>1.0</alter><octave>5</octave></pitch><duration>1920</duration><voice>1</voice></note><note><pitch><step>A</step><octave>3</octave></pitch><duration>240</duration><voice>1</voice></note></measure><measure number="235"><note><pitch><step>B</step><octave>3</octave></pitch><duration>1920</duration><voice>1</voice></note><note><pitch><step>B</step><octave>3</octave></pitch><duration>1920</duration><voice>1</voice></note></measure><measure number="59" /><measure number="229"><note><pitch><step>A</step><octave>5</octave></pitch><duration>720</duration><voice>1</voice></note></measure><measure number="266" /><measure number="13"><forward><duration>120</duration></forward><note><pitch><step>A</step><octave>3</octave></pitch><duration>120</duration><voice>1</voice></note></measure><measure number="6"><forward><duration>360</duration></forward><note><pitch><step>A</step><octave>3</octave></pitch><duration>720</duration><voice>1</voice></note></measure><measure number="6"><forward><duration>720</duration></forward><note><pitch><step>F</step><alter>1.0</alter><octave>3</octave></pitch><duration>480</duration><voice>1</voice></note><note><pitch><step>F</step><alter>1.0</alter><octave>3</octave></pitch><duration>480</duration><voice>1</voice></note></measure><measure number="175"><forward><duration>520</duration></forward><note><pitch><step>F</step><alter>1.0</alter><octave>3</octave></pitch><duration>480</duration><voice>1</voice></note></measure><measure number="48"><forward><duration>400</duration></forward><note><pitch><step>A</step><octave>2</octave></pitch><duration>240</duration><voice>1</voice></note><note><pitch><step>A</step><alter>-0.5</alter><octave>2</octave></pitch><duration>400</duration><voice>1</voice></note><note><pitch><step>A</step><octave>3</octave></pitch><duration>720</duration><voice>1</voice></note></measure><measure number="172"><forward><duration>120</duration></forward><note><pitch><step>F</step><octave>4</octave></pitch><duration>240</duration><voice>1</voice></note><note><pitch><step>F</step><alter>1.0</alter><octave>3</octave></pitch><duration>1920</duration><voice>1</voice></note></measure><measure number="8"><forward><duration>240</duration></forward><note><pitch><step>C</step><octave>5</octave></pitch><duration>480</duration><voice>1</voice></note><note><pitch><step>D</step><alter>1.0</alter><octave>6</octave></pitch><duration>720</duration><voice>1</voice></note></measure><measure number="146" /><measure number="252"><note><pitch><step>A</step><octave>2</octave></pitch><duration>480</duration><voice>1</voice></note><forward><duration>920</duration></forward><note><pitch><step>C</step><octave>5</octave></pitch><duration>480</duration><voice>1</voice></note></measure><measure number="49"><note><pitch><step>B</step><octave>3</octave></pitch><duration>1920</duration><voice>1</voice></note><note><pitch><step>F</step><alter>1.0</alter><octave>2</octave></pitch><duration>720</duration><voice>1</voice></note></measure><measure number="7"><forward><duration>120</duration></forward><note><pitch><step>G</step><octave>3</octave></pitch><duration>480</duration><voice>1</voice></note><note><pitch><step>A</step><octave>5</octave></pitch><duration>120</duration><voice>1</voice></note><forward><duration>480</duration></forward><note><pitch><step>A</step><octave>3</octave></pitch><duration>480</duration><voice>1</voice></note><note><pitch><step>A</step><alter>1.0</alter><octave>4</octave></pitch><duration>240</duration><voice>1</voice></note></measure><measure number="46"><forward><duration>120</duration></forward><note><pitch><step>A</step><octave>5</octave></pitch><duration>120</duration><voice>1</voice></note><forward><duration>240</duration></forward><note><pitch><step>B</step><octave>2</octave></pitch><duration>120</duration><voice>1</voice></note><forward><duration>120</duration></forward><note><pitch><step>A</step><octave>5</octave></pitch><duration>120</duration><voice>1</voice></note><note><pitch><step>F</step><alter>1.0</alter><octave>3</octave></pitch><duration>120</duration><voice>1</voice></note><note><pitch><step>A</step><alter>1.0</alter><octave>4</octave></pitch><duration>240</duration><voice>1</voice></note><note><pitch><step>D</step><alter>1.0</alter><octave>5</octave></pitch><duration>120</duration><voice>1</voice></note></measure><measure number="120"><forward><duration>720</duration></forward><note><pitch><step>D</step><alter>1.0</alter><octave>5</octave></pitch><duration>120</duration><voice>1</voice></note></measure><measure number="14" /><measure number="65"><note><pitch><step>A</step><octave>3</octave></pitch><duration>480</duration><voice>1</voice></note><note><pitch><step>D</step><octave>3</octave></pitch><duration>240</duration><voice>1</voice></note></measure><measure number="41"><forward><duration>880</duration></forward><note><pitch><step>D</step><alter>1.0</alter><octave>4</octave></pitch><duration>480</duration><voice>1</voice></note></measure><measure number="7"><forward><duration>120</duration></forward><note><pitch><step>D</step><alter>1.0</alter><octave>5</octave></pitch><duration>400</duration><voice>1</voice></note></measure></part></score-partwise>