<?xml version='1.0' encoding='utf-8'?>
<score-partwise><part-list><score-part id="P1"><part-name>Piano</part-name></score-part></part-list><part id="P1"><measure number="1"><attributes><divisions>480</divisions><time><beats>4</beats><beat-type>4</beat-type></time><key><fifths>0</fifths></key><clef><sign>G</sign><line>2</line></clef></attributes><note><pitch><step>F</step><alter>1.0</alter><octave>4</octave></pitch><duration>240</duration><voice>1</voice></note></measure><measure number="2"><note><pitch><step>B</step><octave>1</octave></pitch><duration>400</duration><voice>1</voice></note><note><pitch><step>D</step><octave>6</octave></pitch><duration>120</duration><voice>1</voice></note><note><rest /><duration>240</duration><voice>1</voice></note><note><pitch><step>D</step><octave>5</octave></pitch><duration>240</duration><voice>1</voice></note><note><pitch><step>G</step><octave>4</octave></pitch><duration>280</duration><voice>1</voice></note></measure><measure number="3"><note><pitch><step>G</step><octave>4</octave></pitch><duration>200</duration><voice>1</voice></note><forward><duration>120</duration></forward><note><pitch><step>E</step><octave>5</octave></pitch><duration>240</duration><voice>1</voice></note><note><pitch><step>B</step><octave>4</octave></pitch><duration>120</duration><voice>1</voice></note></measure><measure number="4"><forward><duration>1920</duration></forward></measure><measure number="5"><note><pitch><step>G</step><octave>3</octave></pitch><duration>240</duration><voice>1</voice></note><note><pitch><step>F</step><alter>0.5</alter><octave>2</octave></pitch><duration>160</duration><voice>1</voice></note><note><pitch><step>G</step><octave>3</octave></pitch><duration>240</duration><voice>1</voice></note><note><pitch><step>G</step><octave>3</octave></pitch><duration>720</duration><voice>1</voice></note><note><pitch><step>D</step><octave>5</octave></pitch><duration>160</duration><voice>1</voice></note><note><rest /><duration>240</duration><voice>1</voice></note><note><pitch><step>C</step><octave>5</octave></pitch><duration>120</duration><voice>1</voice></note></measure><measure number="6"><note><pitch><step>G</step><octave>4</octave></pitch><duration>960</duration><voice>1</voice></note><note><pitch><step>C</step><octave>5</octave></pitch><duration>480</duration><voice>1</voice></note><note><pitch><step>D</step><alter>1.0</alter><octave>5</octave></pitch><duration>480</duration><voice>1</voice></note></measure><measure number="7"><note><rest /><duration>120</duration><voice>1</voice></note><note><pitch><step>G</step><octave>3</octave></pitch><duration>240</duration><voice>1</voice></note><forward><duration>960</duration></forward><note><rest /><duration>120</duration><voice>1</voice></note><note><pitch><step>C</step><octave>5</octave></pitch><duration>480</duration><voice>1</voice></note></measure><measure number="8"><forward><duration>80</duration></forward><note><pitch><step>C</step><octave>5</octave></pitch><duration>960</duration><voice>1</voice></note><note><pitch><step>G</step><octave>4</octave></pitch><duration>240</duration><voice>1</voice></note><note><pitch><step>G</step><alter>1.0</alter><octave>3</octave></pitch><duration>40</duration><voice>1</voice></note></measure><measure number="9"><note><pitch><step>G</step><alter>1.0</alter><octave>3</octave></pitch><duration>440</duration><voice>1</voice></note><note><pitch><step>D</step><alter>1.0</alter><octave>5</octave></pitch><duration>120</duration><voice>1</voice></note><note><pitch><step>F</step><octave>5</octave></pitch><duration>480</duration><voice>1</voice></note><note><pitch><step>G</step><alter>1.0</alter><octave>4</octave></pitch><duration>480</duration><voice>1</voice></note><note><pitch><step>D</step><alter>1.0</alter><octave>4</octave></pitch><duration>120</duration><voice>1</voice></note><note><pitch><step>D</step><octave>6</octave></pitch><duration>120</duration><voice>1</voice></note></measure><measure number="10"><note><pitch><step>D</step><octave>6</octave></pitch><duration>120</duration><voice>1</voice></note><note><pitch><step>D</step><alter>1.0</alter><octave>4</octave></pitch><duration>840</duration><voice>1</voice></note><note><pitch><step>D</step><octave>5</octave></pitch><duration>240</duration><voice>1</voice></note><note><pitch><step>C</step><alter>1.0</alter><octave>5</octave></pitch><duration>480</duration><voice>1</voice></note><note><pitch><step>B</step><alter>-0.5</alter><octave>3</octave></pitch><duration>240</duration><voice>1</voice></note></measure><measure number="11"><note><pitch><step>B</step><octave>4</octave></pitch><duration>360</duration><voice>1</voice></note></measure><measure number="12"><note><pitch><step>G</step><octave>4</octave></pitch><duration>240</duration><voice>1</voice></note><note><pitch><step>A</step><octave>4</octave></pitch><duration>240</duration><voice>1</voice></note><note><pitch><step>A</step><alter>1.0</alter><octave>4</octave></pitch><duration>240</duration><voice>1</voice></note><note><pitch><step>D</step><octave>5</octave></pitch><duration>120</duration><voice>1</voice></note><note><pitch><step>D</step><alter>1.0</alter><octave>5</octave></pitch><duration>240</duration><voice>1</voice></note><note><pitch><step>D</step><alter>1.0</alter><octave>4</octave></pitch><duration>240</duration><voice>1</voice></note><note><pitch><step>A</step><octave>5</octave></pitch><duration>240</duration><voice>1</voice></note><note><pitch><step>A</step><alter>1.0</alter><octave>4</octave></pitch><duration>240</duration><voice>1</voice></note></measure><measure number="13" /><measure number="14"><forward><duration>1400</duration></forward></measure><measure number="15"><note><pitch><step>B</step><octave>4</octave></pitch><duration>240</duration><voice>1</voice></note></measure><measure number="16"><note><pitch><step>F</step><octave>6</octave></pitch><duration>720</duration><voice>1</voice></note></measure><measure number="17"><forward><duration>800</duration></forward></measure><measure number="18"><note><pitch><step>C</step><octave>5</octave></pitch><duration>240</duration><voice>1</voice></note></measure><measure number="19"><forward><duration>1560</duration></forward></measure><measure number="20"><note><pitch><step>G</step><octave>3</octave></pitch><duration>960</duration><voice>1</voice></note></measure><measure number="21"><forward><duration>600</duration></forward></measure><measure number="22"><note><pitch><step>F</step><octave>5</octave></pitch><duration>480</duration><voice>1</voice></note></measure><measure number="23"><forward><duration>240</duration></forward></measure><measure number="24"><note><rest /><duration>360</duration><voice>1</voice></note></measure><measure number="25"><forward><duration>240</duration></forward></measure><measure number="26"><note><pitch><step>C</step><octave>4</octave></pitch><duration>480</duration><voice>1</voice></note></measure><measure number="27"><forward><duration>400</duration></forward></measure><measure number="28"><forward><duration>840</duration></forward></measure><measure number="29"><note><pitch><step>F</step><octave>4</octave></pitch><duration>120</duration><voice>1</voice></note></measure><measure number="30"><note><pitch><step>D</step><alter>1.0</alter><octave>4</octave></pitch><duration>480</duration><voice>1</voice></note></measure><measure number="31"><note><rest /><duration>480</duration><voice>1</voice></note></measure><measure number="32"><note><rest /><duration>240</duration><voice>1</voice></note></measure><measure number="33"><note><pitch><step>G</step><octave>4</octave></pitch><duration>480</duration><voice>1</voice></note></measure><measure number="34"><note><pitch><step>B</step><octave>4</octave></pitch><duration>120</duration><voice>1</voice></note></measure><measure number="35"><forward><duration>240</duration></forward></measure></part></score-partwise>