<?xml version='1.0' encoding='utf-8'?>
<score-partwise><part-list><score-part id="P1"><part-name>Piano</part-name></score-part></part-list><part id="P1"><measure number="1"><attributes><divisions>480</divisions><time><beats>4</beats><beat-type>4</beat-type></time><key><fifths>0</fifths></key><clef><sign>G</sign><line>2</line></clef></attributes><note><pitch><step>C</step><alter>1.0</alter><octave>5</octave></pitch><duration>160</duration><voice>1</voice></note><note><rest /><duration>280</duration><voice>1</voice></note><note><pitch><step>E</step><octave>4</octave></pitch><duration>160</duration><voice>1</voice></note><note><pitch><step>F</step><alter>1.0</alter><octave>5</octave></pitch><duration>160</duration><voice>1</voice></note><note><rest /><duration>40</duration><voice>1</voice></note><note><pitch><step>C</step><octave>5</octave></pitch><duration>160</duration><voice>1</voice></note><note><pitch><step>F</step><octave>3</octave></pitch><duration>160</duration><voice>1</voice></note><note><rest /><duration>80</duration><voice>1</voice></note><note><pitch><step>G</step><alter>1.0</alter><octave>2</octave></pitch><duration>160</duration><voice>1</voice></note><note><rest /><duration>80</duration><voice>1</voice></note><note><pitch><step>D</step><alter>1.0</alter><octave>4</octave></pitch><duration>160</duration><voice>1</voice></note><note><rest /><duration>80</duration><voice>1</voice></note><note><pitch><step>G</step><octave>5</octave></pitch><duration>240</duration><voice>1</voice></note></measure><measure number="2"><note><pitch><step>G</step><octave>5</octave></pitch><duration>240</duration><voice>1</voice></note><note><pitch><step>G</step><octave>5</octave></pitch><duration>360</duration><voice>1</voice></note><note><pitch><step>A</step><octave>5</octave></pitch><duration>360</duration><voice>1</voice></note></measure><measure number="3"><note><rest /><duration>80</duration><voice>1</voice></note><note><pitch><step>E</step><octave>5</octave></pitch><duration>360</duration><voice>1</voice></note><note><rest /><duration>40</duration><voice>1</voice></note><note><pitch><step>D</step><octave>5</octave></pitch><duration>360</duration><voice>1</voice></note><note><rest /><duration>80</duration><voice>1</voice></note><note><pitch><step>G</step><octave>5</octave></pitch><duration>200</duration><voice>1</voice></note><note><rest /><duration>80</duration><voice>1</voice></note><note><pitch><step>G</step><octave>5</octave></pitch><duration>200</duration><voice>1</voice></note><note><pitch><step>C</step><alter>1.0</alter><octave>5</octave></pitch><duration>200</duration><voice>1</voice></note><note><rest /><duration>40</duration><voice>1</voice></note><note><pitch><step>G</step><octave>3</octave></pitch><duration>160</duration><voice>1</voice></note><note><rest /><duration>40</duration><voice>1</voice></note><note><pitch><step>F</step><octave>2</octave></pitch><duration>80</duration><voice>1</voice></note></measure><measure number="4"><note><pitch><step>F</step><octave>2</octave></pitch><duration>280</duration><voice>1</voice></note></measure><measure number="5"><note><rest /><duration>320</duration><voice>1</voice></note><note><pitch><step>G</step><octave>5</octave></pitch><duration>200</duration><voice>1</voice></note><note><rest /><duration>40</duration><voice>1</voice></note><note><pitch><step>C</step><alter>1.0</alter><octave>5</octave></pitch><duration>360</duration><voice>1</voice></note><note><rest /><duration>40</duration><voice>1</voice></note><note><pitch><step>G</step><octave>5</octave></pitch><duration>200</duration><voice>1</voice></note><note><rest /><duration>40</duration><voice>1</voice></note><note><pitch><step>G</step><alter>1.0</alter><octave>3</octave></pitch><duration>240</duration><voice>1</voice></note><note><pitch><step>E</step><octave>5</octave></pitch><duration>320</duration><voice>1</voice></note><note><pitch><step>D</step><octave>4</octave></pitch><duration>160</duration><voice>1</voice></note></measure><measure number="6"><note><pitch><step>G</step><octave>3</octave></pitch><duration>120</duration><voice>1</voice></note></measure><measure number="7"><note><rest /><duration>240</duration><voice>1</voice></note><note><pitch><step>B</step><octave>4</octave></pitch><duration>360</duration><voice>1</voice></note><note><pitch><step>E</step><octave>5</octave></pitch><duration>360</duration><voice>1</voice></note><note><rest /><duration>40</duration><voice>1</voice></note><note><pitch><step>A</step><octave>4</octave></pitch><duration>480</duration><voice>1</voice></note></measure><measure number="8"><note><pitch><step>B</step><octave>4</octave></pitch><duration>400</duration><voice>1</voice></note><note><rest /><duration>1440</duration><voice>1</voice></note><note><pitch><step>C</step><octave>5</octave></pitch><duration>80</duration><voice>1</voice></note></measure><measure number="9"><note><pitch><step>C</step><octave>5</octave></pitch><duration>400</duration><voice>1</voice></note></measure><measure number="10"><note><rest /><duration>440</duration><voice>1</voice></note><note><pitch><step>A</step><octave>4</octave></pitch><duration>160</duration><voice>1</voice></note></measure><measure number="11"><note><pitch><step>A</step><alter>1.0</alter><octave>3</octave></pitch><duration>320</duration><voice>1</voice></note><note><rest /><duration>640</duration><voice>1</voice></note><note><pitch><step>E</step><octave>4</octave></pitch><duration>80</duration><voice>1</voice></note><note><rest /><duration>200</duration><voice>1</voice></note><note><pitch><step>A</step><alter>1.0</alter><octave>4</octave></pitch><duration>80</duration><voice>1</voice></note><note><rest /><duration>40</duration><voice>1</voice></note><note><pitch><step>E</step><octave>4</octave></pitch><duration>160</duration><voice>1</voice></note><note><rest /><duration>80</duration><voice>1</voice></note><note><pitch><step>D</step><octave>4</octave></pitch><duration>160</duration><voice>1</voice></note><note><pitch><step>E</step><octave>6</octave></pitch><duration>160</duration><voice>1</voice></note></measure><measure number="12"><note><pitch><step>F</step><octave>4</octave></pitch><duration>120</duration><voice>1</voice></note></measure><measure number="13"><note><rest /><duration>120</duration><voice>1</voice></note><note><pitch><step>D</step><octave>4</octave></pitch><duration>400</duration><voice>1</voice></note></measure><measure number="14"><note><pitch><step>A</step><octave>3</octave></pitch><duration>120</duration><voice>1</voice></note></measure><measure number="15"><note><pitch><step>B</step><octave>4</octave></pitch><duration>560</duration><voice>1</voice></note></measure><measure number="16"><note><pitch><step>A</step><alter>1.0</alter><octave>3</octave></pitch><duration>1360</duration><voice>1</voice></note></measure><measure number="17"><note><pitch><step>F</step><octave>4</octave></pitch><duration>40</duration><voice>1</voice></note></measure><measure number="18"><note><rest /><duration>40</duration><voice>1</voice></note></measure><measure number="19"><note><pitch><step>G</step><octave>3</octave></pitch><duration>40</duration><voice>1</voice></note></measure></part></score-partwise>