<?xml version='1.0' encoding='utf-8'?>
<score-partwise><part-list><score-part id="P1"><part-name>Piano</part-name></score-part></part-list><part id="P1"><measure number="1"><attributes><divisions>480</divisions><time><beats>4</beats><beat-type>4</beat-type></time><key><fifths>0</fifths></key><clef><sign>G</sign><line>2</line></clef></attributes><forward><duration>40</duration></forward><note><pitch><step>E</step><octave>4</octave></pitch><duration>24000</duration><voice>1</voice></note><note><pitch><step>D</step><alter>0.5</alter><octave>5</octave></pitch><duration>840</duration><voice>1</voice></note><note><rest /><duration>400</duration><voice>1</voice></note><note><pitch><step>B</step><octave>5</octave></pitch><duration>400</duration><voice>1</voice></note><note><pitch><step>A</step><octave>4</octave></pitch><duration>400</duration><voice>1</voice></note><note><rest /><duration>400</duration><voice>1</voice></note></measure><measure number="114"><note><pitch><step>E</step><alter>-0.5</alter><octave>4</octave></pitch><duration>400</duration><voice>1</voice></note></measure><measure number="276"><forward><duration>600</duration></forward><note><rest /><duration>400</duration><voice>1</voice></note><forward><duration>800</duration></forward><note><pitch><step>G</step><octave>4</octave></pitch><duration>400</duration><voice>1</voice></note></measure><measure number="148"><forward><duration>360</duration></forward><note><pitch><step>B</step><octave>5</octave></pitch><duration>24960</duration><voice>1</voice></note><note><pitch><step>D</step><octave>5</octave></pitch><duration>400</duration><voice>1</voice></note></measure><measure number="13"><forward><duration>600</duration></forward><note><pitch><step>F</step><octave>4</octave></pitch><duration>1440</duration><voice>1</voice></note><note><pitch><step>G</step><octave>5</octave></pitch><duration>400</duration><voice>1</voice></note><note><pitch><step>E</step><alter>-0.5</alter><octave>4</octave></pitch><duration>400</duration><voice>1</voice></note><note><pitch><step>D</step><octave>8</octave></pitch><duration>400</duration><voice>1</voice></note><forward><duration>200</duration></forward><note><pitch><step>A</step><octave>4</octave></pitch><duration>400</duration><voice>1</voice></note><note><pitch><step>D</step><octave>3</octave></pitch><duration>400</duration><voice>1</voice></note></measure><measure number="75"><note><pitch><step>F</step><octave>4</octave></pitch><duration>400</duration><voice>1</voice></note><forward><duration>200</duration></forward><note><rest /><duration>400</duration><voice>1</voice></note><note><pitch><step>A</step><octave>4</octave></pitch><duration>400</duration><voice>1</voice></note><note><pitch><step>A</step><octave>4</octave></pitch><duration>400</duration><voice>1</voice></note><note><pitch><step>D</step><alter>1.0</alter><octave>4</octave></pitch><duration>400</duration><voice>1</voice></note><forward><duration>2280</duration></forward><note><pitch><step>G</step><octave>4</octave></pitch><duration>400</duration><voice>1</voice></note></measure><measure number="238" /><measure number="4"><forward><duration>1680</duration></forward><note><pitch><step>F</step><alter>1.0</alter><octave>3</octave></pitch><duration>960</duration><voice>1</voice></note><note><pitch><step>B</step><alter>-0.5</alter><octave>5</octave></pitch><duration>400</duration><voice>1</voice></note><note><pitch><step>B</step><octave>4</octave></pitch><duration>400</duration><voice>1</voice></note><note><rest /><duration>400</duration><voice>1</voice></note></measure><measure number="396" /><measure number="480"><forward><duration>360</duration></forward><note><pitch><step>E</step><octave>7</octave></pitch><duration>400</duration><voice>1</voice></note><note><pitch><step>A</step><octave>4</octave></pitch><duration>400</duration><voice>1</voice></note><forward><duration>80</duration></forward><note><pitch><step>A</step><alter>1.0</alter><octave>4</octave></pitch><duration>400</duration><voice>1</voice></note><note><rest /><duration>400</duration><voice>1</voice></note></measure><measure number="105"><forward><duration>5160</duration></forward><note><pitch><step>B</step><alter>-0.5</alter><octave>4</octave></pitch><duration>400</duration><voice>1</voice></note><note><pitch><step>G</step><octave>4</octave></pitch><duration>240</duration><voice>1</voice></note><note><pitch><step>D</step><alter>1.0</alter><octave>5</octave></pitch><duration>400</duration><voice>1</voice></note><note><pitch><step>B</step><alter>-0.5</alter><octave>4</octave></pitch><duration>400</duration><voice>1</voice></note><note><pitch><step>D</step><octave>4</octave></pitch><duration>400</duration><voice>1</voice></note><note><rest /><duration>400</duration><voice>1</voice></note></measure><measure number="24"><forward><duration>600</duration></forward><note><pitch><step>D</step><octave>-1</octave></pitch><duration>400</duration><voice>1</voice></note><note><pitch><step>D</step><octave>5</octave></pitch><duration>400</duration><voice>1</voice></note><note><pitch><step>A</step><alter>1.0</alter><octave>4</octave></pitch><duration>400</duration><voice>1</voice></note><note><rest /><duration>400</duration><voice>1</voice></note><note><pitch><step>A</step><alter>-0.5</alter><octave>0</octave></pitch><duration>400</duration><voice>1</voice></note></measure><measure number="489"><note><pitch><step>C</step><alter>1.0</alter><octave>3</octave></pitch><duration>400</duration><voice>1</voice></note><note><pitch><step>D</step><alter>1.0</alter><octave>4</octave></pitch><duration>960</duration><voice>1</voice></note></measure><measure number="97"><forward><duration>1800</duration></forward><note><pitch><step>A</step><alter>1.0</alter><octave>5</octave></pitch><duration>400</duration><voice>1</voice></note><note><pitch><step>G</step><octave>5</octave></pitch><duration>400</duration><voice>1</voice></note><note><pitch><step>D</step><octave>4</octave></pitch><duration>120</duration><voice>1</voice></note></measure><measure number="353"><note><pitch><step>A</step><alter>1.0</alter><octave>4</octave></pitch><duration>400</duration><voice>1</voice></note><note><pitch><step>C</step><octave>5</octave></pitch><duration>480</duration><voice>1</voice></note></measure><measure number="91"><forward><duration>600</duration></forward><note><pitch><step>A</step><octave>4</octave></pitch><duration>960</duration><voice>1</voice></note><note><pitch><step>G</step><octave>4</octave></pitch><duration>720</duration><voice>1</voice></note><note><pitch><step>C</step><alter>1.0</alter><octave>4</octave></pitch><duration>400</duration><voice>1</voice></note><note><pitch><step>A</step><octave>4</octave></pitch><duration>120</duration><voice>1</voice></note></measure><measure number="40"><forward><duration>240</duration></forward><note><rest /><duration>400</duration><voice>1</voice></note><note><pitch><step>C</step><alter>1.0</alter><octave>4</octave></pitch><duration>400</duration><voice>1</voice></note></measure><measure number="7"><forward><duration>1080</duration></forward><note><pitch><step>C</step><octave>5</octave></pitch><duration>400</duration><voice>1</voice></note><note><pitch><step>G</step><alter>-0.5</alter><octave>6</octave></pitch><duration>400</duration><voice>1</voice></note></measure><measure number="256"><forward><duration>360</duration></forward><note><rest /><duration>720</duration><voice>1</voice></note><note><pitch><step>E</step><alter>-0.5</alter><octave>9</octave></pitch><duration>400</duration><voice>1</voice></note><note><pitch><step>E</step><octave>4</octave></pitch><duration>400</duration><voice>1</voice></note></measure><measure number="502"><note><pitch><step>B</step><octave>4</octave></pitch><duration>400</duration><voice>1</voice></note><note><pitch><step>A</step><alter>1.0</alter><octave>4</octave></pitch><duration>400</duration><voice>1</voice></note></measure><measure number="338"><note><pitch><step>F</step><alter>1.0</alter><octave>4</octave></pitch><duration>400</duration><voice>1</voice></note></measure><measure number="57"><note><pitch><step>B</step><alter>-0.5</alter><octave>7</octave></pitch><duration>400</duration><voice>1</voice></note><forward><duration>1720</duration></forward><note><pitch><step>C</step><octave>5</octave></pitch><duration>400</duration><voice>1</voice></note><note><pitch><step>C</step><octave>5</octave></pitch><duration>240</duration><voice>1</voice></note><note><pitch><step>D</step><alter>0.5</alter><octave>4</octave></pitch><duration>240</duration><voice>1</voice></note><forward><duration>840</duration></forward><note><pitch><step>A</step><octave>4</octave></pitch><duration>400</duration><voice>1</voice></note><note><pitch><step>A</step><octave>4</octave></pitch><duration>400</duration><voice>1</voice></note></measure><measure number="7"><note><pitch><step>F</step><octave>5</octave></pitch><duration>480</duration><voice>1</voice></note><note><pitch><step>A</step><octave>4</octave></pitch><duration>400</duration><voice>1</voice></note><forward><duration>680</duration></forward><note><pitch><step>D</step><alter>1.0</alter><octave>5</octave></pitch><duration>400</duration><voice>1</voice></note><note><pitch><step>F</step><octave>4</octave></pitch><duration>400</duration><voice>1</voice></note></measure><measure number="453"><forward><duration>720</duration></forward><note><pitch><step>B</step><octave>5</octave></pitch><duration>400</duration><voice>1</voice></note></measure><measure number="21"><forward><duration>360</duration></forward><note><pitch><step>A</step><alter>1.0</alter><octave>4</octave></pitch><duration>400</duration><voice>1</voice></note></measure><measure number="114"><forward><duration>360</duration></forward><note><pitch><step>D</step><alter>1.0</alter><octave>4</octave></pitch><duration>400</duration><voice>1</voice></note><note><pitch><step>G</step><octave>3</octave></pitch><duration>120</duration><voice>1</voice></note><note><pitch><step>A</step><octave>4</octave></pitch><duration>120</duration><voice>1</voice></note><note><pitch><step>B</step><octave>4</octave></pitch><duration>17280</duration><voice>1</voice></note></measure><measure number="101"><note><pitch><step>D</step><alter>-0.5</alter><octave>2</octave></pitch><duration>400</duration><voice>1</voice></note><forward><duration>5080</duration></forward><note><pitch><step>A</step><octave>4</octave></pitch><duration>400</duration><voice>1</voice></note></measure><measure number="114"><forward><duration>1480</duration></forward><note><pitch><step>A</step><alter>1.0</alter><octave>4</octave></pitch><duration>400</duration><voice>1</voice></note><note><pitch><step>B</step><octave>4</octave></pitch><duration>160</duration><voice>1</voice></note><note><pitch><step>C</step><octave>4</octave></pitch><duration>400</duration><voice>1</voice></note></measure><measure number="340"><forward><duration>1680</duration></forward><note><pitch><step>C</step><octave>5</octave></pitch><duration>120</duration><voice>1</voice></note><note><pitch><step>G</step><octave>4</octave></pitch><duration>120</duration><voice>1</voice></note><note><pitch><step>A</step><alter>1.0</alter><octave>4</octave></pitch><duration>400</duration><voice>1</voice></note><note><pitch><step>A</step><octave>4</octave></pitch><duration>400</duration><voice>1</voice></note><note><pitch><step>A</step><alter>1.0</alter><octave>4</octave></pitch><duration>120</duration><voice>1</voice></note><forward><duration>720</duration></forward><note><pitch><step>A</step><alter>1.0</alter><octave>3</octave></pitch><duration>400</duration><voice>1</voice></note><note><rest /><duration>240</duration><voice>1</voice></note><note><pitch><step>A</step><octave>4</octave></pitch><duration>480</duration><voice>1</voice></note><note><rest /><duration>400</duration><voice>1</voice></note><note><pitch><step>C</step><octave>5</octave></pitch><duration>480</duration><voice>1</voice></note><note><pitch><step>G</step><octave>6</octave></pitch><duration>1440</duration><voice>1</voice></note><note><pitch><step>G</step><octave>4</octave></pitch><duration>240</duration><voice>1</voice></note><forward><duration>1080</duration></forward><note><pitch><step>A</step><octave>4</octave></pitch><duration>240</duration><voice>1</voice></note></measure><measure number="428" /></part></score-partwise>