<?xml version='1.0' encoding='utf-8'?>
<score-partwise><part-list><score-part id="P1"><part-name>Piano</part-name></score-part></part-list><part id="P1"><measure number="1"><attributes><divisions>480</divisions><time><beats>4</beats><beat-type>4</beat-type></time><key><fifths>0</fifths></key><clef><sign>G</sign><line>2</line></clef><clef number="2"><sign>F</sign><line>4</line></clef></attributes><note><pitch><step>C</step><octave>5</octave></pitch><duration>120</duration><voice>1</voice><staff>1</staff></note><note><chord /><pitch><step>C</step><octave>5</octave></pitch><duration>120</duration><voice>1</voice><staff>1</staff></note><note><rest /><duration>120</duration><voice>1</voice></note><note><pitch><step>F</step><octave>4</octave></pitch><duration>120</duration><voice>1</voice><staff>1</staff></note><note><pitch><step>F</step><alter>1.0</alter><octave>2</octave></pitch><duration>360</duration><voice>1</voice><staff>2</staff></note><note><chord /><pitch><step>D</step><octave>5</octave></pitch><duration>360</duration><voice>1</voice><staff>1</staff></note><note><chord /><pitch><step>F</step><octave>4</octave></pitch><duration>360</duration><voice>1</voice><staff>1</staff></note><note><chord /><pitch><step>D</step><octave>4</octave></pitch><duration>360</duration><voice>1</voice><staff>1</staff></note><note><rest /><duration>360</duration><voice>1</voice></note><note><pitch><step>A</step><octave>3</octave></pitch><duration>120</duration><voice>1</voice><staff>2</staff></note><note><rest /><duration>1440</duration><voice>1</voice><staff>2</staff></note></measure><measure number="2"><note><notations><tied type="stop" /></notations><pitch><step>C</step><octave>3</octave></pitch><duration>360</duration><voice>1</voice><staff>2</staff></note><note><chord /><pitch><step>E</step><octave>4</octave></pitch><duration>360</duration><voice>1</voice><staff>1</staff></note><note><chord /><pitch><step>E</step><octave>4</octave></pitch><duration>360</duration><voice>1</voice><staff>1</staff></note><note><chord /><pitch><step>D</step><octave>5</octave></pitch><duration>360</duration><voice>1</voice><staff>1</staff></note><note><chord /><pitch><step>A</step><alter>1.0</alter><octave>5</octave></pitch><duration>360</duration><voice>1</voice><staff>1</staff></note><note><pitch><step>A</step><octave>4</octave></pitch><duration>120</duration><voice>1</voice><staff>1</staff></note><note><chord /><notations><tied type="start" /></notations><pitch><step>C</step><octave>5</octave></pitch><duration>120</duration><voice>1</voice><staff>1</staff></note><note><chord /><notations><tied type="start" /></notations><pitch><step>F</step><octave>4</octave></pitch><duration>120</duration><voice>1</voice><staff>1</staff></note><note><rest /><duration>120</duration><voice>1</voice><staff>1</staff></note><note><rest /><duration>1440</duration><voice>1</voice><staff>2</staff></note><note><rest /><duration>120</duration><voice>1</voice><staff>2</staff></note></measure><measure number="3"><note><notations><tied type="start" /></notations><pitch><step>F</step><octave>4</octave></pitch><duration>360</duration><voice>1</voice><staff>1</staff></note><note><chord /><notations><tied type="stop" /></notations><pitch><step>C</step><alter>1.0</alter><octave>6</octave></pitch><duration>360</duration><voice>1</voice><staff>1</staff></note><note><notations><tied type="stop" /></notations><pitch><step>B</step><octave>1</octave></pitch><duration>360</duration><voice>1</voice><staff>2</staff></note><note><rest /><duration>960</duration><voice>1</voice><staff>1</staff></note><note><rest /><duration>1440</duration><voice>1</voice><staff>2</staff></note><note><rest /><duration>240</duration><voice>1</voice><staff>1</staff></note><note><rest /><duration>120</duration><voice>1</voice><staff>2</staff></note></measure><measure number="4"><note><rest /><duration>120</duration><voice>1</voice></note><note><pitch><step>F</step><octave>2</octave></pitch><duration>360</duration><voice>1</voice><staff>2</staff></note><note><chord /><pitch><step>C</step><octave>3</octave></pitch><duration>360</duration><voice>1</voice><staff>1</staff></note><note><chord /><pitch><step>A</step><alter>1.0</alter><octave>2</octave></pitch><duration>360</duration><voice>1</voice><staff>1</staff></note><note><chord /><pitch><step>A</step><alter>1.0</alter><octave>3</octave></pitch><duration>360</duration><voice>1</voice><staff>1</staff></note><note><chord /><pitch><step>D</step><octave>3</octave></pitch><duration>360</duration><voice>1</voice><staff>1</staff></note><note><chord /><pitch><step>E</step><octave>5</octave></pitch><duration>360</duration><voice>1</voice><staff>1</staff></note><note><pitch><step>F</step><octave>3</octave></pitch><duration>360</duration><voice>1</voice><staff>2</staff></note><note><rest /><duration>960</duration><voice>1</voice><staff>2</staff></note><note><rest /><duration>240</duration><voice>1</voice><staff>2</staff></note></measure><measure number="5"><note><rest /><duration>1920</duration><voice>1</voice><staff>1</staff></note></measure><measure number="6"><note><chord /><pitch><step>D</step><octave>3</octave></pitch><duration>120</duration><voice>1</voice><staff>1</staff></note><note><rest /><duration>1800</duration><voice>1</voice><staff>1</staff></note></measure><measure number="7"><note><rest /><duration>1440</duration><voice>1</voice></note><note><rest /><duration>480</duration><voice>1</voice><staff>1</staff></note></measure><measure number="8"><note><rest /><duration>1440</duration><voice>1</voice></note><note><rest /><duration>480</duration><voice>1</voice><staff>1</staff></note></measure><measure number="9"><note><chord /><pitch><step>A</step><alter>1.0</alter><octave>3</octave></pitch><duration>360</duration><voice>1</voice><staff>1</staff></note><note><rest /><duration>1440</duration><voice>1</voice><staff>1</staff></note><note><rest /><duration>120</duration><voice>1</voice><staff>1</staff></note></measure><measure number="10"><note><chord /><pitch><step>B</step><octave>4</octave></pitch><duration>360</duration><voice>1</voice><staff>1</staff></note><note><rest /><duration>1440</duration><voice>1</voice><staff>1</staff></note><note><rest /><duration>120</duration><voice>1</voice><staff>1</staff></note></measure></part></score-partwise>