<?xml version='1.0' encoding='utf-8'?>
<score-partwise><part-list><score-part id="P1"><part-name>Piano</part-name></score-part></part-list><part id="P1"><measure number="1"><attributes><divisions>480</divisions><time><beats>4</beats><beat-type>4</beat-type></time><key><fifths>0</fifths></key><clef><sign>G</sign><line>2</line></clef></attributes><note><chord /><pitch><step>A</step><octave>4</octave></pitch><duration>240</duration><voice>1</voice></note><note><chord /><pitch><step>F</step><octave>4</octave></pitch><duration>240</duration><voice>1</voice></note><note><chord /><notations><tied type="start" /></notations><pitch><step>B</step><octave>3</octave></pitch><duration>720</duration><voice>1</voice></note><note><chord /><notations><tied type="stop" /></notations><pitch><step>C</step><octave>4</octave></pitch><duration>240</duration><voice>1</voice></note><note><chord /><pitch><step>F</step><octave>3</octave></pitch><duration>240</duration><voice>1</voice></note><note><notations><tied type="stop" /></notations><pitch><step>F</step><alter>1.0</alter><octave>4</octave></pitch><duration>240</duration><voice>1</voice></note></measure><measure number="2"><note><rest /><duration>720</duration><voice>1</voice></note></measure><measure number="3"><note><chord /><pitch><step>E</step><octave>5</octave></pitch><duration>240</duration><voice>1</voice></note></measure><measure number="4"><note><chord /><pitch><step>D</step><octave>3</octave></pitch><duration>480</duration><voice>1</voice></note></measure><measure number="5"><note><chord /><pitch><step>D</step><octave>4</octave></pitch><duration>480</duration><voice>1</voice></note></measure><measure number="6"><note><chord /><pitch><step>F</step><octave>3</octave></pitch><duration>480</duration><voice>1</voice></note></measure><measure number="7"><note><chord /><pitch><step>A</step><octave>2</octave></pitch><duration>240</duration><voice>1</voice></note></measure><measure number="8"><note><chord /><pitch><step>G</step><alter>1.0</alter><octave>4</octave></pitch><duration>480</duration><voice>1</voice></note></measure><measure number="9"><note><chord /><pitch><step>B</step><octave>3</octave></pitch><duration>480</duration><voice>1</voice></note></measure><measure number="10"><note><chord /><pitch><step>D</step><alter>1.0</alter><octave>3</octave></pitch><duration>240</duration><voice>1</voice></note></measure><measure number="11"><note><chord /><pitch><step>C</step><octave>3</octave></pitch><duration>720</duration><voice>1</voice></note></measure><measure number="12"><note><chord /><pitch><step>F</step><alter>1.0</alter><octave>5</octave></pitch><duration>240</duration><voice>1</voice></note></measure><measure number="13"><note><chord /><pitch><step>F</step><octave>5</octave></pitch><duration>480</duration><voice>1</voice></note></measure><measure number="14"><note><chord /><pitch><step>G</step><octave>4</octave></pitch><duration>120</duration><voice>1</voice></note></measure><measure number="15"><note><notations><tied type="start" /></notations><pitch><step>F</step><octave>5</octave></pitch><duration>240</duration><voice>1</voice></note></measure><measure number="16"><note><chord /><pitch><step>A</step><octave>4</octave></pitch><duration>240</duration><voice>1</voice></note></measure><measure number="17"><note><chord /><pitch><step>D</step><octave>4</octave></pitch><duration>120</duration><voice>1</voice></note></measure><measure number="18"><note><chord /><pitch><step>G</step><alter>1.0</alter><octave>5</octave></pitch><duration>240</duration><voice>1</voice></note></measure><measure number="19"><note><chord /><pitch><step>E</step><octave>5</octave></pitch><duration>240</duration><voice>1</voice></note></measure><measure number="20"><note><chord /><pitch><step>A</step><octave>5</octave></pitch><duration>240</duration><voice>1</voice></note></measure><measure number="21"><note><pitch><step>F</step><alter>1.0</alter><octave>4</octave></pitch><duration>360</duration><voice>1</voice></note></measure><measure number="22"><note><chord /><pitch><step>C</step><octave>5</octave></pitch><duration>240</duration><voice>1</voice></note></measure><measure number="23"><note><chord /><pitch><step>F</step><alter>1.0</alter><octave>5</octave></pitch><duration>240</duration><voice>1</voice></note></measure><measure number="24"><note><chord /><pitch><step>G</step><alter>1.0</alter><octave>3</octave></pitch><duration>240</duration><voice>1</voice></note></measure><measure number="25"><note><chord /><pitch><step>C</step><octave>5</octave></pitch><duration>240</duration><voice>1</voice></note></measure><measure number="26"><note><chord /><pitch><step>F</step><alter>1.0</alter><octave>5</octave></pitch><duration>240</duration><voice>1</voice></note></measure><measure number="27"><note><rest /><duration>360</duration><voice>1</voice></note></measure><measure number="28"><note><chord /><pitch><step>G</step><octave>3</octave></pitch><duration>240</duration><voice>1</voice></note></measure><measure number="29"><note><chord /><pitch><step>A</step><octave>4</octave></pitch><duration>240</duration><voice>1</voice></note></measure><measure number="30"><note><chord /><pitch><step>A</step><octave>4</octave></pitch><duration>240</duration><voice>1</voice></note></measure><measure number="31"><note><chord /><pitch><step>A</step><octave>5</octave></pitch><duration>240</duration><voice>1</voice></note></measure><measure number="32"><note><chord /><pitch><step>C</step><alter>1.0</alter><octave>4</octave></pitch><duration>120</duration><voice>1</voice></note></measure><measure number="33"><note><chord /><pitch><step>C</step><octave>6</octave></pitch><duration>240</duration><voice>1</voice></note></measure><measure number="34"><note><chord /><notations><tied type="start" /></notations><pitch><step>F</step><octave>5</octave></pitch><duration>45</duration><voice>1</voice></note></measure><measure number="35"><note><chord /><pitch><step>D</step><alter>1.0</alter><octave>5</octave></pitch><duration>45</duration><voice>1</voice></note></measure><measure number="36"><note><chord /><notations><tied type="start" /></notations><pitch><step>E</step><octave>2</octave></pitch><duration>240</duration><voice>1</voice></note></measure></part></score-partwise>