<?xml version='1.0' encoding='utf-8'?>
<score-partwise><part-list><score-part id="P1"><part-name>Piano</part-name></score-part></part-list><part id="P1"><measure number="1"><attributes><divisions>480</divisions><time><beats>4</beats><beat-type>4</beat-type></time><key><fifths>0</fifths></key><clef><sign>G</sign><line>2</line></clef></attributes><forward><duration>360</duration></forward><note><pitch><step>F</step><octave>4</octave></pitch><duration>240</duration><voice>1</voice></note><note><pitch><step>D</step><alter>1.0</alter><octave>4</octave></pitch><duration>240</duration><voice>1</voice></note><note><pitch><step>A</step><alter>1.0</alter><octave>3</octave></pitch><duration>240</duration><voice>1</voice></note><forward><duration>120</duration></forward><note><pitch><step>G</step><octave>4</octave></pitch><duration>400</duration><voice>1</voice></note><note><pitch><step>C</step><octave>4</octave></pitch><duration>240</duration><voice>1</voice></note></measure><measure number="2"><note><pitch><step>A</step><alter>1.0</alter><octave>4</octave></pitch><duration>120</duration><voice>1</voice></note></measure><measure number="3"><forward><duration>360</duration></forward><note><pitch><step>C</step><octave>4</octave></pitch><duration>480</duration><voice>1</voice></note><note><pitch><step>A</step><octave>4</octave></pitch><duration>120</duration><voice>1</voice></note><forward><duration>120</duration></forward><note><pitch><step>A</step><alter>1.0</alter><octave>4</octave></pitch><duration>480</duration><voice>1</voice></note><note><pitch><step>D</step><alter>1.0</alter><octave>4</octave></pitch><duration>240</duration><voice>1</voice></note><note><pitch><step>C</step><octave>4</octave></pitch><duration>120</duration><voice>1</voice></note></measure><measure number="4"><note><pitch><step>C</step><octave>4</octave></pitch><duration>360</duration><voice>1</voice></note></measure><measure number="5"><forward><duration>120</duration></forward><note><pitch><step>G</step><alter>1.0</alter><octave>4</octave></pitch><duration>240</duration><voice>1</voice></note><forward><duration>240</duration></forward><note><pitch><step>D</step><octave>4</octave></pitch><duration>240</duration><voice>1</voice></note><note><rest /><duration>240</duration><voice>1</voice></note><forward><duration>240</duration></forward><note><pitch><step>C</step><octave>4</octave></pitch><duration>240</duration><voice>1</voice></note><note><pitch><step>D</step><octave>4</octave></pitch><duration>360</duration><voice>1</voice></note></measure><measure number="6"><note><pitch><step>D</step><octave>4</octave></pitch><duration>120</duration><voice>1</voice></note><forward><duration>1680</duration></forward><note><rest /><duration>120</duration><voice>1</voice></note></measure><measure number="7"><note><rest /><duration>120</duration><voice>1</voice></note></measure><measure number="8"><forward><duration>40</duration></forward><note><pitch><step>C</step><octave>5</octave></pitch><duration>240</duration><voice>1</voice></note><note><pitch><step>D</step><alter>1.0</alter><octave>4</octave></pitch><duration>240</duration><voice>1</voice></note><note><pitch><step>A</step><alter>1.0</alter><octave>4</octave></pitch><duration>480</duration><voice>1</voice></note><note><pitch><step>F</step><octave>4</octave></pitch><duration>240</duration><voice>1</voice></note><note><pitch><step>D</step><alter>1.0</alter><octave>4</octave></pitch><duration>480</duration><voice>1</voice></note><note><pitch><step>A</step><octave>4</octave></pitch><duration>120</duration><voice>1</voice></note></measure><measure number="9"><note><pitch><step>A</step><octave>4</octave></pitch><duration>120</duration><voice>1</voice></note></measure><measure number="10"><note><pitch><step>F</step><alter>1.0</alter><octave>4</octave></pitch><duration>960</duration><voice>1</voice></note><note><rest /><duration>240</duration><voice>1</voice></note><forward><duration>480</duration></forward><note><pitch><step>A</step><octave>4</octave></pitch><duration>240</duration><voice>1</voice></note></measure><measure number="11"><note><pitch><step>G</step><octave>4</octave></pitch><duration>120</duration><voice>1</voice></note></measure><measure number="12"><forward><duration>360</duration></forward><note><pitch><step>A</step><octave>4</octave></pitch><duration>240</duration><voice>1</voice></note><note><pitch><step>G</step><octave>3</octave></pitch><duration>480</duration><voice>1</voice></note></measure><measure number="13"><forward><duration>120</duration></forward><note><pitch><step>G</step><octave>4</octave></pitch><duration>240</duration><voice>1</voice></note><forward><duration>240</duration></forward><note><pitch><step>D</step><octave>4</octave></pitch><duration>120</duration><voice>1</voice></note></measure><measure number="14"><note><pitch><step>F</step><alter>1.0</alter><octave>4</octave></pitch><duration>240</duration><voice>1</voice></note></measure><measure number="15"><forward><duration>240</duration></forward></measure><measure number="16"><note><pitch><step>B</step><octave>4</octave></pitch><duration>240</duration><voice>1</voice></note></measure><measure number="17"><note><pitch><step>D</step><octave>5</octave></pitch><duration>480</duration><voice>1</voice></note></measure><measure number="18"><forward><duration>120</duration></forward></measure><measure number="19"><note><pitch><step>B</step><octave>3</octave></pitch><duration>240</duration><voice>1</voice></note></measure><measure number="20"><forward><duration>240</duration></forward></measure><measure number="21"><note><pitch><step>G</step><octave>4</octave></pitch><duration>240</duration><voice>1</voice></note></measure><measure number="22"><note><pitch><step>G</step><octave>4</octave></pitch><duration>240</duration><voice>1</voice></note></measure><measure number="23"><note><pitch><step>G</step><octave>4</octave></pitch><duration>120</duration><voice>1</voice></note></measure><measure number="24"><note><pitch><step>A</step><alter>1.0</alter><octave>4</octave></pitch><duration>120</duration><voice>1</voice></note></measure><measure number="25"><note><pitch><step>A</step><octave>3</octave></pitch><duration>240</duration><voice>1</voice></note></measure></part></score-partwise>