<?xml version='1.0' encoding='utf-8'?>
<score-partwise><part-list><score-part id="P1"><part-name>Piano</part-name></score-part></part-list><part id="P1"><measure number="1"><attributes><divisions>480</divisions><time><beats>4</beats><beat-type>4</beat-type></time><key><fifths>0</fifths></key><clef><sign>G</sign><line>2</line></clef></attributes><note><pitch><step>B</step><alter>-0.5</alter><octave>3</octave></pitch><duration>120</duration><voice>1</voice></note><forward><duration>1800</duration></forward></measure><measure number="2"><note><pitch><step>F</step><alter>1.0</alter><octave>4</octave></pitch><duration>120</duration><voice>1</voice></note><note><pitch><step>G</step><alter>1.0</alter><octave>3</octave></pitch><duration>480</duration><voice>1</voice></note><note><pitch><step>F</step><alter>1.0</alter><octave>5</octave></pitch><duration>480</duration><voice>1</voice></note><note><pitch><step>G</step><alter>1.0</alter><octave>3</octave></pitch><duration>120</duration><voice>1</voice></note><note><pitch><step>G</step><alter>1.0</alter><octave>8</octave></pitch><duration>480</duration><voice>1</voice></note></measure><measure number="3"><note><pitch><step>C</step><octave>5</octave></pitch><duration>480</duration><voice>1</voice></note></measure><measure number="4"><forward><duration>120</duration></forward><note><pitch><step>C</step><octave>5</octave></pitch><duration>960</duration><voice>1</voice></note><forward><duration>840</duration></forward></measure><measure number="5"><note><pitch><step>C</step><octave>5</octave></pitch><duration>480</duration><voice>1</voice></note></measure><measure number="6"><note><pitch><step>G</step><alter>1.0</alter><octave>4</octave></pitch><duration>160</duration><voice>1</voice></note><note><pitch><step>D</step><octave>5</octave></pitch><duration>120</duration><voice>1</voice></note><forward><duration>1400</duration></forward><note><pitch><step>F</step><alter>1.0</alter><octave>5</octave></pitch><duration>120</duration><voice>1</voice></note><forward><duration>40</duration></forward></measure><measure number="7"><note><rest /><duration>160</duration><voice>1</voice></note><forward><duration>1280</duration></forward><note><pitch><step>F</step><alter>1.0</alter><octave>1</octave></pitch><duration>400</duration><voice>1</voice></note></measure><measure number="8"><note><pitch><step>C</step><octave>5</octave></pitch><duration>480</duration><voice>1</voice></note><forward><duration>160</duration></forward><note><pitch><step>E</step><octave>3</octave></pitch><duration>960</duration><voice>1</voice></note><note><rest /><duration>240</duration><voice>1</voice></note></measure><measure number="9"><forward><duration>280</duration></forward><note><rest /><duration>240</duration><voice>1</voice></note><forward><duration>680</duration></forward><note><pitch><step>C</step><octave>5</octave></pitch><duration>120</duration><voice>1</voice></note><forward><duration>600</duration></forward></measure><measure number="10"><note><pitch><step>G</step><octave>3</octave></pitch><duration>240</duration><voice>1</voice></note><forward><duration>1440</duration></forward><note><pitch><step>C</step><octave>6</octave></pitch><duration>240</duration><voice>1</voice></note></measure><measure number="11"><note><pitch><step>G</step><octave>4</octave></pitch><duration>1120</duration><voice>1</voice></note></measure><measure number="12"><forward><duration>200</duration></forward><note><rest /><duration>240</duration><voice>1</voice></note><note><pitch><step>E</step><octave>3</octave></pitch><duration>240</duration><voice>1</voice></note></measure><measure number="13"><forward><duration>1200</duration></forward><note><rest /><duration>120</duration><voice>1</voice></note></measure><measure number="14"><note><pitch><step>D</step><alter>1.0</alter><octave>4</octave></pitch><duration>240</duration><voice>1</voice></note><forward><duration>840</duration></forward><note><pitch><step>B</step><octave>4</octave></pitch><duration>240</duration><voice>1</voice></note><note><pitch><step>G</step><octave>4</octave></pitch><duration>480</duration><voice>1</voice></note></measure><measure number="15"><note><pitch><step>D</step><octave>5</octave></pitch><duration>240</duration><voice>1</voice></note></measure><measure number="16"><note><pitch><step>D</step><octave>5</octave></pitch><duration>240</duration><voice>1</voice></note><forward><duration>600</duration></forward><note><pitch><step>B</step><octave>4</octave></pitch><duration>240</duration><voice>1</voice></note><note><pitch><step>C</step><octave>5</octave></pitch><duration>360</duration><voice>1</voice></note><note><pitch><step>G</step><octave>3</octave></pitch><duration>120</duration><voice>1</voice></note><note><pitch><step>D</step><octave>5</octave></pitch><duration>240</duration><voice>1</voice></note></measure><measure number="17"><note><pitch><step>G</step><alter>1.0</alter><octave>4</octave></pitch><duration>1920</duration><voice>1</voice></note></measure><measure number="18"><note><pitch><step>D</step><alter>1.0</alter><octave>4</octave></pitch><duration>240</duration><voice>1</voice></note><forward><duration>1520</duration></forward><note><pitch><step>F</step><alter>1.0</alter><octave>5</octave></pitch><duration>160</duration><voice>1</voice></note></measure><measure number="19"><note><pitch><step>F</step><alter>1.0</alter><octave>5</octave></pitch><duration>320</duration><voice>1</voice></note><note><rest /><duration>240</duration><voice>1</voice></note></measure><measure number="20"><forward><duration>320</duration></forward></measure><measure number="21"><note><pitch><step>G</step><octave>3</octave></pitch><duration>120</duration><voice>1</voice></note></measure><measure number="22"><note><rest /><duration>120</duration><voice>1</voice></note></measure><measure number="23"><note><pitch><step>A</step><alter>1.0</alter><octave>4</octave></pitch><duration>240</duration><voice>1</voice></note></measure><measure number="24"><note><pitch><step>D</step><alter>1.0</alter><octave>4</octave></pitch><duration>720</duration><voice>1</voice></note></measure><measure number="25"><note><pitch><step>C</step><octave>2</octave></pitch><duration>480</duration><voice>1</voice></note></measure><measure number="26"><note><pitch><step>C</step><octave>5</octave></pitch><duration>720</duration><voice>1</voice></note></measure><measure number="27"><note><pitch><step>G</step><alter>1.0</alter><octave>4</octave></pitch><duration>1320</duration><voice>1</voice></note></measure><measure number="28"><note><pitch><step>G</step><alter>1.0</alter><octave>4</octave></pitch><duration>1920</duration><voice>1</voice></note></measure><measure number="29"><note><pitch><step>D</step><alter>1.0</alter><octave>5</octave></pitch><duration>240</duration><voice>1</voice></note></measure><measure number="30"><note><pitch><step>D</step><alter>1.0</alter><octave>4</octave></pitch><duration>480</duration><voice>1</voice></note></measure><measure number="31"><note><pitch><step>G</step><octave>4</octave></pitch><duration>480</duration><voice>1</voice></note></measure><measure number="32"><note><rest /><duration>240</duration><voice>1</voice></note></measure><measure number="33"><note><pitch><step>G</step><octave>5</octave></pitch><duration>240</duration><voice>1</voice></note></measure><measure number="34"><note><pitch><step>C</step><octave>5</octave></pitch><duration>240</duration><voice>1</voice></note></measure><measure number="35"><note><pitch><step>E</step><alter>-0.5</alter><octave>5</octave></pitch><duration>120</duration><voice>1</voice></note></measure><measure number="36"><note><pitch><step>E</step><octave>3</octave></pitch><duration>240</duration><voice>1</voice></note></measure><measure number="37"><note><pitch><step>G</step><alter>1.0</alter><octave>4</octave></pitch><duration>1920</duration><voice>1</voice></note></measure><measure number="38"><note><rest /><duration>240</duration><voice>1</voice></note></measure><measure number="39"><forward><duration>120</duration></forward></measure><measure number="40"><note><pitch><step>D</step><alter>1.0</alter><octave>4</octave></pitch><duration>240</duration><voice>1</voice></note></measure><measure number="41"><note><pitch><step>G</step><alter>1.0</alter><octave>4</octave></pitch><duration>1920</duration><voice>1</voice></note></measure><measure number="42"><note><pitch><step>G</step><octave>4</octave></pitch><duration>800</duration><voice>1</voice></note></measure><measure number="43"><forward><duration>960</duration></forward></measure><measure number="44"><note><pitch><step>G</step><alter>1.0</alter><octave>4</octave></pitch><duration>1920</duration><voice>1</voice></note></measure><measure number="45"><note><pitch><step>G</step><alter>1.0</alter><octave>4</octave></pitch><duration>160</duration><voice>1</voice></note></measure><measure number="46"><note><pitch><step>G</step><alter>1.0</alter><octave>4</octave></pitch><duration>1920</duration><voice>1</voice></note></measure><measure number="47"><note><pitch><step>G</step><alter>1.0</alter><octave>4</octave></pitch><duration>240</duration><voice>1</voice></note></measure><measure number="48"><note><pitch><step>G</step><alter>1.0</alter><octave>4</octave></pitch><duration>1920</duration><voice>1</voice></note></measure><measure number="49"><note><pitch><step>D</step><alter>1.0</alter><octave>4</octave></pitch><duration>240</duration><voice>1</voice></note></measure><measure number="50"><note><pitch><step>G</step><alter>1.0</alter><octave>4</octave></pitch><duration>1920</duration><voice>1</voice></note></measure><measure number="51"><note><pitch><step>G</step><alter>1.0</alter><octave>4</octave></pitch><duration>1920</duration><voice>1</voice></note></measure><measure number="52"><note><pitch><step>G</step><alter>1.0</alter><octave>4</octave></pitch><duration>1920</duration><voice>1</voice></note></measure><measure number="53"><note><pitch><step>G</step><alter>1.0</alter><octave>4</octave></pitch><duration>1920</duration><voice>1</voice></note></measure><measure number="54"><note><pitch><step>G</step><alter>1.0</alter><octave>4</octave></pitch><duration>1920</duration><voice>1</voice></note></measure><measure number="55"><note><pitch><step>G</step><alter>1.0</alter><octave>4</octave></pitch><duration>600</duration><voice>1</voice></note></measure></part></score-partwise>