<?xml version='1.0' encoding='utf-8'?>
<score-partwise><part-list><score-part id="P1"><part-name>Piano</part-name></score-part></part-list><part id="P1"><measure number="1"><attributes><divisions>480</divisions><time><beats>4</beats><beat-type>4</beat-type></time><key><fifths>0</fifths></key><clef><sign>G</sign><line>2</line></clef></attributes></measure><measure number="54" /><measure number="46"><forward><duration>520</duration></forward><note><pitch><step>E</step><alter>0.5</alter><octave>7</octave></pitch><duration>120</duration><voice>1</voice></note><note><pitch><step>B</step><alter>-0.5</alter><octave>4</octave></pitch><duration>120</duration><voice>1</voice></note><note><pitch><step>D</step><octave>5</octave></pitch><duration>240</duration><voice>1</voice></note><note><pitch><step>G</step><octave>4</octave></pitch><duration>120</duration><voice>1</voice></note></measure><measure number="7"><forward><duration>360</duration></forward><note><pitch><step>C</step><octave>5</octave></pitch><duration>120</duration><voice>1</voice></note><forward><duration>1240</duration></forward><note><pitch><step>D</step><alter>1.0</alter><octave>4</octave></pitch><duration>240</duration><voice>1</voice></note></measure><measure number="18"><note><pitch><step>C</step><octave>5</octave></pitch><duration>120</duration><voice>1</voice></note><note><pitch><step>A</step><octave>6</octave></pitch><duration>400</duration><voice>1</voice></note></measure><measure number="6"><forward><duration>120</duration></forward><note><pitch><step>D</step><octave>5</octave></pitch><duration>120</duration><voice>1</voice></note><forward><duration>360</duration></forward><note><pitch><step>D</step><alter>1.0</alter><octave>4</octave></pitch><duration>120</duration><voice>1</voice></note><note><pitch><step>E</step><octave>3</octave></pitch><duration>240</duration><voice>1</voice></note><forward><duration>480</duration></forward><note><pitch><step>F</step><alter>1.0</alter><octave>4</octave></pitch><duration>120</duration><voice>1</voice></note><note><pitch><step>D</step><octave>5</octave></pitch><duration>240</duration><voice>1</voice></note><forward><duration>960</duration></forward><note><pitch><step>C</step><octave>5</octave></pitch><duration>120</duration><voice>1</voice></note></measure><measure number="92"><forward><duration>600</duration></forward><note><pitch><step>D</step><alter>1.0</alter><octave>4</octave></pitch><duration>120</duration><voice>1</voice></note></measure><measure number="120"><note><pitch><step>D</step><alter>1.0</alter><octave>5</octave></pitch><duration>120</duration><voice>1</voice></note></measure><measure number="112"><forward><duration>480</duration></forward><note><pitch><step>C</step><octave>5</octave></pitch><duration>120</duration><voice>1</voice></note><note><pitch><step>G</step><octave>3</octave></pitch><duration>120</duration><voice>1</voice></note><forward><duration>360</duration></forward><note><pitch><step>F</step><octave>4</octave></pitch><duration>240</duration><voice>1</voice></note></measure><measure number="124"><note><pitch><step>D</step><octave>5</octave></pitch><duration>240</duration><voice>1</voice></note><forward><duration>40</duration></forward><note><pitch><step>D</step><alter>1.0</alter><octave>5</octave></pitch><duration>120</duration><voice>1</voice></note></measure><measure number="56"><note><pitch><step>G</step><octave>3</octave></pitch><duration>120</duration><voice>1</voice></note><note><pitch><step>D</step><octave>5</octave></pitch><duration>120</duration><voice>1</voice></note><note><pitch><step>D</step><alter>1.0</alter><octave>4</octave></pitch><duration>120</duration><voice>1</voice></note><forward><duration>120</duration></forward><note><pitch><step>D</step><alter>1.0</alter><octave>4</octave></pitch><duration>120</duration><voice>1</voice></note><note><pitch><step>C</step><octave>5</octave></pitch><duration>120</duration><voice>1</voice></note></measure><measure number="11"><note><pitch><step>G</step><octave>3</octave></pitch><duration>120</duration><voice>1</voice></note></measure><measure number="9"><note><pitch><step>G</step><octave>3</octave></pitch><duration>120</duration><voice>1</voice></note><forward><duration>240</duration></forward><note><pitch><step>C</step><octave>5</octave></pitch><duration>120</duration><voice>1</voice></note><note><pitch><step>D</step><alter>1.0</alter><octave>4</octave></pitch><duration>120</duration><voice>1</voice></note><forward><duration>160</duration></forward><note><pitch><step>A</step><octave>2</octave></pitch><duration>120</duration><voice>1</voice></note></measure><measure number="101"><note><pitch><step>G</step><octave>3</octave></pitch><duration>120</duration><voice>1</voice></note><forward><duration>480</duration></forward><note><pitch><step>C</step><octave>6</octave></pitch><duration>120</duration><voice>1</voice></note><note><pitch><step>F</step><octave>4</octave></pitch><duration>120</duration><voice>1</voice></note><note><pitch><step>G</step><octave>3</octave></pitch><duration>120</duration><voice>1</voice></note><note><pitch><step>D</step><alter>1.0</alter><octave>4</octave></pitch><duration>120</duration><voice>1</voice></note><forward><duration>360</duration></forward><note><pitch><step>D</step><alter>1.0</alter><octave>4</octave></pitch><duration>120</duration><voice>1</voice></note><note><pitch><step>G</step><octave>3</octave></pitch><duration>120</duration><voice>1</voice></note><note><pitch><step>F</step><alter>1.0</alter><octave>3</octave></pitch><duration>120</duration><voice>1</voice></note><forward><duration>360</duration></forward><note><pitch><step>C</step><octave>6</octave></pitch><duration>120</duration><voice>1</voice></note><note><pitch><step>B</step><octave>4</octave></pitch><duration>120</duration><voice>1</voice></note><forward><duration>320</duration></forward><note><pitch><step>D</step><octave>4</octave></pitch><duration>120</duration><voice>1</voice></note><note><pitch><step>G</step><octave>3</octave></pitch><duration>120</duration><voice>1</voice></note><forward><duration>280</duration></forward><note><pitch><step>D</step><alter>1.0</alter><octave>5</octave></pitch><duration>120</duration><voice>1</voice></note><note><pitch><step>G</step><octave>3</octave></pitch><duration>120</duration><voice>1</voice></note><note><pitch><step>B</step><octave>3</octave></pitch><duration>120</duration><voice>1</voice></note><forward><duration>520</duration></forward><note><pitch><step>D</step><octave>5</octave></pitch><duration>120</duration><voice>1</voice></note><note><pitch><step>A</step><octave>2</octave></pitch><duration>400</duration><voice>1</voice></note><note><pitch><step>A</step><alter>1.0</alter><octave>4</octave></pitch><duration>400</duration><voice>1</voice></note></measure></part></score-partwise>