<?xml version='1.0' encoding='utf-8'?>
<score-partwise><part-list><score-part id="P1"><part-name>Piano</part-name></score-part></part-list><part id="P1"><measure number="1"><attributes><divisions>480</divisions><time><beats>4</beats><beat-type>4</beat-type></time><key><fifths>0</fifths></key><clef><sign>G</sign><line>2</line></clef></attributes><note><pitch><step>F</step><octave>5</octave></pitch><duration>1920</duration><voice>1</voice></note></measure><measure number="317" /><measure number="133"><forward><duration>4960</duration></forward><note><pitch><step>G</step><octave>4</octave></pitch><duration>360</duration><voice>1</voice></note><note><pitch><step>B</step><octave>4</octave></pitch><duration>240</duration><voice>1</voice></note><note><pitch><step>D</step><alter>0.5</alter><octave>3</octave></pitch><duration>400</duration><voice>1</voice></note><note><pitch><step>C</step><octave>5</octave></pitch><duration>400</duration><voice>1</voice></note></measure><measure number="480"><note><pitch><step>A</step><octave>4</octave></pitch><duration>400</duration><voice>1</voice></note><note><pitch><step>F</step><alter>1.0</alter><octave>4</octave></pitch><duration>400</duration><voice>1</voice></note><note><pitch><step>G</step><octave>5</octave></pitch><duration>400</duration><voice>1</voice></note><note><pitch><step>A</step><octave>3</octave></pitch><duration>400</duration><voice>1</voice></note><note><pitch><step>C</step><alter>1.0</alter><octave>4</octave></pitch><duration>400</duration><voice>1</voice></note><note><pitch><step>D</step><octave>4</octave></pitch><duration>400</duration><voice>1</voice></note><forward><duration>560</duration></forward><note><rest /><duration>400</duration><voice>1</voice></note><note><pitch><step>B</step><alter>-0.5</alter><octave>4</octave></pitch><duration>400</duration><voice>1</voice></note></measure><measure number="40"><note><pitch><step>A</step><octave>4</octave></pitch><duration>400</duration><voice>1</voice></note></measure><measure number="52"><note><rest /><duration>400</duration><voice>1</voice></note><note><pitch><step>F</step><alter>1.0</alter><octave>4</octave></pitch><duration>400</duration><voice>1</voice></note><note><pitch><step>C</step><octave>5</octave></pitch><duration>400</duration><voice>1</voice></note><note><pitch><step>C</step><octave>5</octave></pitch><duration>400</duration><voice>1</voice></note><note><pitch><step>A</step><alter>1.0</alter><octave>4</octave></pitch><duration>240</duration><voice>1</voice></note><note><pitch><step>A</step><octave>4</octave></pitch><duration>240</duration><voice>1</voice></note><forward><duration>840</duration></forward><note><pitch><step>D</step><octave>6</octave></pitch><duration>400</duration><voice>1</voice></note></measure><measure number="8" /><measure number="129" /><measure number="2"><note><pitch><step>A</step><octave>4</octave></pitch><duration>120</duration><voice>1</voice></note></measure><measure number="301"><note><pitch><step>A</step><alter>1.0</alter><octave>4</octave></pitch><duration>400</duration><voice>1</voice></note></measure><measure number="511" /><measure number="428"><forward><duration>5720</duration></forward><note><pitch><step>E</step><alter>-0.5</alter><octave>4</octave></pitch><duration>400</duration><voice>1</voice></note><note><pitch><step>G</step><octave>4</octave></pitch><duration>400</duration><voice>1</voice></note></measure><measure number="78"><note><pitch><step>A</step><octave>4</octave></pitch><duration>400</duration><voice>1</voice></note></measure><measure number="256"><note><pitch><step>G</step><octave>4</octave></pitch><duration>400</duration><voice>1</voice></note></measure><measure number="445" /><measure number="462"><forward><duration>240</duration></forward><note><pitch><step>G</step><octave>4</octave></pitch><duration>400</duration><voice>1</voice></note></measure><measure number="71"><note><pitch><step>D</step><octave>5</octave></pitch><duration>240</duration><voice>1</voice></note><note><rest /><duration>240</duration><voice>1</voice></note><note><pitch><step>G</step><octave>4</octave></pitch><duration>240</duration><voice>1</voice></note><note><pitch><step>E</step><alter>-0.5</alter><octave>4</octave></pitch><duration>120</duration><voice>1</voice></note><note><pitch><step>A</step><octave>4</octave></pitch><duration>240</duration><voice>1</voice></note><forward><duration>720</duration></forward><note><pitch><step>F</step><alter>1.0</alter><octave>4</octave></pitch><duration>400</duration><voice>1</voice></note><note><pitch><step>G</step><alter>1.0</alter><octave>4</octave></pitch><duration>400</duration><voice>1</voice></note><note><pitch><step>A</step><octave>4</octave></pitch><duration>400</duration><voice>1</voice></note><note><pitch><step>D</step><octave>5</octave></pitch><duration>240</duration><voice>1</voice></note><note><pitch><step>A</step><alter>1.0</alter><octave>5</octave></pitch><duration>480</duration><voice>1</voice></note><forward><duration>2560</duration></forward><note><pitch><step>D</step><octave>4</octave></pitch><duration>120</duration><voice>1</voice></note></measure><measure number="115"><forward><duration>1560</duration></forward><note><pitch><step>E</step><octave>3</octave></pitch><duration>80</duration><voice>1</voice></note><note><pitch><step>C</step><octave>4</octave></pitch><duration>400</duration><voice>1</voice></note><note><pitch><step>A</step><alter>0.5</alter><octave>3</octave></pitch><duration>400</duration><voice>1</voice></note><note><pitch><step>B</step><octave>3</octave></pitch><duration>400</duration><voice>1</voice></note><note><pitch><step>E</step><octave>1</octave></pitch><duration>720</duration><voice>1</voice></note><note><pitch><step>E</step><octave>5</octave></pitch><duration>400</duration><voice>1</voice></note></measure><measure number="9" /><measure number="411" /><measure number="119"><note><pitch><step>A</step><alter>1.0</alter><octave>4</octave></pitch><duration>400</duration><voice>1</voice></note><note><pitch><step>G</step><alter>-0.5</alter><octave>0</octave></pitch><duration>400</duration><voice>1</voice></note><forward><duration>1400</duration></forward><note><pitch><step>D</step><octave>5</octave></pitch><duration>400</duration><voice>1</voice></note><note><pitch><step>G</step><octave>4</octave></pitch><duration>400</duration><voice>1</voice></note><note><pitch><step>C</step><octave>4</octave></pitch><duration>240</duration><voice>1</voice></note><note><pitch><step>C</step><alter>1.0</alter><octave>8</octave></pitch><duration>400</duration><voice>1</voice></note><note><pitch><step>F</step><octave>5</octave></pitch><duration>240</duration><voice>1</voice></note></measure><measure number="260" /><measure number="222"><note><pitch><step>D</step><alter>1.0</alter><octave>4</octave></pitch><duration>240</duration><voice>1</voice></note><note><pitch><step>B</step><alter>-0.5</alter><octave>4</octave></pitch><duration>400</duration><voice>1</voice></note></measure><measure number="35"><forward><duration>360</duration></forward><note><pitch><step>F</step><octave>3</octave></pitch><duration>400</duration><voice>1</voice></note><note><pitch><step>E</step><alter>-0.5</alter><octave>4</octave></pitch><duration>240</duration><voice>1</voice></note></measure><measure number="390"><note><pitch><step>C</step><octave>5</octave></pitch><duration>400</duration><voice>1</voice></note><note><pitch><step>G</step><octave>4</octave></pitch><duration>120</duration><voice>1</voice></note></measure><measure number="184"><note><pitch><step>A</step><alter>1.0</alter><octave>4</octave></pitch><duration>240</duration><voice>1</voice></note><note><pitch><step>A</step><octave>4</octave></pitch><duration>240</duration><voice>1</voice></note><note><pitch><step>A</step><alter>1.0</alter><octave>4</octave></pitch><duration>400</duration><voice>1</voice></note><note><pitch><step>F</step><octave>5</octave></pitch><duration>400</duration><voice>1</voice></note><forward><duration>2520</duration></forward><note><pitch><step>G</step><alter>1.0</alter><octave>3</octave></pitch><duration>400</duration><voice>1</voice></note><note><pitch><step>A</step><octave>4</octave></pitch><duration>400</duration><voice>1</voice></note><note><pitch><step>D</step><alter>1.0</alter><octave>5</octave></pitch><duration>120</duration><voice>1</voice></note><note><pitch><step>B</step><octave>2</octave></pitch><duration>400</duration><voice>1</voice></note><note><pitch><step>B</step><octave>4</octave></pitch><duration>400</duration><voice>1</voice></note><note><pitch><step>C</step><alter>1.0</alter><octave>5</octave></pitch><duration>400</duration><voice>1</voice></note></measure><measure number="53" /><measure number="23"><forward><duration>240</duration></forward><note><pitch><step>A</step><octave>4</octave></pitch><duration>120</duration><voice>1</voice></note><note><pitch><step>G</step><octave>4</octave></pitch><duration>240</duration><voice>1</voice></note><note><pitch><step>A</step><octave>4</octave></pitch><duration>960</duration><voice>1</voice></note></measure><measure number="393"><note><pitch><step>G</step><alter>1.0</alter><octave>6</octave></pitch><duration>400</duration><voice>1</voice></note><note><pitch><step>D</step><octave>4</octave></pitch><duration>240</duration><voice>1</voice></note><forward><duration>1440</duration></forward><note><pitch><step>C</step><octave>5</octave></pitch><duration>120</duration><voice>1</voice></note></measure><measure number="114"><note><pitch><step>E</step><alter>-0.5</alter><octave>4</octave></pitch><duration>400</duration><voice>1</voice></note><note><pitch><step>E</step><octave>4</octave></pitch><duration>240</duration><voice>1</voice></note><note><pitch><step>B</step><octave>3</octave></pitch><duration>400</duration><voice>1</voice></note><note><pitch><step>E</step><octave>3</octave></pitch><duration>400</duration><voice>1</voice></note><note><pitch><step>F</step><alter>1.0</alter><octave>3</octave></pitch><duration>400</duration><voice>1</voice></note></measure><measure number="89"><note><pitch><step>B</step><alter>-0.5</alter><octave>4</octave></pitch><duration>400</duration><voice>1</voice></note><note><pitch><step>A</step><alter>1.0</alter><octave>3</octave></pitch><duration>400</duration><voice>1</voice></note><note><pitch><step>D</step><octave>5</octave></pitch><duration>400</duration><voice>1</voice></note><forward><duration>640</duration></forward><note><pitch><step>C</step><octave>5</octave></pitch><duration>400</duration><voice>1</voice></note><note><pitch><step>D</step><octave>4</octave></pitch><duration>240</duration><voice>1</voice></note><note><pitch><step>B</step><octave>3</octave></pitch><duration>400</duration><voice>1</voice></note><note><pitch><step>D</step><octave>4</octave></pitch><duration>240</duration><voice>1</voice></note></measure><measure number="326"><forward><duration>1320</duration></forward><note><pitch><step>G</step><octave>4</octave></pitch><duration>240</duration><voice>1</voice></note><note><pitch><step>D</step><octave>5</octave></pitch><duration>240</duration><voice>1</voice></note><note><pitch><step>G</step><octave>8</octave></pitch><duration>400</duration><voice>1</voice></note><note><pitch><step>D</step><octave>1</octave></pitch><duration>240</duration><voice>1</voice></note><note><pitch><step>C</step><alter>1.0</alter><octave>-1</octave></pitch><duration>400</duration><voice>1</voice></note></measure><measure number="23"><forward><duration>1680</duration></forward><note><pitch><step>G</step><octave>4</octave></pitch><duration>240</duration><voice>1</voice></note><note><pitch><step>G</step><octave>5</octave></pitch><duration>400</duration><voice>1</voice></note><note><pitch><step>A</step><octave>4</octave></pitch><duration>400</duration><voice>1</voice></note></measure></part></score-partwise>