<?xml version='1.0' encoding='utf-8'?>
<score-partwise><part-list><score-part id="P1"><part-name>Piano</part-name></score-part></part-list><part id="P1"><measure number="1"><attributes><divisions>480</divisions><time><beats>4</beats><beat-type>4</beat-type></time><key><fifths>0</fifths></key><clef><sign>G</sign><line>2</line></clef></attributes><note><pitch><step>D</step><alter>1.0</alter><octave>5</octave></pitch><duration>400</duration><voice>1</voice></note><note><pitch><step>D</step><alter>1.0</alter><octave>5</octave></pitch><duration>400</duration><voice>1</voice></note><note><pitch><step>E</step><octave>2</octave></pitch><duration>400</duration><voice>1</voice></note></measure><measure number="2" /><measure number="3" /><measure number="4" /><measure number="5" /><measure number="6"><note><pitch><step>E</step><octave>2</octave></pitch><duration>240</duration><voice>1</voice></note></measure><measure number="7"><note><pitch><step>G</step><octave>3</octave></pitch><duration>120</duration><voice>1</voice></note><note><pitch><step>G</step><octave>3</octave></pitch><duration>120</duration><voice>1</voice></note></measure><measure number="8" /><measure number="9"><note><pitch><step>E</step><alter>-0.5</alter><octave>4</octave></pitch><duration>120</duration><voice>1</voice></note><note><pitch><step>B</step><octave>2</octave></pitch><duration>240</duration><voice>1</voice></note><forward><duration>160</duration></forward><note><pitch><step>G</step><octave>3</octave></pitch><duration>120</duration><voice>1</voice></note></measure><measure number="10"><forward><duration>120</duration></forward><note><pitch><step>C</step><octave>5</octave></pitch><duration>120</duration><voice>1</voice></note><forward><duration>320</duration></forward><note><pitch><step>B</step><octave>4</octave></pitch><duration>120</duration><voice>1</voice></note><note><pitch><step>G</step><octave>3</octave></pitch><duration>120</duration><voice>1</voice></note><note><pitch><step>G</step><octave>3</octave></pitch><duration>120</duration><voice>1</voice></note></measure><measure number="11"><forward><duration>40</duration></forward><note><pitch><step>G</step><octave>3</octave></pitch><duration>120</duration><voice>1</voice></note></measure><measure number="12"><forward><duration>120</duration></forward><note><pitch><step>G</step><octave>3</octave></pitch><duration>120</duration><voice>1</voice></note></measure><measure number="13"><note><pitch><step>F</step><alter>1.0</alter><octave>3</octave></pitch><duration>120</duration><voice>1</voice></note><note><pitch><step>G</step><octave>3</octave></pitch><duration>120</duration><voice>1</voice></note><forward><duration>280</duration></forward><note><pitch><step>G</step><octave>3</octave></pitch><duration>240</duration><voice>1</voice></note><note><pitch><step>B</step><octave>2</octave></pitch><duration>120</duration><voice>1</voice></note><note><pitch><step>A</step><alter>1.0</alter><octave>3</octave></pitch><duration>120</duration><voice>1</voice></note><note><pitch><step>G</step><octave>3</octave></pitch><duration>120</duration><voice>1</voice></note></measure><measure number="14"><forward><duration>280</duration></forward><note><pitch><step>F</step><alter>1.0</alter><octave>3</octave></pitch><duration>120</duration><voice>1</voice></note></measure><measure number="15"><forward><duration>280</duration></forward><note><pitch><step>G</step><octave>3</octave></pitch><duration>120</duration><voice>1</voice></note><note><pitch><step>A</step><alter>1.0</alter><octave>3</octave></pitch><duration>120</duration><voice>1</voice></note></measure><measure number="16"><forward><duration>280</duration></forward><note><pitch><step>G</step><octave>3</octave></pitch><duration>120</duration><voice>1</voice></note></measure><measure number="17"><forward><duration>120</duration></forward><note><pitch><step>F</step><alter>1.0</alter><octave>3</octave></pitch><duration>240</duration><voice>1</voice></note><forward><duration>40</duration></forward><note><pitch><step>G</step><octave>3</octave></pitch><duration>120</duration><voice>1</voice></note></measure><measure number="18"><forward><duration>280</duration></forward><note><pitch><step>G</step><octave>3</octave></pitch><duration>120</duration><voice>1</voice></note><forward><duration>120</duration></forward><note><pitch><step>F</step><alter>1.0</alter><octave>3</octave></pitch><duration>120</duration><voice>1</voice></note><note><pitch><step>G</step><octave>2</octave></pitch><duration>120</duration><voice>1</voice></note><note><pitch><step>G</step><octave>3</octave></pitch><duration>120</duration><voice>1</voice></note><note><pitch><step>G</step><alter>1.0</alter><octave>4</octave></pitch><duration>120</duration><voice>1</voice></note><forward><duration>120</duration></forward><note><pitch><step>G</step><octave>3</octave></pitch><duration>120</duration><voice>1</voice></note><note><pitch><step>G</step><octave>3</octave></pitch><duration>120</duration><voice>1</voice></note><note><pitch><step>G</step><octave>3</octave></pitch><duration>120</duration><voice>1</voice></note><note><pitch><step>G</step><octave>3</octave></pitch><duration>120</duration><voice>1</voice></note><note><pitch><step>G</step><octave>4</octave></pitch><duration>120</duration><voice>1</voice></note><note><pitch><step>G</step><octave>3</octave></pitch><duration>120</duration><voice>1</voice></note></measure><measure number="19"><forward><duration>280</duration></forward><note><pitch><step>G</step><octave>3</octave></pitch><duration>120</duration><voice>1</voice></note><note><pitch><step>F</step><alter>1.0</alter><octave>3</octave></pitch><duration>120</duration><voice>1</voice></note><forward><duration>40</duration></forward><note><pitch><step>G</step><octave>3</octave></pitch><duration>120</duration><voice>1</voice></note><note><pitch><step>G</step><octave>3</octave></pitch><duration>120</duration><voice>1</voice></note><forward><duration>120</duration></forward><note><pitch><step>G</step><octave>3</octave></pitch><duration>120</duration><voice>1</voice></note></measure><measure number="20"><note><pitch><step>B</step><alter>-0.5</alter><octave>2</octave></pitch><duration>120</duration><voice>1</voice></note><forward><duration>400</duration></forward><note><pitch><step>G</step><octave>3</octave></pitch><duration>120</duration><voice>1</voice></note><note><pitch><step>F</step><alter>1.0</alter><octave>3</octave></pitch><duration>120</duration><voice>1</voice></note><note><pitch><step>G</step><alter>1.0</alter><octave>4</octave></pitch><duration>120</duration><voice>1</voice></note><forward><duration>40</duration></forward><note><pitch><step>G</step><octave>3</octave></pitch><duration>120</duration><voice>1</voice></note></measure></part></score-partwise>