<?xml version='1.0' encoding='utf-8'?>
<score-partwise><part-list><score-part id="P1"><part-name>Piano</part-name></score-part></part-list><part id="P1"><measure number="1"><attributes><divisions>480</divisions><time><beats>4</beats><beat-type>4</beat-type></time><key><fifths>0</fifths></key><clef><sign>G</sign><line>2</line></clef></attributes><note><pitch><step>F</step><alter>1.0</alter><octave>2</octave></pitch><duration>40</duration><voice>1</voice></note><note><rest /><duration>400</duration><voice>1</voice></note></measure><measure number="2"><note><pitch><step>C</step><alter>1.0</alter><octave>4</octave></pitch><duration>1920</duration><voice>1</voice></note></measure><measure number="3"><forward><duration>1080</duration></forward><note><rest /><duration>400</duration><voice>1</voice></note><note><pitch><step>E</step><octave>5</octave></pitch><duration>400</duration><voice>1</voice></note></measure><measure number="4"><note><pitch><step>C</step><alter>1.0</alter><octave>1</octave></pitch><duration>120</duration><voice>1</voice></note><note><pitch><step>F</step><octave>4</octave></pitch><duration>120</duration><voice>1</voice></note><forward><duration>120</duration></forward><note><pitch><step>F</step><alter>1.0</alter><octave>5</octave></pitch><duration>400</duration><voice>1</voice></note><note><rest /><duration>400</duration><voice>1</voice></note></measure><measure number="5"><note><rest /><duration>480</duration><voice>1</voice></note></measure><measure number="6" /><measure number="7"><note><pitch><step>D</step><octave>4</octave></pitch><duration>120</duration><voice>1</voice></note><forward><duration>1800</duration></forward></measure><measure number="8"><note><pitch><step>D</step><octave>3</octave></pitch><duration>400</duration><voice>1</voice></note><note><pitch><step>C</step><octave>4</octave></pitch><duration>240</duration><voice>1</voice></note><note><pitch><step>B</step><octave>3</octave></pitch><duration>40</duration><voice>1</voice></note><note><pitch><step>G</step><alter>1.0</alter><octave>3</octave></pitch><duration>400</duration><voice>1</voice></note><note><pitch><step>F</step><octave>3</octave></pitch><duration>120</duration><voice>1</voice></note><forward><duration>600</duration></forward><note><pitch><step>F</step><alter>0.5</alter><octave>0</octave></pitch><duration>120</duration><voice>1</voice></note></measure><measure number="9"><note><pitch><step>E</step><octave>1</octave></pitch><duration>40</duration><voice>1</voice></note><forward><duration>1640</duration></forward><note><pitch><step>F</step><octave>5</octave></pitch><duration>40</duration><voice>1</voice></note></measure><measure number="10"><note><pitch><step>B</step><octave>4</octave></pitch><duration>400</duration><voice>1</voice></note><note><pitch><step>A</step><alter>-0.5</alter><octave>4</octave></pitch><duration>400</duration><voice>1</voice></note></measure><measure number="11" /><measure number="12"><note><rest /><duration>40</duration><voice>1</voice></note></measure><measure number="13"><note><pitch><step>G</step><octave>3</octave></pitch><duration>480</duration><voice>1</voice></note></measure><measure number="14"><note><pitch><step>E</step><octave>3</octave></pitch><duration>40</duration><voice>1</voice></note><note><pitch><step>F</step><octave>4</octave></pitch><duration>120</duration><voice>1</voice></note><forward><duration>1080</duration></forward><note><pitch><step>G</step><octave>3</octave></pitch><duration>400</duration><voice>1</voice></note></measure><measure number="15"><note><pitch><step>D</step><alter>1.0</alter><octave>4</octave></pitch><duration>400</duration><voice>1</voice></note><note><pitch><step>B</step><alter>-0.5</alter><octave>7</octave></pitch><duration>400</duration><voice>1</voice></note><note><pitch><step>F</step><octave>4</octave></pitch><duration>240</duration><voice>1</voice></note></measure><measure number="16" /><measure number="17"><forward><duration>960</duration></forward><forward><duration>960</duration></forward></measure><measure number="18"><note><pitch><step>D</step><alter>1.0</alter><octave>5</octave></pitch><duration>400</duration><voice>1</voice></note></measure><measure number="19"><note><pitch><step>C</step><octave>4</octave></pitch><duration>960</duration><voice>1</voice></note></measure><measure number="20"><note><pitch><step>C</step><octave>4</octave></pitch><duration>1920</duration><voice>1</voice></note></measure><measure number="21"><note><pitch><step>E</step><octave>4</octave></pitch><duration>480</duration><voice>1</voice></note><note><pitch><step>F</step><octave>4</octave></pitch><duration>400</duration><voice>1</voice></note></measure><measure number="22" /><measure number="23"><note><pitch><step>E</step><octave>5</octave></pitch><duration>480</duration><voice>1</voice></note></measure><measure number="24"><forward><duration>480</duration></forward><forward><duration>960</duration></forward></measure><measure number="25"><note><pitch><step>G</step><octave>4</octave></pitch><duration>120</duration><voice>1</voice></note><forward><duration>360</duration></forward><note><rest /><duration>120</duration><voice>1</voice></note></measure><measure number="26"><forward><duration>720</duration></forward><forward><duration>720</duration></forward><note><rest /><duration>240</duration><voice>1</voice></note></measure><measure number="27"><note><rest /><duration>160</duration><voice>1</voice></note></measure><measure number="28"><note><pitch><step>E</step><octave>5</octave></pitch><duration>120</duration><voice>1</voice></note><forward><duration>680</duration></forward><note><pitch><step>C</step><alter>1.0</alter><octave>6</octave></pitch><duration>120</duration><voice>1</voice></note><note><pitch><step>C</step><octave>4</octave></pitch><duration>160</duration><voice>1</voice></note></measure><measure number="29"><note><pitch><step>C</step><octave>4</octave></pitch><duration>320</duration><voice>1</voice></note><note><pitch><step>E</step><octave>4</octave></pitch><duration>400</duration><voice>1</voice></note><note><pitch><step>C</step><octave>4</octave></pitch><duration>400</duration><voice>1</voice></note><forward><duration>320</duration></forward><note><pitch><step>F</step><octave>4</octave></pitch><duration>240</duration><voice>1</voice></note></measure><measure number="30"><note><pitch><step>F</step><octave>4</octave></pitch><duration>160</duration><voice>1</voice></note><note><pitch><step>F</step><octave>4</octave></pitch><duration>120</duration><voice>1</voice></note></measure><measure number="31"><note><pitch><step>D</step><octave>4</octave></pitch><duration>400</duration><voice>1</voice></note><note><pitch><step>A</step><alter>1.0</alter><octave>4</octave></pitch><duration>40</duration><voice>1</voice></note></measure><measure number="32"><note><pitch><step>D</step><alter>1.0</alter><octave>4</octave></pitch><duration>360</duration><voice>1</voice></note></measure><measure number="33"><forward><duration>280</duration></forward><note><pitch><step>D</step><octave>4</octave></pitch><duration>480</duration><voice>1</voice></note></measure><measure number="34"><note><pitch><step>G</step><alter>1.0</alter><octave>5</octave></pitch><duration>120</duration><voice>1</voice></note></measure><measure number="35"><forward><duration>360</duration></forward><forward><duration>360</duration></forward><note><pitch><step>G</step><octave>4</octave></pitch><duration>480</duration><voice>1</voice></note></measure><measure number="36"><forward><duration>960</duration></forward></measure><measure number="37"><note><pitch><step>B</step><octave>3</octave></pitch><duration>240</duration><voice>1</voice></note><note><pitch><step>A</step><octave>2</octave></pitch><duration>400</duration><voice>1</voice></note></measure><measure number="38"><note><pitch><step>C</step><octave>4</octave></pitch><duration>40</duration><voice>1</voice></note></measure><measure number="39"><note><pitch><step>F</step><alter>1.0</alter><octave>0</octave></pitch><duration>400</duration><voice>1</voice></note><note><pitch><step>G</step><octave>4</octave></pitch><duration>960</duration><voice>1</voice></note></measure><measure number="40"><note><pitch><step>D</step><alter>0.5</alter><octave>4</octave></pitch><duration>400</duration><voice>1</voice></note></measure><measure number="41" /><measure number="42"><forward><duration>720</duration></forward><note><pitch><step>G</step><alter>1.0</alter><octave>5</octave></pitch><duration>240</duration><voice>1</voice></note></measure><measure number="43"><note><pitch><step>G</step><alter>1.0</alter><octave>5</octave></pitch><duration>160</duration><voice>1</voice></note><note><pitch><step>E</step><octave>4</octave></pitch><duration>480</duration><voice>1</voice></note></measure><measure number="44"><forward><duration>840</duration></forward><forward><duration>840</duration></forward><note><pitch><step>C</step><octave>4</octave></pitch><duration>120</duration><voice>1</voice></note></measure><measure number="45"><note><pitch><step>C</step><octave>4</octave></pitch><duration>1800</duration><voice>1</voice></note></measure><measure number="46"><note><pitch><step>D</step><alter>0.5</alter><octave>5</octave></pitch><duration>400</duration><voice>1</voice></note></measure><measure number="47"><note><pitch><step>C</step><octave>4</octave></pitch><duration>1920</duration><voice>1</voice></note></measure><measure number="48"><note><pitch><step>D</step><octave>5</octave></pitch><duration>400</duration><voice>1</voice></note></measure><measure number="49"><note><pitch><step>G</step><octave>5</octave></pitch><duration>80</duration><voice>1</voice></note></measure><measure number="50"><note><pitch><step>C</step><octave>4</octave></pitch><duration>1920</duration><voice>1</voice></note></measure><measure number="51"><note><pitch><step>C</step><octave>4</octave></pitch><duration>1920</duration><voice>1</voice></note></measure><measure number="52"><note><pitch><step>C</step><octave>4</octave></pitch><duration>1920</duration><voice>1</voice></note></measure><measure number="53"><note><pitch><step>C</step><octave>4</octave></pitch><duration>1920</duration><voice>1</voice></note></measure><measure number="54"><note><pitch><step>C</step><octave>4</octave></pitch><duration>1920</duration><voice>1</voice></note></measure><measure number="55"><note><pitch><step>C</step><octave>4</octave></pitch><duration>1920</duration><voice>1</voice></note></measure></part></score-partwise>