<?xml version='1.0' encoding='utf-8'?>
<score-partwise><part-list><score-part id="P1"><part-name>Piano</part-name></score-part></part-list><part id="P1"><measure number="1"><attributes><divisions>480</divisions><time><beats>4</beats><beat-type>4</beat-type></time><key><fifths>0</fifths></key><clef><sign>G</sign><line>2</line></clef></attributes></measure><measure number="2"><note><pitch><step>E</step><octave>3</octave></pitch><duration>400</duration><voice>1</voice></note><note><pitch><step>E</step><octave>3</octave></pitch><duration>400</duration><voice>1</voice></note><note><pitch><step>E</step><octave>3</octave></pitch><duration>400</duration><voice>1</voice></note><note><pitch><step>E</step><octave>3</octave></pitch><duration>400</duration><voice>1</voice></note></measure><measure number="3" /><measure number="4"><note><pitch><step>D</step><octave>3</octave></pitch><duration>400</duration><voice>1</voice></note></measure><measure number="5"><note><pitch><step>E</step><octave>3</octave></pitch><duration>400</duration><voice>1</voice></note></measure><measure number="6"><forward><duration>1240</duration></forward><note><pitch><step>E</step><octave>3</octave></pitch><duration>400</duration><voice>1</voice></note></measure><measure number="7"><forward><duration>1320</duration></forward><note><pitch><step>E</step><octave>3</octave></pitch><duration>400</duration><voice>1</voice></note></measure><measure number="8"><note><pitch><step>E</step><octave>3</octave></pitch><duration>400</duration><voice>1</voice></note><note><pitch><step>D</step><octave>3</octave></pitch><duration>400</duration><voice>1</voice></note></measure><measure number="9"><note><pitch><step>F</step><octave>3</octave></pitch><voice>1</voice><duration>480</duration><voice>1</voice></note><note><pitch><step>E</step><octave>3</octave></pitch><duration>400</duration><voice>1</voice></note><note><pitch><step>D</step><octave>3</octave></pitch><duration>400</duration><voice>1</voice></note><note><pitch><step>D</step><octave>4</octave></pitch><duration>400</duration><voice>1</voice></note></measure><measure number="10"><note><pitch><step>E</step><octave>3</octave></pitch><duration>400</duration><voice>1</voice></note></measure><measure number="11"><note><pitch><step>E</step><octave>3</octave></pitch><duration>400</duration><voice>1</voice></note><note><pitch><step>G</step><alter>1.0</alter><octave>1</octave></pitch><duration>400</duration><voice>1</voice></note><note><pitch><step>C</step><alter>1.0</alter><octave>4</octave></pitch><duration>360</duration><voice>1</voice></note></measure><measure number="12"><forward><duration>560</duration></forward><note><pitch><step>D</step><octave>2</octave></pitch><duration>360</duration><voice>1</voice></note><note><pitch><step>D</step><octave>2</octave></pitch><duration>400</duration><voice>1</voice></note><note><pitch><step>D</step><octave>2</octave></pitch><duration>400</duration><voice>1</voice></note></measure><measure number="13"><forward><duration>1320</duration></forward><note><pitch><step>D</step><octave>4</octave></pitch><duration>400</duration><voice>1</voice></note></measure><measure number="14"><note><pitch><step>D</step><alter>1.0</alter><octave>2</octave></pitch><duration>400</duration><voice>1</voice></note><note><pitch><step>E</step><octave>3</octave></pitch><duration>400</duration><voice>1</voice></note><forward><duration>640</duration></forward><note><pitch><step>D</step><alter>1.0</alter><octave>2</octave></pitch><duration>400</duration><voice>1</voice></note></measure><measure number="15"><forward><duration>800</duration></forward><note><pitch><step>D</step><octave>2</octave></pitch><duration>360</duration><voice>1</voice></note></measure><measure number="16"><forward><duration>1600</duration></forward><note><pitch><step>D</step><octave>2</octave></pitch><duration>320</duration><voice>1</voice></note></measure><measure number="17"><note><pitch><step>D</step><octave>2</octave></pitch><voice>1</voice><duration>40</duration><voice>1</voice></note></measure><measure number="18"><note><pitch><step>D</step><octave>2</octave></pitch><duration>360</duration><voice>1</voice></note></measure><measure number="19" /><measure number="20"><forward><duration>1040</duration></forward><note><pitch><step>D</step><alter>1.0</alter><octave>2</octave></pitch><duration>360</duration><voice>1</voice></note></measure><measure number="21" /><measure number="22"><forward><duration>1320</duration></forward><note><pitch><step>D</step><alter>1.0</alter><octave>2</octave></pitch><duration>360</duration><voice>1</voice></note></measure><measure number="23"><forward><duration>1080</duration></forward><note><pitch><step>D</step><alter>1.0</alter><octave>2</octave></pitch><duration>360</duration><voice>1</voice></note><note><pitch><step>D</step><octave>2</octave></pitch><duration>160</duration><voice>1</voice></note></measure><measure number="24"><forward><duration>920</duration></forward><note><pitch><step>D</step><alter>1.0</alter><octave>2</octave></pitch><duration>360</duration><voice>1</voice></note></measure><measure number="25"><note><pitch><step>G</step><octave>3</octave></pitch><voice>1</voice><duration>1400</duration><voice>1</voice></note><note><pitch><step>D</step><octave>2</octave></pitch><duration>360</duration><voice>1</voice></note></measure><measure number="26"><forward><duration>1320</duration></forward><note><pitch><step>F</step><octave>1</octave></pitch><duration>360</duration><voice>1</voice></note></measure><measure number="27"><forward><duration>520</duration></forward><note><pitch><step>D</step><octave>2</octave></pitch><duration>360</duration><voice>1</voice></note></measure><measure number="28"><forward><duration>1600</duration></forward><note><pitch><step>D</step><alter>1.0</alter><octave>2</octave></pitch><duration>320</duration><voice>1</voice></note></measure><measure number="29"><note><pitch><step>D</step><alter>1.0</alter><octave>2</octave></pitch><voice>1</voice><duration>40</duration><voice>1</voice></note><note><pitch><step>D</step><octave>2</octave></pitch><duration>360</duration><voice>1</voice></note></measure><measure number="30" /><measure number="31"><note><pitch><step>D</step><alter>1.0</alter><octave>2</octave></pitch><duration>1920</duration><voice>1</voice></note></measure><measure number="32"><note><pitch><step>D</step><alter>1.0</alter><octave>2</octave></pitch><voice>1</voice><duration>480</duration><voice>1</voice></note></measure><measure number="33"><forward><duration>680</duration></forward><note><pitch><step>D</step><alter>1.0</alter><octave>2</octave></pitch><duration>360</duration><voice>1</voice></note></measure><measure number="34"><forward><duration>1320</duration></forward><note><pitch><step>D</step><alter>1.0</alter><octave>2</octave></pitch><duration>360</duration><voice>1</voice></note></measure><measure number="35"><note><pitch><step>D</step><alter>1.0</alter><octave>2</octave></pitch><duration>360</duration><voice>1</voice></note></measure><measure number="36" /><measure number="37"><forward><duration>1320</duration></forward><note><pitch><step>D</step><alter>1.0</alter><octave>2</octave></pitch><duration>400</duration><voice>1</voice></note></measure><measure number="38"><forward><duration>1320</duration></forward><note><pitch><step>D</step><alter>1.0</alter><octave>2</octave></pitch><duration>360</duration><voice>1</voice></note></measure><measure number="39"><forward><duration>440</duration></forward><note><pitch><step>D</step><octave>1</octave></pitch><duration>360</duration><voice>1</voice></note><forward><duration>760</duration></forward><note><pitch><step>F</step><octave>1</octave></pitch><duration>360</duration><voice>1</voice></note></measure><measure number="40"><note><pitch><step>F</step><octave>1</octave></pitch><voice>1</voice><duration>1920</duration><voice>1</voice></note></measure><measure number="41"><note><pitch><step>D</step><alter>1.0</alter><octave>2</octave></pitch><duration>360</duration><voice>1</voice></note></measure><measure number="42"><forward><duration>1040</duration></forward><note><pitch><step>D</step><alter>1.0</alter><octave>2</octave></pitch><duration>480</duration><voice>1</voice></note></measure><measure number="43"><note><pitch><step>D</step><octave>2</octave></pitch><duration>360</duration><voice>1</voice></note><note><pitch><step>D</step><octave>2</octave></pitch><duration>360</duration><voice>1</voice></note></measure><measure number="44"><forward><duration>880</duration></forward><note><pitch><step>D</step><alter>1.0</alter><octave>2</octave></pitch><duration>360</duration><voice>1</voice></note><note><pitch><step>D</step><octave>2</octave></pitch><duration>360</duration><voice>1</voice></note><forward><duration>80</duration></forward></measure><measure number="45"><note><pitch><step>E</step><octave>3</octave></pitch><duration>400</duration><voice>1</voice></note></measure><measure number="46"><forward><duration>920</duration></forward></measure><measure number="47"><note><pitch><step>E</step><octave>3</octave></pitch><duration>400</duration><voice>1</voice></note></measure><measure number="48"><note><pitch><step>E</step><octave>3</octave></pitch><duration>400</duration><voice>1</voice></note></measure><measure number="49"><note><pitch><step>E</step><octave>3</octave></pitch><duration>400</duration><voice>1</voice></note></measure><measure number="50"><note><pitch><step>E</step><octave>3</octave></pitch><duration>400</duration><voice>1</voice></note></measure><measure number="51"><note><pitch><step>E</step><octave>3</octave></pitch><duration>400</duration><voice>1</voice></note></measure><measure number="52"><note><pitch><step>F</step><octave>3</octave></pitch><duration>1920</duration><voice>1</voice></note></measure><measure number="53"><forward><duration>920</duration></forward></measure><measure number="54"><note><pitch><step>D</step><octave>1</octave></pitch><duration>400</duration><voice>1</voice></note></measure><measure number="55"><note><pitch><step>D</step><alter>1.0</alter><octave>2</octave></pitch><duration>400</duration><voice>1</voice></note></measure><measure number="56"><note><pitch><step>G</step><octave>3</octave></pitch><duration>1000</duration><voice>1</voice></note></measure><measure number="57"><note><pitch><step>D</step><alter>1.0</alter><octave>2</octave></pitch><duration>360</duration><voice>1</voice></note></measure><measure number="58"><note><pitch><step>F</step><octave>1</octave></pitch><voice>1</voice><voice>1</voice><duration>1920</duration><voice>1</voice></note></measure><measure number="59"><note><pitch><step>D</step><octave>2</octave></pitch><duration>360</duration><voice>1</voice></note></measure><measure number="60"><note><pitch><step>E</step><octave>3</octave></pitch><duration>360</duration><voice>1</voice></note></measure><measure number="61"><note><pitch><step>E</step><octave>3</octave></pitch><duration>400</duration><voice>1</voice></note></measure><measure number="62"><note><pitch><step>E</step><octave>3</octave></pitch><duration>400</duration><voice>1</voice></note></measure><measure number="63"><note><pitch><step>E</step><octave>3</octave></pitch><duration>400</duration><voice>1</voice></note></measure><measure number="64"><note><pitch><step>D</step><octave>3</octave></pitch><duration>400</duration><voice>1</voice></note></measure><measure number="65"><note><pitch><step>A</step><octave>2</octave></pitch><duration>400</duration><voice>1</voice></note></measure><measure number="66"><note><pitch><step>E</step><octave>3</octave></pitch><duration>360</duration><voice>1</voice></note></measure><measure number="67"><note><pitch><step>F</step><octave>5</octave></pitch><duration>400</duration><voice>1</voice></note></measure><measure number="68"><note><pitch><step>D</step><alter>1.0</alter><octave>2</octave></pitch><duration>400</duration><voice>1</voice></note></measure><measure number="69"><note><pitch><step>C</step><octave>2</octave></pitch><duration>400</duration><voice>1</voice></note></measure><measure number="70"><note><pitch><step>F</step><octave>1</octave></pitch><voice>1</voice><voice>1</voice><voice>1</voice><duration>600</duration><voice>1</voice></note></measure><measure number="71"><note><pitch><step>D</step><octave>4</octave></pitch><duration>400</duration><voice>1</voice></note></measure><measure number="72"><note><pitch><step>E</step><octave>3</octave></pitch><duration>400</duration><voice>1</voice></note></measure><measure number="73"><note><pitch><step>E</step><octave>3</octave></pitch><duration>400</duration><voice>1</voice></note></measure><measure number="74"><note><pitch><step>D</step><alter>1.0</alter><octave>4</octave></pitch><duration>360</duration><voice>1</voice></note></measure><measure number="75"><note><pitch><step>E</step><octave>3</octave></pitch><duration>400</duration><voice>1</voice></note></measure><measure number="76"><note><pitch><step>E</step><octave>3</octave></pitch><duration>400</duration><voice>1</voice></note></measure><measure number="77"><note><pitch><step>E</step><octave>3</octave></pitch><duration>400</duration><voice>1</voice></note></measure><measure number="78"><note><pitch><step>E</step><octave>3</octave></pitch><duration>400</duration><voice>1</voice></note></measure><measure number="79"><note><pitch><step>E</step><octave>3</octave></pitch><duration>400</duration><voice>1</voice></note></measure><measure number="80"><note><pitch><step>E</step><octave>3</octave></pitch><duration>400</duration><voice>1</voice></note></measure><measure number="81"><note><pitch><step>E</step><octave>3</octave></pitch><duration>400</duration><voice>1</voice></note></measure></part></score-partwise>