<?xml version='1.0' encoding='utf-8'?>
<score-partwise><part-list><score-part id="P1"><part-name>Piano</part-name></score-part></part-list><part id="P1"><measure number="1"><attributes><divisions>480</divisions><time><beats>4</beats><beat-type>4</beat-type></time><key><fifths>0</fifths></key><clef><sign>G</sign><line>2</line></clef></attributes></measure><measure number="2"><note><pitch><step>E</step><octave>3</octave></pitch><duration>400</duration><voice>1</voice></note><note><pitch><step>E</step><octave>3</octave></pitch><duration>400</duration><voice>1</voice></note><note><pitch><step>E</step><octave>3</octave></pitch><duration>400</duration><voice>1</voice></note><note><pitch><step>E</step><octave>3</octave></pitch><duration>400</duration><voice>1</voice></note><note><pitch><step>E</step><octave>3</octave></pitch><duration>400</duration><voice>1</voice></note><note><pitch><step>E</step><octave>3</octave></pitch><duration>400</duration><voice>1</voice></note><note><pitch><step>D</step><octave>4</octave></pitch><duration>400</duration><voice>1</voice></note><note><pitch><step>E</step><octave>3</octave></pitch><duration>400</duration><voice>1</voice></note><forward><duration>920</duration></forward><note><pitch><step>E</step><octave>3</octave></pitch><duration>400</duration><voice>1</voice></note><note><pitch><step>E</step><octave>3</octave></pitch><duration>400</duration><voice>1</voice></note><note><pitch><step>E</step><octave>3</octave></pitch><duration>400</duration><voice>1</voice></note><note><pitch><step>E</step><octave>3</octave></pitch><duration>400</duration><voice>1</voice></note><note><pitch><step>E</step><octave>3</octave></pitch><duration>400</duration><voice>1</voice></note><note><pitch><step>E</step><octave>3</octave></pitch><duration>400</duration><voice>1</voice></note><note><pitch><step>E</step><octave>3</octave></pitch><duration>400</duration><voice>1</voice></note><note><pitch><step>E</step><octave>3</octave></pitch><duration>400</duration><voice>1</voice></note><note><pitch><step>E</step><octave>3</octave></pitch><duration>400</duration><voice>1</voice></note><note><pitch><step>E</step><octave>3</octave></pitch><duration>400</duration><voice>1</voice></note><note><pitch><step>E</step><octave>3</octave></pitch><duration>400</duration><voice>1</voice></note><note><pitch><step>E</step><octave>3</octave></pitch><duration>400</duration><voice>1</voice></note><note><pitch><step>D</step><octave>3</octave></pitch><duration>400</duration><voice>1</voice></note><note><pitch><step>E</step><octave>3</octave></pitch><duration>400</duration><voice>1</voice></note><note><pitch><step>E</step><octave>3</octave></pitch><duration>400</duration><voice>1</voice></note></measure><measure number="3" /><measure number="4"><note><pitch><step>D</step><octave>3</octave></pitch><duration>400</duration><voice>1</voice></note></measure><measure number="5"><note><pitch><step>E</step><octave>3</octave></pitch><duration>400</duration><voice>1</voice></note></measure><measure number="6"><forward><duration>1240</duration></forward><note><pitch><step>E</step><octave>3</octave></pitch><duration>400</duration><voice>1</voice></note></measure><measure number="7"><forward><duration>1320</duration></forward><note><pitch><step>E</step><octave>3</octave></pitch><duration>400</duration><voice>1</voice></note><note><pitch><step>E</step><octave>3</octave></pitch><duration>400</duration><voice>1</voice></note><note><pitch><step>A</step><octave>2</octave></pitch><duration>400</duration><voice>1</voice></note></measure><measure number="8"><note><pitch><step>E</step><octave>3</octave></pitch><duration>400</duration><voice>1</voice></note><note><pitch><step>D</step><octave>3</octave></pitch><duration>400</duration><voice>1</voice></note><note><pitch><step>F</step><octave>3</octave></pitch><duration>2400</duration><voice>1</voice></note><note><pitch><step>E</step><octave>3</octave></pitch><duration>400</duration><voice>1</voice></note><note><pitch><step>D</step><octave>3</octave></pitch><duration>400</duration><voice>1</voice></note><forward><duration>920</duration></forward><note><pitch><step>D</step><octave>4</octave></pitch><duration>400</duration><voice>1</voice></note><note><pitch><step>E</step><octave>3</octave></pitch><duration>360</duration><voice>1</voice></note></measure><measure number="9"><note><pitch><step>E</step><octave>3</octave></pitch><duration>400</duration><voice>1</voice></note></measure><measure number="10"><note><pitch><step>E</step><octave>3</octave></pitch><duration>400</duration><voice>1</voice></note><note><pitch><step>G</step><alter>1.0</alter><octave>1</octave></pitch><duration>400</duration><voice>1</voice></note><note><pitch><step>C</step><alter>1.0</alter><octave>4</octave></pitch><duration>360</duration><voice>1</voice></note></measure><measure number="11"><forward><duration>560</duration></forward><note><pitch><step>D</step><octave>2</octave></pitch><duration>360</duration><voice>1</voice></note><note><pitch><step>D</step><octave>2</octave></pitch><duration>400</duration><voice>1</voice></note><note><pitch><step>D</step><octave>2</octave></pitch><duration>400</duration><voice>1</voice></note></measure><measure number="12"><forward><duration>1320</duration></forward><note><pitch><step>D</step><octave>4</octave></pitch><duration>400</duration><voice>1</voice></note><note><pitch><step>D</step><octave>1</octave></pitch><duration>400</duration><voice>1</voice></note><note><pitch><step>F</step><octave>5</octave></pitch><duration>400</duration><voice>1</voice></note></measure><measure number="13"><note><pitch><step>D</step><alter>1.0</alter><octave>2</octave></pitch><duration>400</duration><voice>1</voice></note><note><pitch><step>E</step><octave>3</octave></pitch><duration>400</duration><voice>1</voice></note><forward><duration>640</duration></forward><note><pitch><step>D</step><alter>1.0</alter><octave>2</octave></pitch><duration>400</duration><voice>1</voice></note><note><pitch><step>D</step><alter>1.0</alter><octave>2</octave></pitch><duration>400</duration><voice>1</voice></note><note><pitch><step>D</step><alter>1.0</alter><octave>2</octave></pitch><duration>400</duration><voice>1</voice></note><note><pitch><step>D</step><alter>1.0</alter><octave>4</octave></pitch><duration>360</duration><voice>1</voice></note></measure><measure number="14"><forward><duration>800</duration></forward><note><pitch><step>D</step><octave>2</octave></pitch><duration>360</duration><voice>1</voice></note></measure><measure number="15"><forward><duration>1600</duration></forward><note><pitch><step>D</step><octave>2</octave></pitch><duration>360</duration><voice>1</voice></note></measure><measure number="16"><note><pitch><step>D</step><octave>2</octave></pitch><duration>360</duration><voice>1</voice></note></measure><measure number="17" /><measure number="18"><forward><duration>1040</duration></forward><note><pitch><step>D</step><alter>1.0</alter><octave>2</octave></pitch><duration>360</duration><voice>1</voice></note></measure><measure number="19" /><measure number="20"><forward><duration>1320</duration></forward><note><pitch><step>D</step><alter>1.0</alter><octave>2</octave></pitch><duration>360</duration><voice>1</voice></note></measure><measure number="21"><forward><duration>1080</duration></forward><note><pitch><step>D</step><alter>1.0</alter><octave>2</octave></pitch><duration>360</duration><voice>1</voice></note><note><pitch><step>D</step><octave>2</octave></pitch><duration>160</duration><voice>1</voice></note></measure><measure number="22"><forward><duration>920</duration></forward><note><pitch><step>D</step><alter>1.0</alter><octave>2</octave></pitch><duration>360</duration><voice>1</voice></note><note><pitch><step>G</step><octave>3</octave></pitch><duration>2400</duration><voice>1</voice></note><note><pitch><step>D</step><octave>2</octave></pitch><duration>360</duration><voice>1</voice></note></measure><measure number="23"><forward><duration>1320</duration></forward><note><pitch><step>F</step><octave>1</octave></pitch><duration>360</duration><voice>1</voice></note></measure><measure number="24"><forward><duration>520</duration></forward><note><pitch><step>D</step><octave>2</octave></pitch><duration>360</duration><voice>1</voice></note></measure><measure number="25"><forward><duration>1600</duration></forward><note><pitch><step>D</step><alter>1.0</alter><octave>2</octave></pitch><duration>360</duration><voice>1</voice></note><note><pitch><step>D</step><octave>2</octave></pitch><duration>360</duration><voice>1</voice></note></measure><measure number="26" /><measure number="27"><note><pitch><step>D</step><alter>1.0</alter><octave>2</octave></pitch><duration>2400</duration><voice>1</voice></note></measure><measure number="28"><forward><duration>680</duration></forward><note><pitch><step>D</step><alter>1.0</alter><octave>2</octave></pitch><duration>360</duration><voice>1</voice></note></measure><measure number="29"><forward><duration>1320</duration></forward><note><pitch><step>D</step><alter>1.0</alter><octave>2</octave></pitch><duration>360</duration><voice>1</voice></note></measure><measure number="30"><note><pitch><step>D</step><alter>1.0</alter><octave>2</octave></pitch><duration>360</duration><voice>1</voice></note></measure><measure number="31" /><measure number="32"><forward><duration>1320</duration></forward><note><pitch><step>D</step><alter>1.0</alter><octave>2</octave></pitch><duration>400</duration><voice>1</voice></note></measure><measure number="33"><forward><duration>1320</duration></forward><note><pitch><step>D</step><alter>1.0</alter><octave>2</octave></pitch><duration>360</duration><voice>1</voice></note><note><pitch><step>D</step><alter>1.0</alter><octave>2</octave></pitch><duration>360</duration><voice>1</voice></note></measure><measure number="34"><forward><duration>440</duration></forward><note><pitch><step>D</step><octave>1</octave></pitch><duration>360</duration><voice>1</voice></note><forward><duration>760</duration></forward><note><pitch><step>F</step><octave>1</octave></pitch><duration>4800</duration><voice>1</voice></note><note><pitch><step>D</step><octave>2</octave></pitch><duration>360</duration><voice>1</voice></note></measure><measure number="35"><note><pitch><step>D</step><alter>1.0</alter><octave>2</octave></pitch><duration>360</duration><voice>1</voice></note></measure><measure number="36"><forward><duration>1040</duration></forward><note><pitch><step>D</step><alter>1.0</alter><octave>2</octave></pitch><duration>480</duration><voice>1</voice></note></measure><measure number="37"><note><pitch><step>D</step><octave>2</octave></pitch><duration>360</duration><voice>1</voice></note><note><pitch><step>D</step><octave>2</octave></pitch><duration>360</duration><voice>1</voice></note></measure><measure number="38"><forward><duration>880</duration></forward><note><pitch><step>D</step><alter>1.0</alter><octave>2</octave></pitch><duration>360</duration><voice>1</voice></note><note><pitch><step>D</step><octave>2</octave></pitch><duration>360</duration><voice>1</voice></note><note><pitch><step>E</step><octave>3</octave></pitch><duration>360</duration><voice>1</voice></note><forward><duration>80</duration></forward><note><pitch><step>C</step><octave>2</octave></pitch><duration>400</duration><voice>1</voice></note></measure></part></score-partwise>