<?xml version='1.0' encoding='utf-8'?>
<score-partwise><part-list><score-part id="P1"><part-name>Piano</part-name></score-part></part-list><part id="P1"><measure number="1"><attributes><divisions>480</divisions><time><beats>4</beats><beat-type>4</beat-type></time><key><fifths>0</fifths></key><clef><sign>G</sign><line>2</line></clef></attributes></measure><measure number="2"><note><pitch><step>A</step><octave>3</octave></pitch><duration>400</duration><voice>1</voice></note></measure><measure number="3" /><measure number="4" /><measure number="5"><note><pitch><step>E</step><alter>-0.5</alter><octave>0</octave></pitch><duration>400</duration><voice>1</voice></note></measure><measure number="6" /><measure number="7"><note><pitch><step>F</step><octave>6</octave></pitch><duration>400</duration><voice>1</voice></note></measure><measure number="8"><forward><duration>40</duration></forward><note><pitch><step>F</step><alter>1.0</alter><octave>5</octave></pitch><duration>400</duration><voice>1</voice></note><note><pitch><step>C</step><alter>1.0</alter><octave>3</octave></pitch><duration>400</duration><voice>1</voice></note></measure><measure number="9"><note><pitch><step>C</step><alter>1.0</alter><octave>3</octave></pitch><duration>400</duration><voice>1</voice></note><note><pitch><step>B</step><octave>0</octave></pitch><duration>400</duration><voice>1</voice></note></measure><measure number="10"><forward><duration>1000</duration></forward><note><pitch><step>F</step><octave>6</octave></pitch><duration>400</duration><voice>1</voice></note></measure><measure number="11"><note><pitch><step>F</step><octave>6</octave></pitch><duration>400</duration><voice>1</voice></note><note><pitch><step>A</step><alter>1.0</alter><octave>1</octave></pitch><duration>400</duration><voice>1</voice></note><note><pitch><step>F</step><octave>6</octave></pitch><duration>400</duration><voice>1</voice></note><note><pitch><step>F</step><octave>6</octave></pitch><duration>400</duration><voice>1</voice></note></measure><measure number="12" /><measure number="13"><note><pitch><step>F</step><octave>6</octave></pitch><duration>400</duration><voice>1</voice></note></measure><measure number="14"><note><pitch><step>A</step><octave>2</octave></pitch><duration>400</duration><voice>1</voice></note></measure><measure number="15"><note><pitch><step>F</step><octave>6</octave></pitch><duration>400</duration><voice>1</voice></note><note><pitch><step>C</step><alter>1.0</alter><octave>3</octave></pitch><duration>400</duration><voice>1</voice></note></measure><measure number="16"><note><pitch><step>F</step><octave>6</octave></pitch><duration>400</duration><voice>1</voice></note></measure><measure number="17"><note><pitch><step>F</step><octave>6</octave></pitch><voice>1</voice><duration>1920</duration><voice>1</voice></note></measure><measure number="18" /><measure number="19" /><measure number="20"><note><pitch><step>F</step><octave>6</octave></pitch><duration>400</duration><voice>1</voice></note><note><pitch><step>D</step><alter>1.0</alter><octave>7</octave></pitch><duration>400</duration><voice>1</voice></note></measure><measure number="21"><forward><duration>600</duration></forward><note><pitch><step>E</step><octave>6</octave></pitch><duration>400</duration><voice>1</voice></note><note><pitch><step>F</step><octave>6</octave></pitch><duration>400</duration><voice>1</voice></note><note><pitch><step>F</step><octave>6</octave></pitch><duration>400</duration><voice>1</voice></note></measure><measure number="22"><note><pitch><step>C</step><octave>1</octave></pitch><duration>400</duration><voice>1</voice></note></measure><measure number="23" /><measure number="24"><note><pitch><step>F</step><octave>6</octave></pitch><duration>400</duration><voice>1</voice></note></measure><measure number="25"><note><pitch><step>F</step><octave>6</octave></pitch><duration>400</duration><voice>1</voice></note><note><pitch><step>F</step><octave>6</octave></pitch><duration>400</duration><voice>1</voice></note></measure><measure number="26"><note><pitch><step>F</step><octave>6</octave></pitch><duration>400</duration><voice>1</voice></note></measure><measure number="27" /><measure number="28"><note><pitch><step>B</step><octave>0</octave></pitch><duration>400</duration><voice>1</voice></note></measure><measure number="29"><note><pitch><step>E</step><octave>3</octave></pitch><voice>1</voice><duration>1920</duration><voice>1</voice></note></measure><measure number="30" /><measure number="31" /><measure number="32" /><measure number="33" /><measure number="34"><note><pitch><step>A</step><alter>1.0</alter><octave>2</octave></pitch><duration>400</duration><voice>1</voice></note><note><pitch><step>B</step><octave>0</octave></pitch><duration>400</duration><voice>1</voice></note></measure><measure number="35" /><measure number="36" /><measure number="37" /><measure number="38" /><measure number="39" /><measure number="40" /><measure number="41" /><measure number="42"><note><pitch><step>D</step><alter>1.0</alter><octave>7</octave></pitch><duration>400</duration><voice>1</voice></note><note><pitch><step>B</step><octave>6</octave></pitch><duration>400</duration><voice>1</voice></note><note><pitch><step>F</step><octave>6</octave></pitch><duration>400</duration><voice>1</voice></note></measure><measure number="43"><note><pitch><step>F</step><octave>6</octave></pitch><voice>1</voice><duration>1920</duration><voice>1</voice></note></measure><measure number="44" /><measure number="45" /><measure number="46" /><measure number="47" /><measure number="48" /><measure number="49"><forward><duration>240</duration></forward><note><pitch><step>F</step><octave>7</octave></pitch><duration>400</duration><voice>1</voice></note><note><pitch><step>F</step><octave>7</octave></pitch><duration>400</duration><voice>1</voice></note></measure><measure number="50" /><measure number="51" /><measure number="52" /><measure number="53"><forward><duration>1280</duration></forward><note><pitch><step>F</step><octave>7</octave></pitch><duration>400</duration><voice>1</voice></note></measure><measure number="54"><forward><duration>1160</duration></forward><note><pitch><step>F</step><octave>7</octave></pitch><duration>400</duration><voice>1</voice></note></measure><measure number="55"><forward><duration>1840</duration></forward><note><pitch><step>C</step><octave>1</octave></pitch><duration>80</duration><voice>1</voice></note></measure><measure number="56"><note><pitch><step>C</step><octave>1</octave></pitch><voice>1</voice><duration>320</duration><voice>1</voice></note><note><pitch><step>F</step><octave>6</octave></pitch><duration>400</duration><voice>1</voice></note></measure><measure number="57" /><measure number="58" /><measure number="59"><forward><duration>120</duration></forward><note><pitch><step>D</step><octave>3</octave></pitch><duration>1800</duration><voice>1</voice></note></measure><measure number="60"><note><pitch><step>D</step><octave>3</octave></pitch><voice>1</voice><duration>120</duration><voice>1</voice></note></measure><measure number="61"><note><pitch><step>F</step><octave>6</octave></pitch><duration>1920</duration><voice>1</voice></note></measure><measure number="62" /><measure number="63"><note><pitch><step>F</step><octave>6</octave></pitch><duration>1920</duration><voice>1</voice></note></measure><measure number="64"><note><pitch><step>F</step><octave>6</octave></pitch><voice>1</voice><duration>480</duration><voice>1</voice></note></measure><measure number="65" /><measure number="66"><forward><duration>760</duration></forward><note><pitch><step>F</step><octave>6</octave></pitch><duration>1160</duration><voice>1</voice></note></measure><measure number="67"><note><pitch><step>F</step><octave>6</octave></pitch><voice>1</voice><duration>1240</duration><voice>1</voice></note></measure><measure number="68"><note><pitch><step>E</step><octave>4</octave></pitch><duration>1920</duration><voice>1</voice></note></measure><measure number="69"><note><pitch><step>E</step><octave>4</octave></pitch><voice>1</voice><duration>1920</duration><voice>1</voice></note></measure><measure number="70"><forward><duration>600</duration></forward><note><pitch><step>F</step><octave>7</octave></pitch><duration>400</duration><voice>1</voice></note></measure><measure number="71"><note><pitch><step>F</step><octave>6</octave></pitch><duration>1920</duration><voice>1</voice></note></measure><measure number="72"><note><pitch><step>F</step><octave>6</octave></pitch><voice>1</voice><duration>1920</duration><voice>1</voice></note></measure><measure number="73" /><measure number="74" /><measure number="75" /><measure number="76" /><measure number="77" /><measure number="78" /><measure number="79"><forward><duration>840</duration></forward><note><pitch><step>F</step><octave>7</octave></pitch><duration>1080</duration><voice>1</voice></note></measure><measure number="80"><note><pitch><step>F</step><octave>7</octave></pitch><voice>1</voice><duration>1920</duration><voice>1</voice></note></measure><measure number="81"><note><pitch><step>F</step><octave>6</octave></pitch><duration>400</duration><voice>1</voice></note></measure><measure number="82" /><measure number="83"><note><pitch><step>F</step><octave>3</octave></pitch><duration>1920</duration><voice>1</voice></note></measure><measure number="84"><note><pitch><step>F</step><octave>3</octave></pitch><voice>1</voice><duration>1920</duration><voice>1</voice></note></measure><measure number="85"><note><pitch><step>F</step><octave>6</octave></pitch><voice>1</voice><duration>480</duration><voice>1</voice></note></measure><measure number="86"><note><pitch><step>F</step><octave>7</octave></pitch><duration>600</duration><voice>1</voice></note></measure><measure number="87" /><measure number="88"><forward><duration>1400</duration></forward><note><pitch><step>D</step><alter>1.0</alter><octave>7</octave></pitch><duration>520</duration><voice>1</voice></note></measure><measure number="89"><note><pitch><step>D</step><alter>1.0</alter><octave>7</octave></pitch><voice>1</voice><duration>1880</duration><voice>1</voice></note></measure><measure number="90" /><measure number="91" /><measure number="92" /><measure number="93" /><measure number="94" /><measure number="95" /><measure number="96"><forward><duration>760</duration></forward><note><pitch><step>G</step><octave>1</octave></pitch><duration>400</duration><voice>1</voice></note></measure><measure number="97"><note><pitch><step>F</step><octave>6</octave></pitch><voice>1</voice><duration>1920</duration><voice>1</voice></note></measure><measure number="98"><note><pitch><step>F</step><octave>6</octave></pitch><voice>1</voice><duration>480</duration><voice>1</voice></note></measure><measure number="99" /><measure number="100" /><measure number="101"><forward><duration>1560</duration></forward><note><pitch><step>F</step><octave>7</octave></pitch><duration>360</duration><voice>1</voice></note></measure><measure number="102"><note><pitch><step>F</step><octave>7</octave></pitch><voice>1</voice><duration>1920</duration><voice>1</voice></note></measure><measure number="103" /><measure number="104"><note><pitch><step>D</step><alter>1.0</alter><octave>7</octave></pitch><duration>1920</duration><voice>1</voice></note></measure><measure number="105"><note><pitch><step>D</step><alter>1.0</alter><octave>7</octave></pitch><voice>1</voice><duration>480</duration><voice>1</voice></note></measure><measure number="106" /><measure number="107" /><measure number="108"><forward><duration>880</duration></forward><note><pitch><step>F</step><octave>6</octave></pitch><duration>1040</duration><voice>1</voice></note></measure><measure number="109"><note><pitch><step>F</step><octave>6</octave></pitch><voice>1</voice><duration>1360</duration><voice>1</voice></note></measure><measure number="110"><note><pitch><step>D</step><alter>1.0</alter><octave>7</octave></pitch><duration>1920</duration><voice>1</voice></note></measure><measure number="111"><note><pitch><step>D</step><alter>1.0</alter><octave>7</octave></pitch><voice>1</voice><duration>480</duration><voice>1</voice></note></measure><measure number="112" /><measure number="113"><note><pitch><step>F</step><octave>6</octave></pitch><duration>400</duration><voice>1</voice></note></measure><measure number="114"><note><pitch><step>F</step><octave>6</octave></pitch><duration>1920</duration><voice>1</voice></note></measure><measure number="115"><note><pitch><step>F</step><octave>6</octave></pitch><voice>1</voice><voice>1</voice><duration>1920</duration><voice>1</voice></note></measure><measure number="116"><note><pitch><step>F</step><octave>6</octave></pitch><duration>400</duration><voice>1</voice></note></measure><measure number="117"><note><pitch><step>E</step><octave>3</octave></pitch><duration>1920</duration><voice>1</voice></note></measure><measure number="118"><note><pitch><step>E</step><octave>3</octave></pitch><voice>1</voice><voice>1</voice><duration>1920</duration><voice>1</voice></note></measure><measure number="119"><note><pitch><step>D</step><alter>1.0</alter><octave>7</octave></pitch><duration>400</duration><voice>1</voice></note></measure><measure number="120"><note><pitch><step>F</step><octave>6</octave></pitch><duration>1920</duration><voice>1</voice></note></measure><measure number="121"><note><pitch><step>F</step><octave>6</octave></pitch><voice>1</voice><voice>1</voice><duration>1440</duration><voice>1</voice></note></measure><measure number="122"><note><pitch><step>D</step><alter>1.0</alter><octave>4</octave></pitch><duration>400</duration><voice>1</voice></note></measure><measure number="123"><note><pitch><step>E</step><octave>4</octave></pitch><voice>1</voice><voice>1</voice><duration>960</duration><voice>1</voice></note></measure><measure number="124"><note><pitch><step>F</step><octave>6</octave></pitch><voice>1</voice><voice>1</voice><duration>1920</duration><voice>1</voice></note></measure><measure number="125"><note><pitch><step>F</step><octave>7</octave></pitch><voice>1</voice><voice>1</voice><duration>1920</duration><voice>1</voice></note></measure><measure number="126"><note><pitch><step>F</step><octave>3</octave></pitch><voice>1</voice><voice>1</voice><duration>960</duration><voice>1</voice></note></measure><measure number="127"><note><pitch><step>E</step><octave>7</octave></pitch><duration>400</duration><voice>1</voice></note></measure><measure number="128"><note><pitch><step>F</step><octave>6</octave></pitch><duration>1920</duration><voice>1</voice></note></measure><measure number="129"><note><pitch><step>F</step><octave>6</octave></pitch><duration>1160</duration><voice>1</voice></note></measure><measure number="130"><note><pitch><step>F</step><octave>6</octave></pitch><voice>1</voice><voice>1</voice><duration>1920</duration><voice>1</voice></note></measure><measure number="131"><note><pitch><step>F</step><octave>6</octave></pitch><duration>1920</duration><voice>1</voice></note></measure><measure number="132"><note><pitch><step>F</step><octave>7</octave></pitch><voice>1</voice><voice>1</voice><duration>120</duration><voice>1</voice></note></measure><measure number="133"><note><pitch><step>F</step><octave>6</octave></pitch><duration>400</duration><voice>1</voice></note></measure><measure number="134"><note><pitch><step>G</step><octave>7</octave></pitch><duration>400</duration><voice>1</voice></note></measure><measure number="135"><note><pitch><step>E</step><octave>3</octave></pitch><voice>1</voice><voice>1</voice><voice>1</voice><duration>1920</duration><voice>1</voice></note></measure><measure number="136"><note><pitch><step>F</step><octave>6</octave></pitch><voice>1</voice><voice>1</voice><voice>1</voice><duration>1440</duration><voice>1</voice></note></measure><measure number="137"><note><pitch><step>F</step><octave>7</octave></pitch><voice>1</voice><voice>1</voice><voice>1</voice><duration>1920</duration><voice>1</voice></note></measure><measure number="138"><note><pitch><step>F</step><octave>6</octave></pitch><voice>1</voice><voice>1</voice><voice>1</voice><duration>1920</duration><voice>1</voice></note></measure><measure number="139"><note><pitch><step>E</step><octave>3</octave></pitch><voice>1</voice><voice>1</voice><voice>1</voice><voice>1</voice><duration>960</duration><voice>1</voice></note></measure><measure number="140"><note><pitch><step>F</step><octave>7</octave></pitch><voice>1</voice><voice>1</voice><voice>1</voice><voice>1</voice><duration>360</duration><voice>1</voice></note></measure><measure number="141"><note><pitch><step>F</step><octave>6</octave></pitch><voice>1</voice><voice>1</voice><voice>1</voice><voice>1</voice><duration>1920</duration><voice>1</voice></note></measure><measure number="142"><note><pitch><step>F</step><octave>6</octave></pitch><voice>1</voice><voice>1</voice><voice>1</voice><voice>1</voice><voice>1</voice><duration>1920</duration><voice>1</voice></note></measure><measure number="143"><note><pitch><step>F</step><octave>6</octave></pitch><voice>1</voice><voice>1</voice><voice>1</voice><voice>1</voice><voice>1</voice><voice>1</voice><duration>1920</duration><voice>1</voice></note></measure><measure number="144"><note><pitch><step>F</step><octave>6</octave></pitch><voice>1</voice><voice>1</voice><voice>1</voice><voice>1</voice><voice>1</voice><voice>1</voice><voice>1</voice><duration>1920</duration><voice>1</voice></note></measure><measure number="145"><note><pitch><step>F</step><octave>6</octave></pitch><voice>1</voice><voice>1</voice><voice>1</voice><voice>1</voice><voice>1</voice><voice>1</voice><voice>1</voice><voice>1</voice><duration>1920</duration><voice>1</voice></note></measure><measure number="146"><note><pitch><step>F</step><octave>6</octave></pitch><voice>1</voice><voice>1</voice><voice>1</voice><voice>1</voice><voice>1</voice><voice>1</voice><voice>1</voice><voice>1</voice><voice>1</voice><duration>1920</duration><voice>1</voice></note></measure><measure number="147"><note><pitch><step>F</step><octave>6</octave></pitch><voice>1</voice><voice>1</voice><voice>1</voice><voice>1</voice><voice>1</voice><voice>1</voice><voice>1</voice><voice>1</voice><voice>1</voice><voice>1</voice><duration>1920</duration><voice>1</voice></note></measure><measure number="148"><note><pitch><step>F</step><octave>6</octave></pitch><voice>1</voice><voice>1</voice><voice>1</voice><voice>1</voice><voice>1</voice><voice>1</voice><voice>1</voice><voice>1</voice><voice>1</voice><voice>1</voice><voice>1</voice><duration>1920</duration><voice>1</voice></note></measure><measure number="149"><note><pitch><step>F</step><octave>6</octave></pitch><voice>1</voice><voice>1</voice><voice>1</voice><voice>1</voice><voice>1</voice><voice>1</voice><voice>1</voice><voice>1</voice><voice>1</voice><voice>1</voice><voice>1</voice><voice>1</voice><duration>1720</duration><voice>1</voice></note></measure></part></score-partwise>