<?xml version='1.0' encoding='utf-8'?>
<score-partwise><part-list><score-part id="P1"><part-name>Piano</part-name></score-part></part-list><part id="P1"><measure number="1"><attributes><divisions>480</divisions><time><beats>4</beats><beat-type>4</beat-type></time><key><fifths>0</fifths></key><clef><sign>G</sign><line>2</line></clef></attributes></measure><measure number="188"><forward><duration>880</duration></forward><note><pitch><step>B</step><octave>3</octave></pitch><duration>400</duration><voice>1</voice></note></measure><measure number="310" /><measure number="188"><forward><duration>880</duration></forward><note><pitch><step>G</step><alter>1.0</alter><octave>4</octave></pitch><duration>440</duration><voice>1</voice></note><note><pitch><step>F</step><octave>5</octave></pitch><duration>440</duration><voice>1</voice></note><note><pitch><step>G</step><alter>1.0</alter><octave>4</octave></pitch><duration>440</duration><voice>1</voice></note><note><pitch><step>F</step><octave>5</octave></pitch><duration>440</duration><voice>1</voice></note><note><pitch><step>F</step><octave>5</octave></pitch><duration>440</duration><voice>1</voice></note><note><pitch><step>F</step><octave>5</octave></pitch><duration>440</duration><voice>1</voice></note></measure><measure number="188"><note><pitch><step>B</step><octave>2</octave></pitch><duration>440</duration><voice>1</voice></note><forward><duration>440</duration></forward><note><pitch><step>B</step><octave>2</octave></pitch><duration>440</duration><voice>1</voice></note></measure><measure number="188"><forward><duration>880</duration></forward><note><pitch><step>G</step><alter>1.0</alter><octave>4</octave></pitch><duration>440</duration><voice>1</voice></note><note><pitch><step>G</step><alter>1.0</alter><octave>4</octave></pitch><duration>440</duration><voice>1</voice></note><note><pitch><step>B</step><octave>2</octave></pitch><duration>440</duration><voice>1</voice></note></measure><measure number="72"><forward><duration>880</duration></forward><note><pitch><step>B</step><octave>2</octave></pitch><duration>440</duration><voice>1</voice></note><note><pitch><step>F</step><octave>5</octave></pitch><duration>440</duration><voice>1</voice></note><note><pitch><step>F</step><octave>5</octave></pitch><duration>440</duration><voice>1</voice></note><note><pitch><step>F</step><octave>5</octave></pitch><duration>440</duration><voice>1</voice></note><note><pitch><step>D</step><octave>4</octave></pitch><duration>440</duration><voice>1</voice></note><note><pitch><step>B</step><octave>2</octave></pitch><duration>440</duration><voice>1</voice></note></measure><measure number="192"><forward><duration>880</duration></forward><note><pitch><step>F</step><octave>5</octave></pitch><duration>440</duration><voice>1</voice></note><note><pitch><step>G</step><octave>3</octave></pitch><duration>440</duration><voice>1</voice></note><note><pitch><step>F</step><octave>5</octave></pitch><duration>440</duration><voice>1</voice></note></measure><measure number="188"><forward><duration>880</duration></forward><note><pitch><step>F</step><octave>5</octave></pitch><duration>440</duration><voice>1</voice></note></measure><measure number="188"><forward><duration>880</duration></forward><note><pitch><step>F</step><octave>5</octave></pitch><duration>440</duration><voice>1</voice></note><note><pitch><step>D</step><octave>4</octave></pitch><duration>440</duration><voice>1</voice></note><note><pitch><step>D</step><octave>4</octave></pitch><duration>440</duration><voice>1</voice></note><note><pitch><step>B</step><octave>2</octave></pitch><duration>360</duration><voice>1</voice></note><note><pitch><step>F</step><octave>5</octave></pitch><duration>440</duration><voice>1</voice></note><note><pitch><step>D</step><octave>4</octave></pitch><duration>440</duration><voice>1</voice></note><note><pitch><step>F</step><octave>5</octave></pitch><duration>440</duration><voice>1</voice></note></measure><measure number="30"><forward><duration>880</duration></forward><note><pitch><step>F</step><octave>5</octave></pitch><duration>440</duration><voice>1</voice></note><note><pitch><step>D</step><octave>4</octave></pitch><duration>440</duration><voice>1</voice></note></measure><measure number="188"><forward><duration>880</duration></forward><note><pitch><step>F</step><octave>5</octave></pitch><duration>440</duration><voice>1</voice></note></measure><measure number="188" /><measure number="40"><forward><duration>240</duration></forward><note><pitch><step>F</step><octave>5</octave></pitch><duration>440</duration><voice>1</voice></note><note><pitch><step>D</step><octave>4</octave></pitch><duration>440</duration><voice>1</voice></note><note><pitch><step>D</step><octave>4</octave></pitch><duration>440</duration><voice>1</voice></note><forward><duration>200</duration></forward><note><pitch><step>F</step><octave>5</octave></pitch><duration>440</duration><voice>1</voice></note></measure><measure number="30"><forward><duration>880</duration></forward><note><pitch><step>F</step><octave>5</octave></pitch><duration>440</duration><voice>1</voice></note></measure><measure number="41"><forward><duration>360</duration></forward><note><pitch><step>B</step><octave>2</octave></pitch><duration>440</duration><voice>1</voice></note></measure><measure number="188"><note><pitch><step>B</step><octave>5</octave></pitch><duration>440</duration><voice>1</voice></note><forward><duration>440</duration></forward><note><pitch><step>F</step><octave>5</octave></pitch><duration>440</duration><voice>1</voice></note><note><pitch><step>G</step><octave>3</octave></pitch><duration>440</duration><voice>1</voice></note></measure><measure number="188"><forward><duration>880</duration></forward><note><pitch><step>B</step><octave>2</octave></pitch><duration>440</duration><voice>1</voice></note><note><pitch><step>D</step><octave>4</octave></pitch><duration>440</duration><voice>1</voice></note></measure><measure number="188"><forward><duration>880</duration></forward><note><pitch><step>F</step><octave>5</octave></pitch><duration>440</duration><voice>1</voice></note></measure><measure number="188"><forward><duration>880</duration></forward><note><pitch><step>F</step><octave>5</octave></pitch><duration>440</duration><voice>1</voice></note><note><pitch><step>F</step><octave>5</octave></pitch><duration>320</duration><voice>1</voice></note></measure><measure number="197"><forward><duration>880</duration></forward><note><pitch><step>F</step><octave>5</octave></pitch><duration>440</duration><voice>1</voice></note></measure><measure number="30"><forward><duration>880</duration></forward><note><pitch><step>F</step><octave>5</octave></pitch><duration>440</duration><voice>1</voice></note><note><pitch><step>F</step><octave>5</octave></pitch><duration>440</duration><voice>1</voice></note></measure><measure number="198"><forward><duration>880</duration></forward><note><pitch><step>F</step><octave>5</octave></pitch><duration>440</duration><voice>1</voice></note></measure><measure number="179" /></part></score-partwise>