<?xml version='1.0' encoding='utf-8'?>
<score-partwise><part-list><score-part id="P1"><part-name>Piano</part-name></score-part></part-list><part id="P1"><measure number="1"><attributes><divisions>480</divisions><time><beats>4</beats><beat-type>4</beat-type></time><key><fifths>0</fifths></key><clef><sign>G</sign><line>2</line></clef></attributes><note><pitch><step>G</step><octave>2</octave></pitch><duration>400</duration><voice>1</voice></note></measure><measure number="2"><forward><duration>840</duration></forward><note><pitch><step>C</step><octave>4</octave></pitch><duration>400</duration><voice>1</voice></note><note><pitch><step>G</step><octave>1</octave></pitch><duration>400</duration><voice>1</voice></note><note><pitch><step>B</step><octave>3</octave></pitch><duration>400</duration><voice>1</voice></note><note><pitch><step>G</step><octave>2</octave></pitch><duration>400</duration><voice>1</voice></note><note><pitch><step>C</step><octave>4</octave></pitch><duration>400</duration><voice>1</voice></note><note><pitch><step>G</step><octave>1</octave></pitch><duration>400</duration><voice>1</voice></note><note><pitch><step>C</step><octave>4</octave></pitch><duration>400</duration><voice>1</voice></note><note><pitch><step>C</step><octave>4</octave></pitch><duration>400</duration><voice>1</voice></note></measure><measure number="3" /><measure number="4"><note><pitch><step>C</step><octave>4</octave></pitch><duration>360</duration><voice>1</voice></note></measure><measure number="5"><note><pitch><step>G</step><octave>2</octave></pitch><duration>360</duration><voice>1</voice></note></measure><measure number="6"><note><pitch><step>E</step><octave>6</octave></pitch><duration>360</duration><voice>1</voice></note></measure><measure number="7"><forward><duration>520</duration></forward><note><pitch><step>F</step><octave>4</octave></pitch><duration>360</duration><voice>1</voice></note><note><pitch><step>C</step><octave>4</octave></pitch><duration>360</duration><voice>1</voice></note></measure><measure number="8" /><measure number="9"><note><pitch><step>C</step><octave>4</octave></pitch><duration>360</duration><voice>1</voice></note><forward><duration>600</duration></forward><note><pitch><step>G</step><octave>2</octave></pitch><duration>360</duration><voice>1</voice></note><note><pitch><step>C</step><octave>4</octave></pitch><duration>2400</duration><voice>1</voice></note></measure><measure number="10"><note><pitch><step>C</step><octave>4</octave></pitch><duration>2400</duration><voice>1</voice></note></measure><measure number="11"><forward><duration>1840</duration></forward><note><pitch><step>C</step><octave>4</octave></pitch><duration>2400</duration><voice>1</voice></note></measure><measure number="12" /><measure number="13"><forward><duration>520</duration></forward><note><pitch><step>C</step><octave>4</octave></pitch><duration>2400</duration><voice>1</voice></note><note><pitch><step>F</step><octave>4</octave></pitch><duration>360</duration><voice>1</voice></note></measure><measure number="14"><forward><duration>840</duration></forward><note><pitch><step>G</step><octave>2</octave></pitch><duration>2400</duration><voice>1</voice></note></measure><measure number="15" /><measure number="16" /><measure number="17"><forward><duration>840</duration></forward><note><pitch><step>C</step><octave>1</octave></pitch><duration>2400</duration><voice>1</voice></note></measure><measure number="18"><forward><duration>840</duration></forward><note><pitch><step>E</step><octave>6</octave></pitch><duration>2400</duration><voice>1</voice></note></measure><measure number="19" /><measure number="20"><forward><duration>880</duration></forward><note><pitch><step>G</step><octave>6</octave></pitch><duration>160</duration><voice>1</voice></note></measure><measure number="21"><forward><duration>840</duration></forward><note><pitch><step>E</step><octave>6</octave></pitch><duration>2400</duration><voice>1</voice></note></measure><measure number="22" /><measure number="23" /><measure number="24" /><measure number="25" /><measure number="26"><note><pitch><step>E</step><octave>6</octave></pitch><duration>2400</duration><voice>1</voice></note></measure><measure number="27"><forward><duration>880</duration></forward><note><pitch><step>G</step><octave>6</octave></pitch><duration>2400</duration><voice>1</voice></note></measure><measure number="28"><forward><duration>840</duration></forward><note><pitch><step>G</step><octave>2</octave></pitch><duration>360</duration><voice>1</voice></note></measure><measure number="29"><forward><duration>840</duration></forward><note><pitch><step>G</step><octave>1</octave></pitch><duration>2400</duration><voice>1</voice></note></measure><measure number="30"><forward><duration>840</duration></forward><note><pitch><step>C</step><octave>1</octave></pitch><duration>2400</duration><voice>1</voice></note></measure><measure number="31"><note><pitch><step>A</step><octave>2</octave></pitch><duration>2400</duration><voice>1</voice></note></measure><measure number="32" /><measure number="33"><forward><duration>840</duration></forward><note><pitch><step>G</step><octave>1</octave></pitch><duration>2400</duration><voice>1</voice></note></measure><measure number="34"><forward><duration>1360</duration></forward><note><pitch><step>G</step><octave>1</octave></pitch><duration>2400</duration><voice>1</voice></note></measure><measure number="35"><forward><duration>840</duration></forward><note><pitch><step>G</step><octave>1</octave></pitch><duration>2400</duration><voice>1</voice></note></measure><measure number="36"><forward><duration>840</duration></forward><note><pitch><step>G</step><octave>1</octave></pitch><duration>2400</duration><voice>1</voice></note><note><pitch><step>G</step><octave>6</octave></pitch><duration>2400</duration><voice>1</voice></note></measure><measure number="37"><forward><duration>1680</duration></forward><note><pitch><step>G</step><octave>2</octave></pitch><duration>2400</duration><voice>1</voice></note></measure><measure number="38"><forward><duration>840</duration></forward><note><pitch><step>G</step><octave>6</octave></pitch><duration>160</duration><voice>1</voice></note><note><pitch><step>G</step><octave>2</octave></pitch><duration>2400</duration><voice>1</voice></note></measure><measure number="39"><forward><duration>640</duration></forward><note><pitch><step>G</step><octave>1</octave></pitch><duration>2400</duration><voice>1</voice></note></measure><measure number="40" /><measure number="41"><forward><duration>880</duration></forward><note><pitch><step>G</step><octave>2</octave></pitch><duration>2400</duration><voice>1</voice></note></measure><measure number="42" /><measure number="43"><forward><duration>840</duration></forward><note><pitch><step>G</step><octave>1</octave></pitch><duration>2400</duration><voice>1</voice></note></measure><measure number="44" /><measure number="45"><forward><duration>880</duration></forward><note><pitch><step>G</step><octave>1</octave></pitch><duration>2400</duration><voice>1</voice></note></measure><measure number="46"><forward><duration>560</duration></forward><note><pitch><step>G</step><octave>6</octave></pitch><duration>2400</duration><voice>1</voice></note></measure><measure number="47"><forward><duration>600</duration></forward><note><pitch><step>G</step><octave>1</octave></pitch><duration>2400</duration><voice>1</voice></note></measure><measure number="48" /><measure number="49"><forward><duration>1320</duration></forward><note><pitch><step>G</step><octave>7</octave></pitch><duration>400</duration><voice>1</voice></note></measure><measure number="50"><forward><duration>840</duration></forward><note><pitch><step>G</step><octave>2</octave></pitch><duration>2400</duration><voice>1</voice></note></measure><measure number="51"><forward><duration>1240</duration></forward><note><pitch><step>G</step><octave>1</octave></pitch><duration>2400</duration><voice>1</voice></note></measure></part></score-partwise>