<?xml version='1.0' encoding='utf-8'?>
<score-partwise><part-list><score-part id="P1"><part-name>Piano</part-name></score-part></part-list><part id="P1"><measure number="1"><attributes><divisions>480</divisions><time><beats>4</beats><beat-type>4</beat-type></time><key><fifths>0</fifths></key><clef><sign>G</sign><line>2</line></clef></attributes></measure><measure number="397" /><measure number="195"><forward><duration>1440</duration></forward><note><pitch><step>A</step><octave>1</octave></pitch><duration>40</duration><voice>1</voice></note><note><pitch><step>C</step><octave>6</octave></pitch><duration>400</duration><voice>1</voice></note><note><pitch><step>F</step><alter>1.0</alter><octave>3</octave></pitch><duration>400</duration><voice>1</voice></note></measure><measure number="107" /><measure number="490"><note><pitch><step>C</step><octave>2</octave></pitch><duration>400</duration><voice>1</voice></note></measure><measure number="46" /><measure number="35"><note><pitch><step>F</step><alter>1.0</alter><octave>3</octave></pitch><duration>3840</duration><voice>1</voice></note></measure><measure number="276" /><measure number="331" /><measure number="108" /><measure number="107" /><measure number="107" /><measure number="11" /><measure number="104"><forward><duration>640</duration></forward><note><pitch><step>F</step><octave>6</octave></pitch><duration>400</duration><voice>1</voice></note><note><pitch><step>A</step><octave>1</octave></pitch><duration>400</duration><voice>1</voice></note></measure><measure number="104"><note><pitch><step>B</step><octave>5</octave></pitch><duration>400</duration><voice>1</voice></note></measure><measure number="107" /><measure number="150" /><measure number="107" /><measure number="104"><note><pitch><step>F</step><octave>6</octave></pitch><duration>400</duration><voice>1</voice></note></measure><measure number="104"><note><pitch><step>C</step><octave>3</octave></pitch><duration>400</duration><voice>1</voice></note><note><pitch><step>F</step><alter>1.0</alter><octave>3</octave></pitch><duration>400</duration><voice>1</voice></note><forward><duration>600</duration></forward><note><pitch><step>A</step><octave>1</octave></pitch><duration>400</duration><voice>1</voice></note><note><pitch><step>D</step><alter>1.0</alter><octave>6</octave></pitch><duration>400</duration><voice>1</voice></note></measure><measure number="104" /><measure number="483" /><measure number="164" /><measure number="146" /><measure number="483"><note><pitch><step>D</step><alter>1.0</alter><octave>6</octave></pitch><duration>400</duration><voice>1</voice></note></measure><measure number="123"><note><pitch><step>F</step><octave>6</octave></pitch><duration>400</duration><voice>1</voice></note><note><pitch><step>C</step><octave>2</octave></pitch><duration>400</duration><voice>1</voice></note></measure><measure number="154"><note><pitch><step>F</step><octave>1</octave></pitch><duration>5280</duration><voice>1</voice></note><note><pitch><step>F</step><octave>7</octave></pitch><duration>400</duration><voice>1</voice></note></measure><measure number="435" /><measure number="309" /><measure number="395" /><measure number="106" /><measure number="107"><forward><duration>600</duration></forward><note><pitch><step>F</step><octave>6</octave></pitch><duration>1200</duration><voice>1</voice></note><note><pitch><step>A</step><octave>3</octave></pitch><duration>20160</duration><voice>1</voice></note><note><pitch><step>D</step><alter>1.0</alter><octave>2</octave></pitch><duration>400</duration><voice>1</voice></note><note><pitch><step>A</step><alter>1.0</alter><octave>6</octave></pitch><duration>400</duration><voice>1</voice></note></measure><measure number="124"><note><pitch><step>D</step><alter>1.0</alter><octave>6</octave></pitch><duration>400</duration><voice>1</voice></note></measure><measure number="346" /><measure number="264" /><measure number="101"><note><pitch><step>A</step><alter>1.0</alter><octave>1</octave></pitch><duration>400</duration><voice>1</voice></note><note><pitch><step>G</step><alter>1.0</alter><octave>1</octave></pitch><duration>20160</duration><voice>1</voice></note></measure><measure number="104" /><measure number="105"><note><pitch><step>D</step><alter>1.0</alter><octave>6</octave></pitch><duration>400</duration><voice>1</voice></note></measure><measure number="110" /><measure number="116" /><measure number="107"><note><pitch><step>F</step><octave>6</octave></pitch><duration>400</duration><voice>1</voice></note></measure><measure number="104" /><measure number="107" /><measure number="379" /><measure number="101" /><measure number="409" /><measure number="100"><note><pitch><step>F</step><octave>6</octave></pitch><duration>400</duration><voice>1</voice></note></measure><measure number="490" /><measure number="104"><forward><duration>600</duration></forward><note><pitch><step>A</step><octave>1</octave></pitch><duration>400</duration><voice>1</voice></note></measure><measure number="130" /><measure number="104" /><measure number="104" /><measure number="104" /><measure number="110" /><measure number="107" /><measure number="104" /><measure number="100"><forward><duration>1800</duration></forward><note><pitch><step>D</step><alter>1.0</alter><octave>6</octave></pitch><duration>400</duration><voice>1</voice></note></measure><measure number="351" /><measure number="119" /><measure number="108" /><measure number="106" /><measure number="110" /><measure number="346" /><measure number="104" /><measure number="104" /><measure number="104" /><measure number="280"><forward><duration>1000</duration></forward><note><pitch><step>D</step><alter>1.0</alter><octave>6</octave></pitch><duration>400</duration><voice>1</voice></note></measure><measure number="268" /><measure number="104"><note><pitch><step>F</step><octave>7</octave></pitch><duration>400</duration><voice>1</voice></note><note><pitch><step>C</step><octave>4</octave></pitch><duration>400</duration><voice>1</voice></note></measure><measure number="107" /><measure number="104" /><measure number="64" /><measure number="110"><note><pitch><step>D</step><alter>1.0</alter><octave>6</octave></pitch><duration>400</duration><voice>1</voice></note></measure><measure number="104" /><measure number="116" /><measure number="104" /><measure number="104" /><measure number="112"><note><pitch><step>D</step><alter>1.0</alter><octave>6</octave></pitch><duration>400</duration><voice>1</voice></note></measure><measure number="436" /><measure number="104" /><measure number="346" /><measure number="104" /><measure number="107" /><measure number="104" /><measure number="411" /><measure number="106" /><measure number="110" /><measure number="107" /><measure number="106" /><measure number="114" /><measure number="397" /><measure number="104" /><measure number="106" /><measure number="107"><note><pitch><step>D</step><alter>1.0</alter><octave>7</octave></pitch><duration>1920</duration><voice>1</voice></note></measure><measure number="107" /><measure number="104"><note><pitch><step>D</step><alter>1.0</alter><octave>7</octave></pitch><duration>400</duration><voice>1</voice></note></measure><measure number="112" /><measure number="351"><note><pitch><step>D</step><alter>1.0</alter><octave>6</octave></pitch><duration>400</duration><voice>1</voice></note><forward><duration>960</duration></forward><note><pitch><step>D</step><alter>1.0</alter><octave>6</octave></pitch><duration>400</duration><voice>1</voice></note><note><pitch><step>A</step><octave>1</octave></pitch><duration>400</duration><voice>1</voice></note></measure><measure number="225"><note><pitch><step>D</step><alter>1.0</alter><octave>6</octave></pitch><duration>400</duration><voice>1</voice></note></measure><measure number="132" /><measure number="110" /><measure number="410" /><measure number="104" /><measure number="435"><forward><duration>1000</duration></forward><note><pitch><step>F</step><alter>1.0</alter><octave>6</octave></pitch><duration>400</duration><voice>1</voice></note></measure><measure number="104" /><measure number="431"><note><pitch><step>G</step><octave>6</octave></pitch><duration>680</duration><voice>1</voice></note></measure><measure number="310" /><measure number="104" /><measure number="104" /><measure number="106" /><measure number="109" /><measure number="107" /><measure number="116"><note><pitch><step>F</step><alter>0.5</alter><octave>2</octave></pitch><duration>400</duration><voice>1</voice></note></measure><measure number="393"><note><pitch><step>F</step><octave>3</octave></pitch><duration>400</duration><voice>1</voice></note></measure><measure number="100" /><measure number="488" /><measure number="392"><note><pitch><step>E</step><octave>6</octave></pitch><duration>400</duration><voice>1</voice></note></measure><measure number="110"><note><pitch><step>G</step><alter>1.0</alter><octave>3</octave></pitch><duration>400</duration><voice>1</voice></note></measure><measure number="343" /><measure number="110"><forward><duration>1360</duration></forward><note><pitch><step>D</step><alter>1.0</alter><octave>6</octave></pitch><duration>400</duration><voice>1</voice></note><note><pitch><step>F</step><alter>1.0</alter><octave>1</octave></pitch><duration>24000</duration><voice>1</voice></note></measure><measure number="35"><note><pitch><step>G</step><octave>6</octave></pitch><duration>400</duration><voice>1</voice></note></measure><measure number="393" /><measure number="110" /><measure number="104" /><measure number="125" /><measure number="116" /><measure number="104" /><measure number="110"><note><pitch><step>F</step><octave>3</octave></pitch><duration>400</duration><voice>1</voice></note></measure><measure number="104" /><measure number="107" /><measure number="436" /><measure number="396" /><measure number="399" /><measure number="352" /><measure number="107"><forward><duration>1000</duration></forward><note><pitch><step>B</step><octave>6</octave></pitch><duration>400</duration><voice>1</voice></note></measure><measure number="110" /><measure number="107"><note><pitch><step>D</step><alter>1.0</alter><octave>6</octave></pitch><duration>400</duration><voice>1</voice></note></measure><measure number="107" /><measure number="110" /><measure number="393" /><measure number="484" /><measure number="114" /><measure number="104" /><measure number="104" /><measure number="104" /><measure number="112" /><measure number="107" /><measure number="115" /><measure number="276" /><measure number="397" /><measure number="104" /><measure number="110" /><measure number="110" /><measure number="394" /><measure number="345" /><measure number="470" /><measure number="104" /><measure number="102" /><measure number="104"><note><pitch><step>D</step><alter>1.0</alter><octave>4</octave></pitch><duration>400</duration><voice>1</voice></note></measure><measure number="304" /><measure number="110" /><measure number="238" /><measure number="104" /><measure number="104" /><measure number="112" /><measure number="107" /><measure number="121" /><measure number="104" /></part></score-partwise>