<?xml version='1.0' encoding='utf-8'?>
<score-partwise><part-list><score-part id="P1"><part-name>Piano</part-name></score-part></part-list><part id="P1"><measure number="1"><attributes><divisions>480</divisions><time><beats>4</beats><beat-type>4</beat-type></time><key><fifths>0</fifths></key><clef><sign>G</sign><line>2</line></clef></attributes><note><pitch><step>G</step><octave>3</octave></pitch><duration>360</duration><voice>1</voice></note></measure><measure number="2"><forward><duration>1360</duration></forward><note><pitch><step>G</step><octave>3</octave></pitch><duration>360</duration><voice>1</voice></note></measure><measure number="3" /><measure number="4" /><measure number="5" /><measure number="6" /><measure number="7" /><measure number="8" /><measure number="9"><forward><duration>1560</duration></forward><note><pitch><step>B</step><octave>5</octave></pitch><duration>360</duration><voice>1</voice></note></measure><measure number="10"><forward><duration>1840</duration></forward><note><pitch><step>E</step><octave>5</octave></pitch><duration>80</duration><voice>1</voice></note></measure><measure number="11"><note><pitch><step>E</step><octave>5</octave></pitch><voice>1</voice><duration>280</duration><voice>1</voice></note></measure><measure number="12"><forward><duration>1840</duration></forward><note><pitch><step>E</step><octave>5</octave></pitch><duration>80</duration><voice>1</voice></note></measure><measure number="13"><note><pitch><step>E</step><octave>5</octave></pitch><voice>1</voice><duration>280</duration><voice>1</voice></note></measure><measure number="14"><forward><duration>1840</duration></forward><note><pitch><step>G</step><octave>3</octave></pitch><duration>80</duration><voice>1</voice></note></measure><measure number="15"><note><pitch><step>G</step><octave>3</octave></pitch><voice>1</voice><duration>280</duration><voice>1</voice></note></measure><measure number="16" /><measure number="17" /><measure number="18" /><measure number="19"><forward><duration>1840</duration></forward><note><pitch><step>G</step><octave>3</octave></pitch><duration>80</duration><voice>1</voice></note></measure><measure number="20"><note><pitch><step>G</step><octave>3</octave></pitch><voice>1</voice><duration>280</duration><voice>1</voice></note></measure><measure number="21"><forward><duration>1840</duration></forward><note><pitch><step>G</step><octave>3</octave></pitch><duration>80</duration><voice>1</voice></note></measure><measure number="22"><note><pitch><step>G</step><octave>3</octave></pitch><voice>1</voice><duration>280</duration><voice>1</voice></note></measure><measure number="23"><note><pitch><step>B</step><octave>5</octave></pitch><duration>360</duration><voice>1</voice></note><forward><duration>1480</duration></forward><note><pitch><step>B</step><octave>5</octave></pitch><duration>80</duration><voice>1</voice></note></measure><measure number="24"><note><pitch><step>B</step><octave>5</octave></pitch><voice>1</voice><duration>280</duration><voice>1</voice></note><forward><duration>960</duration></forward><note><pitch><step>E</step><octave>5</octave></pitch><duration>360</duration><voice>1</voice></note><forward><duration>240</duration></forward><note><pitch><step>A</step><octave>4</octave></pitch><duration>80</duration><voice>1</voice></note></measure><measure number="25"><note><pitch><step>A</step><octave>4</octave></pitch><voice>1</voice><duration>280</duration><voice>1</voice></note></measure><measure number="26"><forward><duration>1840</duration></forward><note><pitch><step>B</step><octave>5</octave></pitch><duration>80</duration><voice>1</voice></note></measure><measure number="27"><note><pitch><step>B</step><octave>5</octave></pitch><voice>1</voice><duration>280</duration><voice>1</voice></note><forward><duration>1560</duration></forward><note><pitch><step>C</step><octave>6</octave></pitch><duration>80</duration><voice>1</voice></note></measure><measure number="28"><note><pitch><step>C</step><octave>6</octave></pitch><voice>1</voice><duration>280</duration><voice>1</voice></note></measure><measure number="29" /><measure number="30" /><measure number="31"><note><pitch><step>E</step><octave>3</octave></pitch><duration>360</duration><voice>1</voice></note><forward><duration>1480</duration></forward><note><pitch><step>G</step><octave>3</octave></pitch><duration>80</duration><voice>1</voice></note></measure><measure number="32"><note><pitch><step>G</step><octave>3</octave></pitch><voice>1</voice><duration>280</duration><voice>1</voice></note></measure><measure number="33" /><measure number="34" /><measure number="35"><forward><duration>1840</duration></forward><note><pitch><step>B</step><octave>5</octave></pitch><duration>80</duration><voice>1</voice></note></measure><measure number="36"><note><pitch><step>B</step><octave>5</octave></pitch><voice>1</voice><duration>120</duration><voice>1</voice></note><forward><duration>1720</duration></forward><note><pitch><step>E</step><octave>5</octave></pitch><duration>80</duration><voice>1</voice></note></measure><measure number="37"><note><pitch><step>E</step><octave>5</octave></pitch><voice>1</voice><duration>280</duration><voice>1</voice></note><note><pitch><step>D</step><octave>2</octave></pitch><duration>360</duration><voice>1</voice></note></measure><measure number="38" /><measure number="39"><forward><duration>1840</duration></forward><note><pitch><step>E</step><octave>5</octave></pitch><duration>80</duration><voice>1</voice></note></measure><measure number="40"><note><pitch><step>E</step><octave>5</octave></pitch><voice>1</voice><duration>280</duration><voice>1</voice></note></measure><measure number="41" /><measure number="42" /><measure number="43" /><measure number="44"><forward><duration>1840</duration></forward><note><pitch><step>B</step><octave>5</octave></pitch><duration>80</duration><voice>1</voice></note></measure><measure number="45"><note><pitch><step>B</step><octave>5</octave></pitch><voice>1</voice><duration>320</duration><voice>1</voice></note><note><pitch><step>G</step><alter>1.0</alter><octave>3</octave></pitch><duration>360</duration><voice>1</voice></note></measure><measure number="46"><forward><duration>1840</duration></forward><note><pitch><step>B</step><octave>5</octave></pitch><duration>80</duration><voice>1</voice></note></measure><measure number="47"><note><pitch><step>B</step><octave>5</octave></pitch><voice>1</voice><duration>280</duration><voice>1</voice></note><forward><duration>1560</duration></forward><note><pitch><step>E</step><octave>4</octave></pitch><duration>80</duration><voice>1</voice></note></measure><measure number="48"><note><pitch><step>E</step><octave>4</octave></pitch><voice>1</voice><duration>280</duration><voice>1</voice></note></measure><measure number="49" /><measure number="50" /><measure number="51" /><measure number="52"><forward><duration>1840</duration></forward><note><pitch><step>E</step><octave>2</octave></pitch><duration>80</duration><voice>1</voice></note></measure><measure number="53"><note><pitch><step>E</step><octave>2</octave></pitch><voice>1</voice><duration>320</duration><voice>1</voice></note><note><pitch><step>B</step><octave>5</octave></pitch><duration>360</duration><voice>1</voice></note></measure><measure number="54" /><measure number="55" /><measure number="56"><forward><duration>1840</duration></forward><note><pitch><step>B</step><octave>5</octave></pitch><duration>80</duration><voice>1</voice></note></measure><measure number="57"><note><pitch><step>B</step><octave>5</octave></pitch><voice>1</voice><duration>280</duration><voice>1</voice></note></measure><measure number="58"><forward><duration>880</duration></forward><note><pitch><step>B</step><octave>5</octave></pitch><duration>400</duration><voice>1</voice></note><note><pitch><step>E</step><octave>4</octave></pitch><duration>360</duration><voice>1</voice></note></measure><measure number="59"><forward><duration>1840</duration></forward><note><pitch><step>B</step><octave>5</octave></pitch><duration>80</duration><voice>1</voice></note></measure><measure number="60"><note><pitch><step>B</step><octave>5</octave></pitch><voice>1</voice><duration>280</duration><voice>1</voice></note><forward><duration>1560</duration></forward><note><pitch><step>B</step><octave>5</octave></pitch><duration>80</duration><voice>1</voice></note></measure><measure number="61"><note><pitch><step>B</step><octave>5</octave></pitch><voice>1</voice><duration>280</duration><voice>1</voice></note><forward><duration>1560</duration></forward><note><pitch><step>B</step><octave>5</octave></pitch><duration>80</duration><voice>1</voice></note></measure><measure number="62"><note><pitch><step>B</step><octave>5</octave></pitch><voice>1</voice><duration>280</duration><voice>1</voice></note><forward><duration>1560</duration></forward><note><pitch><step>B</step><octave>5</octave></pitch><duration>80</duration><voice>1</voice></note></measure><measure number="63"><note><pitch><step>B</step><octave>5</octave></pitch><voice>1</voice><duration>280</duration><voice>1</voice></note></measure><measure number="64"><forward><duration>1840</duration></forward><note><pitch><step>B</step><octave>5</octave></pitch><duration>80</duration><voice>1</voice></note></measure><measure number="65"><note><pitch><step>B</step><octave>5</octave></pitch><voice>1</voice><duration>320</duration><voice>1</voice></note><note><pitch><step>B</step><octave>5</octave></pitch><duration>360</duration><voice>1</voice></note></measure><measure number="66" /><measure number="67"><forward><duration>1840</duration></forward><note><pitch><step>B</step><octave>5</octave></pitch><duration>80</duration><voice>1</voice></note></measure><measure number="68"><note><pitch><step>B</step><octave>5</octave></pitch><voice>1</voice><duration>280</duration><voice>1</voice></note></measure><measure number="69"><forward><duration>1840</duration></forward><note><pitch><step>B</step><octave>5</octave></pitch><duration>80</duration><voice>1</voice></note></measure><measure number="70"><note><pitch><step>B</step><octave>5</octave></pitch><voice>1</voice><duration>280</duration><voice>1</voice></note></measure><measure number="71"><note><pitch><step>B</step><octave>5</octave></pitch><duration>360</duration><voice>1</voice></note></measure><measure number="72" /><measure number="73"><forward><duration>1840</duration></forward><note><pitch><step>D</step><octave>2</octave></pitch><duration>80</duration><voice>1</voice></note></measure><measure number="74"><note><pitch><step>D</step><octave>2</octave></pitch><voice>1</voice><duration>280</duration><voice>1</voice></note></measure><measure number="75"><forward><duration>720</duration></forward><note><pitch><step>B</step><octave>5</octave></pitch><duration>360</duration><voice>1</voice></note></measure><measure number="76"><note><pitch><step>B</step><octave>5</octave></pitch><duration>400</duration><voice>1</voice></note></measure><measure number="77"><note><pitch><step>B</step><octave>5</octave></pitch><duration>360</duration><voice>1</voice></note></measure><measure number="78"><forward><duration>1840</duration></forward><note><pitch><step>B</step><octave>5</octave></pitch><duration>80</duration><voice>1</voice></note></measure><measure number="79"><note><pitch><step>B</step><octave>5</octave></pitch><voice>1</voice><duration>280</duration><voice>1</voice></note></measure><measure number="80" /><measure number="81"><forward><duration>1840</duration></forward><note><pitch><step>B</step><octave>5</octave></pitch><duration>80</duration><voice>1</voice></note></measure><measure number="82"><note><pitch><step>B</step><octave>5</octave></pitch><voice>1</voice><duration>320</duration><voice>1</voice></note><note><pitch><step>E</step><octave>4</octave></pitch><duration>400</duration><voice>1</voice></note></measure></part></score-partwise>