<?xml version='1.0' encoding='utf-8'?>
<score-partwise><part-list><score-part id="P1"><part-name>Piano</part-name></score-part></part-list><part id="P1"><measure number="1"><attributes><divisions>480</divisions><time><beats>4</beats><beat-type>4</beat-type></time><key><fifths>0</fifths></key><clef><sign>G</sign><line>2</line></clef></attributes><note><pitch><step>G</step><octave>2</octave></pitch><duration>400</duration><voice>1</voice></note></measure><measure number="2"><forward><duration>840</duration></forward><note><pitch><step>C</step><octave>4</octave></pitch><duration>400</duration><voice>1</voice></note><note><pitch><step>G</step><octave>1</octave></pitch><duration>400</duration><voice>1</voice></note></measure><measure number="3" /><measure number="4"><note><pitch><step>C</step><octave>4</octave></pitch><duration>360</duration><voice>1</voice></note></measure><measure number="5"><note><pitch><step>G</step><octave>2</octave></pitch><duration>360</duration><voice>1</voice></note></measure><measure number="6"><note><pitch><step>E</step><octave>6</octave></pitch><duration>360</duration><voice>1</voice></note></measure><measure number="7"><forward><duration>520</duration></forward><note><pitch><step>F</step><octave>4</octave></pitch><duration>360</duration><voice>1</voice></note><note><pitch><step>C</step><octave>4</octave></pitch><duration>360</duration><voice>1</voice></note></measure><measure number="8" /><measure number="9"><note><pitch><step>C</step><octave>4</octave></pitch><duration>360</duration><voice>1</voice></note><forward><duration>600</duration></forward><note><pitch><step>G</step><octave>2</octave></pitch><duration>360</duration><voice>1</voice></note></measure><measure number="10"><note><pitch><step>C</step><octave>4</octave></pitch><voice>1</voice><duration>120</duration><voice>1</voice></note></measure><measure number="11"><note><pitch><step>C</step><octave>4</octave></pitch><duration>1920</duration><voice>1</voice></note></measure><measure number="12"><forward><duration>1840</duration></forward></measure><measure number="13"><note><pitch><step>C</step><octave>4</octave></pitch><voice>1</voice><duration>1000</duration><voice>1</voice></note></measure><measure number="14" /><measure number="15"><forward><duration>520</duration></forward></measure><measure number="16"><forward><duration>840</duration></forward></measure><measure number="17" /><measure number="18" /><measure number="19"><forward><duration>840</duration></forward></measure><measure number="20"><forward><duration>840</duration></forward></measure><measure number="21" /><measure number="22"><forward><duration>880</duration></forward><note><pitch><step>G</step><octave>6</octave></pitch><duration>160</duration><voice>1</voice></note></measure><measure number="23"><forward><duration>840</duration></forward></measure><measure number="24" /><measure number="25" /><measure number="26" /><measure number="27" /><measure number="28"><note><pitch><step>E</step><octave>6</octave></pitch><duration>1920</duration><voice>1</voice></note></measure><measure number="29"><forward><duration>880</duration></forward></measure><measure number="30"><note><pitch><step>G</step><octave>6</octave></pitch><voice>1</voice><duration>40</duration><voice>1</voice></note></measure><measure number="31"><forward><duration>840</duration></forward><note><pitch><step>G</step><octave>2</octave></pitch><duration>360</duration><voice>1</voice></note></measure><measure number="32"><forward><duration>840</duration></forward></measure><measure number="33"><forward><duration>840</duration></forward></measure><measure number="34"><note><pitch><step>A</step><octave>2</octave></pitch><duration>1920</duration><voice>1</voice></note></measure><measure number="35" /><measure number="36"><forward><duration>840</duration></forward></measure><measure number="37"><forward><duration>1360</duration></forward></measure><measure number="38"><note><pitch><step>G</step><octave>1</octave></pitch><voice>1</voice><duration>520</duration><voice>1</voice></note></measure><measure number="39"><forward><duration>840</duration></forward></measure><measure number="40"><forward><duration>840</duration></forward></measure><measure number="41"><forward><duration>1680</duration></forward></measure><measure number="42"><note><pitch><step>G</step><octave>2</octave></pitch><voice>1</voice><duration>840</duration><voice>1</voice></note></measure><measure number="43"><forward><duration>840</duration></forward><note><pitch><step>G</step><octave>6</octave></pitch><duration>160</duration><voice>1</voice></note></measure><measure number="44"><forward><duration>640</duration></forward></measure><measure number="45" /><measure number="46"><forward><duration>880</duration></forward></measure><measure number="47"><note><pitch><step>G</step><octave>2</octave></pitch><voice>1</voice><duration>40</duration><voice>1</voice></note></measure><measure number="48" /><measure number="49"><forward><duration>840</duration></forward></measure><measure number="50" /><measure number="51"><forward><duration>880</duration></forward></measure><measure number="52"><note><pitch><step>G</step><octave>1</octave></pitch><voice>1</voice><duration>40</duration><voice>1</voice></note></measure><measure number="53"><forward><duration>560</duration></forward></measure><measure number="54"><forward><duration>600</duration></forward></measure><measure number="55" /><measure number="56"><forward><duration>1320</duration></forward><note><pitch><step>G</step><octave>7</octave></pitch><duration>400</duration><voice>1</voice></note></measure><measure number="57"><forward><duration>840</duration></forward></measure><measure number="58"><forward><duration>1240</duration></forward></measure><measure number="59"><note><pitch><step>G</step><octave>1</octave></pitch><voice>1</voice><duration>400</duration><voice>1</voice></note></measure><measure number="60"><note><pitch><step>B</step><octave>3</octave></pitch><duration>400</duration><voice>1</voice></note></measure><measure number="61"><note><pitch><step>C</step><octave>4</octave></pitch><duration>400</duration><voice>1</voice></note></measure><measure number="62"><note><pitch><step>C</step><octave>4</octave></pitch><voice>1</voice><duration>360</duration><voice>1</voice></note></measure><measure number="63"><note><pitch><step>C</step><octave>4</octave></pitch><voice>1</voice><duration>480</duration><voice>1</voice></note></measure><measure number="64"><note><pitch><step>C</step><octave>4</octave></pitch><duration>1400</duration><voice>1</voice></note></measure><measure number="65"><note><pitch><step>C</step><octave>4</octave></pitch><voice>1</voice><duration>480</duration><voice>1</voice></note></measure><measure number="66"><note><pitch><step>F</step><octave>4</octave></pitch><duration>360</duration><voice>1</voice></note></measure><measure number="67"><note><pitch><step>G</step><octave>2</octave></pitch><voice>1</voice><duration>480</duration><voice>1</voice></note></measure><measure number="68"><note><pitch><step>C</step><octave>1</octave></pitch><voice>1</voice><duration>480</duration><voice>1</voice></note></measure><measure number="69"><note><pitch><step>E</step><octave>6</octave></pitch><voice>1</voice><duration>480</duration><voice>1</voice></note></measure><measure number="70"><note><pitch><step>E</step><octave>6</octave></pitch><voice>1</voice><duration>480</duration><voice>1</voice></note></measure><measure number="71"><note><pitch><step>E</step><octave>6</octave></pitch><voice>1</voice><duration>480</duration><voice>1</voice></note></measure><measure number="72"><note><pitch><step>G</step><octave>6</octave></pitch><voice>1</voice><duration>440</duration><voice>1</voice></note></measure><measure number="73"><note><pitch><step>G</step><octave>1</octave></pitch><voice>1</voice><duration>480</duration><voice>1</voice></note></measure><measure number="74"><note><pitch><step>C</step><octave>1</octave></pitch><voice>1</voice><duration>480</duration><voice>1</voice></note></measure><measure number="75"><note><pitch><step>A</step><octave>2</octave></pitch><voice>1</voice><duration>480</duration><voice>1</voice></note></measure><measure number="76"><note><pitch><step>G</step><octave>1</octave></pitch><voice>1</voice><duration>480</duration><voice>1</voice></note></measure><measure number="77"><note><pitch><step>G</step><octave>1</octave></pitch><duration>1880</duration><voice>1</voice></note></measure><measure number="78"><note><pitch><step>G</step><octave>1</octave></pitch><voice>1</voice><duration>480</duration><voice>1</voice></note></measure><measure number="79"><note><pitch><step>G</step><octave>1</octave></pitch><voice>1</voice><duration>480</duration><voice>1</voice></note></measure><measure number="80"><note><pitch><step>G</step><octave>6</octave></pitch><voice>1</voice><duration>480</duration><voice>1</voice></note></measure><measure number="81"><note><pitch><step>G</step><octave>2</octave></pitch><duration>1560</duration><voice>1</voice></note></measure><measure number="82"><note><pitch><step>G</step><octave>2</octave></pitch><voice>1</voice><duration>480</duration><voice>1</voice></note></measure><measure number="83"><note><pitch><step>G</step><octave>1</octave></pitch><voice>1</voice><duration>480</duration><voice>1</voice></note></measure><measure number="84"><note><pitch><step>G</step><octave>2</octave></pitch><voice>1</voice><duration>440</duration><voice>1</voice></note></measure><measure number="85"><note><pitch><step>G</step><octave>1</octave></pitch><voice>1</voice><duration>480</duration><voice>1</voice></note></measure><measure number="86"><note><pitch><step>G</step><octave>1</octave></pitch><voice>1</voice><duration>440</duration><voice>1</voice></note></measure><measure number="87"><note><pitch><step>G</step><octave>6</octave></pitch><voice>1</voice><duration>480</duration><voice>1</voice></note></measure><measure number="88"><note><pitch><step>G</step><octave>1</octave></pitch><voice>1</voice><duration>480</duration><voice>1</voice></note></measure><measure number="89"><note><pitch><step>G</step><octave>2</octave></pitch><voice>1</voice><duration>480</duration><voice>1</voice></note></measure><measure number="90"><note><pitch><step>G</step><octave>1</octave></pitch><voice>1</voice><duration>80</duration><voice>1</voice></note></measure><measure number="91"><note><pitch><step>G</step><octave>2</octave></pitch><duration>400</duration><voice>1</voice></note></measure><measure number="92"><note><pitch><step>C</step><octave>4</octave></pitch><duration>1920</duration><voice>1</voice></note></measure><measure number="93"><note><pitch><step>C</step><octave>4</octave></pitch><duration>1920</duration><voice>1</voice></note></measure><measure number="94"><note><pitch><step>G</step><octave>2</octave></pitch><duration>1920</duration><voice>1</voice></note></measure><measure number="95"><note><pitch><step>C</step><octave>1</octave></pitch><duration>1920</duration><voice>1</voice></note></measure><measure number="96"><note><pitch><step>E</step><octave>6</octave></pitch><duration>1920</duration><voice>1</voice></note></measure><measure number="97"><note><pitch><step>E</step><octave>6</octave></pitch><duration>1920</duration><voice>1</voice></note></measure><measure number="98"><note><pitch><step>G</step><octave>6</octave></pitch><duration>1920</duration><voice>1</voice></note></measure><measure number="99"><note><pitch><step>G</step><octave>1</octave></pitch><duration>1920</duration><voice>1</voice></note></measure><measure number="100"><note><pitch><step>C</step><octave>1</octave></pitch><duration>1920</duration><voice>1</voice></note></measure><measure number="101"><note><pitch><step>G</step><octave>1</octave></pitch><duration>1920</duration><voice>1</voice></note></measure><measure number="102"><note><pitch><step>G</step><octave>1</octave></pitch><duration>1920</duration><voice>1</voice></note></measure><measure number="103"><note><pitch><step>G</step><octave>1</octave></pitch><duration>1920</duration><voice>1</voice></note></measure><measure number="104"><note><pitch><step>G</step><octave>6</octave></pitch><duration>1920</duration><voice>1</voice></note></measure><measure number="105"><note><pitch><step>G</step><octave>2</octave></pitch><duration>1920</duration><voice>1</voice></note></measure><measure number="106"><note><pitch><step>G</step><octave>1</octave></pitch><duration>1920</duration><voice>1</voice></note></measure><measure number="107"><note><pitch><step>G</step><octave>2</octave></pitch><duration>1920</duration><voice>1</voice></note></measure><measure number="108"><note><pitch><step>G</step><octave>1</octave></pitch><duration>1920</duration><voice>1</voice></note></measure><measure number="109"><note><pitch><step>G</step><octave>1</octave></pitch><duration>1920</duration><voice>1</voice></note></measure><measure number="110"><note><pitch><step>G</step><octave>6</octave></pitch><duration>1920</duration><voice>1</voice></note></measure><measure number="111"><note><pitch><step>G</step><octave>1</octave></pitch><duration>1920</duration><voice>1</voice></note></measure><measure number="112"><note><pitch><step>G</step><octave>2</octave></pitch><duration>1920</duration><voice>1</voice></note></measure><measure number="113"><note><pitch><step>G</step><octave>1</octave></pitch><duration>1920</duration><voice>1</voice></note></measure><measure number="114"><note><pitch><step>C</step><octave>4</octave></pitch><duration>400</duration><voice>1</voice></note></measure><measure number="115"><note><pitch><step>G</step><octave>1</octave></pitch><duration>400</duration><voice>1</voice></note></measure><measure number="116"><note><pitch><step>C</step><octave>4</octave></pitch><duration>400</duration><voice>1</voice></note></measure></part></score-partwise>