<?xml version='1.0' encoding='utf-8'?>
<score-partwise><part-list><score-part id="P1"><part-name>Piano</part-name></score-part></part-list><part id="P1"><measure number="1"><attributes><divisions>480</divisions><time><beats>4</beats><beat-type>4</beat-type></time><key><fifths>0</fifths></key><clef><sign>G</sign><line>2</line></clef></attributes><note><pitch><step>G</step><octave>3</octave></pitch><duration>360</duration><voice>1</voice></note></measure><measure number="2"><forward><duration>1360</duration></forward><note><pitch><step>G</step><octave>3</octave></pitch><duration>360</duration><voice>1</voice></note></measure><measure number="3" /><measure number="4" /><measure number="5" /><measure number="6" /><measure number="7" /><measure number="8" /><measure number="9"><forward><duration>1560</duration></forward><note><pitch><step>B</step><octave>5</octave></pitch><duration>360</duration><voice>1</voice></note></measure><measure number="10"><forward><duration>1840</duration></forward><note><pitch><step>E</step><octave>5</octave></pitch><duration>360</duration><voice>1</voice></note></measure><measure number="11"><forward><duration>1840</duration></forward><note><pitch><step>E</step><octave>5</octave></pitch><duration>360</duration><voice>1</voice></note></measure><measure number="12"><forward><duration>1840</duration></forward><note><pitch><step>G</step><octave>3</octave></pitch><duration>360</duration><voice>1</voice></note></measure><measure number="13" /><measure number="14" /><measure number="15" /><measure number="16"><forward><duration>1840</duration></forward><note><pitch><step>G</step><octave>3</octave></pitch><duration>360</duration><voice>1</voice></note></measure><measure number="17"><forward><duration>1840</duration></forward><note><pitch><step>G</step><octave>3</octave></pitch><duration>360</duration><voice>1</voice></note></measure><measure number="18"><note><pitch><step>B</step><octave>5</octave></pitch><duration>360</duration><voice>1</voice></note><forward><duration>1480</duration></forward><note><pitch><step>B</step><octave>5</octave></pitch><duration>360</duration><voice>1</voice></note><note><pitch><step>E</step><octave>5</octave></pitch><duration>360</duration><voice>1</voice></note><forward><duration>240</duration></forward><note><pitch><step>A</step><octave>4</octave></pitch><duration>360</duration><voice>1</voice></note></measure><measure number="19"><forward><duration>1840</duration></forward><note><pitch><step>B</step><octave>5</octave></pitch><duration>360</duration><voice>1</voice></note><note><pitch><step>C</step><octave>6</octave></pitch><duration>360</duration><voice>1</voice></note></measure><measure number="20" /><measure number="21" /><measure number="22"><note><pitch><step>E</step><octave>3</octave></pitch><duration>360</duration><voice>1</voice></note><forward><duration>1480</duration></forward><note><pitch><step>G</step><octave>3</octave></pitch><duration>360</duration><voice>1</voice></note></measure><measure number="23" /><measure number="24" /><measure number="25"><forward><duration>1840</duration></forward><note><pitch><step>B</step><octave>5</octave></pitch><duration>200</duration><voice>1</voice></note><note><pitch><step>E</step><octave>5</octave></pitch><duration>360</duration><voice>1</voice></note><note><pitch><step>D</step><octave>2</octave></pitch><duration>360</duration><voice>1</voice></note></measure><measure number="26" /><measure number="27"><forward><duration>1840</duration></forward><note><pitch><step>E</step><octave>5</octave></pitch><duration>360</duration><voice>1</voice></note></measure><measure number="28" /><measure number="29" /><measure number="30" /><measure number="31"><forward><duration>1840</duration></forward><note><pitch><step>B</step><octave>5</octave></pitch><duration>400</duration><voice>1</voice></note><note><pitch><step>G</step><alter>1.0</alter><octave>3</octave></pitch><duration>360</duration><voice>1</voice></note></measure><measure number="32"><forward><duration>1840</duration></forward><note><pitch><step>B</step><octave>5</octave></pitch><duration>360</duration><voice>1</voice></note><note><pitch><step>E</step><octave>4</octave></pitch><duration>360</duration><voice>1</voice></note></measure><measure number="33" /><measure number="34" /><measure number="35" /><measure number="36"><forward><duration>1840</duration></forward><note><pitch><step>E</step><octave>2</octave></pitch><duration>400</duration><voice>1</voice></note><note><pitch><step>B</step><octave>5</octave></pitch><duration>360</duration><voice>1</voice></note></measure><measure number="37" /><measure number="38" /><measure number="39"><forward><duration>1840</duration></forward><note><pitch><step>B</step><octave>5</octave></pitch><duration>360</duration><voice>1</voice></note></measure><measure number="40"><forward><duration>880</duration></forward><note><pitch><step>B</step><octave>5</octave></pitch><duration>400</duration><voice>1</voice></note><note><pitch><step>E</step><octave>4</octave></pitch><duration>360</duration><voice>1</voice></note></measure><measure number="41"><forward><duration>1840</duration></forward><note><pitch><step>B</step><octave>5</octave></pitch><duration>360</duration><voice>1</voice></note><note><pitch><step>B</step><octave>5</octave></pitch><duration>360</duration><voice>1</voice></note><note><pitch><step>B</step><octave>5</octave></pitch><duration>360</duration><voice>1</voice></note><note><pitch><step>B</step><octave>5</octave></pitch><duration>360</duration><voice>1</voice></note></measure><measure number="42"><forward><duration>1840</duration></forward><note><pitch><step>B</step><octave>5</octave></pitch><duration>400</duration><voice>1</voice></note><note><pitch><step>B</step><octave>5</octave></pitch><duration>360</duration><voice>1</voice></note></measure><measure number="43" /><measure number="44"><forward><duration>1840</duration></forward><note><pitch><step>B</step><octave>5</octave></pitch><duration>360</duration><voice>1</voice></note></measure><measure number="45"><forward><duration>1840</duration></forward><note><pitch><step>B</step><octave>5</octave></pitch><duration>360</duration><voice>1</voice></note></measure><measure number="46"><note><pitch><step>B</step><octave>5</octave></pitch><duration>360</duration><voice>1</voice></note></measure><measure number="47" /><measure number="48"><forward><duration>1840</duration></forward><note><pitch><step>D</step><octave>2</octave></pitch><duration>360</duration><voice>1</voice></note></measure><measure number="49"><forward><duration>720</duration></forward><note><pitch><step>B</step><octave>5</octave></pitch><duration>360</duration><voice>1</voice></note></measure><measure number="50"><note><pitch><step>B</step><octave>5</octave></pitch><duration>400</duration><voice>1</voice></note></measure><measure number="51"><note><pitch><step>B</step><octave>5</octave></pitch><duration>360</duration><voice>1</voice></note></measure><measure number="52"><forward><duration>1840</duration></forward><note><pitch><step>B</step><octave>5</octave></pitch><duration>360</duration><voice>1</voice></note></measure><measure number="53" /><measure number="54"><forward><duration>1840</duration></forward><note><pitch><step>B</step><octave>5</octave></pitch><duration>400</duration><voice>1</voice></note><note><pitch><step>E</step><octave>4</octave></pitch><duration>400</duration><voice>1</voice></note></measure></part></score-partwise>