<?xml version='1.0' encoding='utf-8'?>
<score-partwise><part-list><score-part id="P1"><part-name>Piano</part-name></score-part></part-list><part id="P1"><measure number="1"><attributes><divisions>480</divisions><time><beats>4</beats><beat-type>4</beat-type></time><key><fifths>0</fifths></key><clef><sign>G</sign><line>2</line></clef></attributes></measure><measure number="196"><forward><duration>1320</duration></forward><note><pitch><step>A</step><octave>2</octave></pitch><duration>360</duration><voice>1</voice></note></measure><measure number="205"><forward><duration>1320</duration></forward><note><pitch><step>F</step><octave>2</octave></pitch><duration>360</duration><voice>1</voice></note></measure><measure number="190"><forward><duration>1520</duration></forward><note><pitch><step>C</step><alter>1.0</alter><octave>3</octave></pitch><duration>360</duration><voice>1</voice></note><note><pitch><step>A</step><octave>4</octave></pitch><duration>360</duration><voice>1</voice></note></measure><measure number="51"><forward><duration>1320</duration></forward><note><pitch><step>F</step><octave>2</octave></pitch><duration>360</duration><voice>1</voice></note><note><pitch><step>C</step><alter>1.0</alter><octave>3</octave></pitch><duration>600</duration><voice>1</voice></note></measure><measure number="205"><forward><duration>1040</duration></forward><note><pitch><step>C</step><alter>1.0</alter><octave>3</octave></pitch><duration>360</duration><voice>1</voice></note><note><pitch><step>C</step><alter>1.0</alter><octave>3</octave></pitch><duration>360</duration><voice>1</voice></note></measure><measure number="30"><forward><duration>1040</duration></forward><note><pitch><step>A</step><octave>2</octave></pitch><duration>360</duration><voice>1</voice></note><note><pitch><step>A</step><octave>2</octave></pitch><duration>360</duration><voice>1</voice></note></measure><measure number="186"><forward><duration>1280</duration></forward><note><pitch><step>A</step><octave>2</octave></pitch><duration>360</duration><voice>1</voice></note><note><pitch><step>F</step><octave>2</octave></pitch><duration>360</duration><voice>1</voice></note></measure><measure number="186"><forward><duration>1320</duration></forward><note><pitch><step>A</step><octave>2</octave></pitch><duration>360</duration><voice>1</voice></note></measure><measure number="186"><forward><duration>680</duration></forward><note><pitch><step>D</step><octave>2</octave></pitch><duration>360</duration><voice>1</voice></note><note><pitch><step>A</step><octave>2</octave></pitch><duration>360</duration><voice>1</voice></note><note><pitch><step>A</step><octave>2</octave></pitch><duration>360</duration><voice>1</voice></note></measure><measure number="186"><forward><duration>1040</duration></forward><note><pitch><step>A</step><octave>2</octave></pitch><duration>360</duration><voice>1</voice></note></measure><measure number="112" /><measure number="104"><forward><duration>1040</duration></forward><note><pitch><step>A</step><octave>2</octave></pitch><duration>360</duration><voice>1</voice></note><note><pitch><step>A</step><octave>2</octave></pitch><duration>360</duration><voice>1</voice></note></measure><measure number="190"><forward><duration>1320</duration></forward><note><pitch><step>D</step><octave>2</octave></pitch><duration>360</duration><voice>1</voice></note></measure><measure number="186"><forward><duration>1040</duration></forward><note><pitch><step>A</step><octave>2</octave></pitch><duration>360</duration><voice>1</voice></note></measure><measure number="90"><forward><duration>560</duration></forward><note><pitch><step>D</step><octave>2</octave></pitch><duration>360</duration><voice>1</voice></note><forward><duration>120</duration></forward><note><pitch><step>A</step><octave>2</octave></pitch><duration>360</duration><voice>1</voice></note></measure><measure number="344"><forward><duration>360</duration></forward><note><pitch><step>C</step><alter>1.0</alter><octave>3</octave></pitch><duration>360</duration><voice>1</voice></note></measure><measure number="208"><forward><duration>280</duration></forward><note><pitch><step>A</step><octave>2</octave></pitch><duration>360</duration><voice>1</voice></note></measure><measure number="34"><forward><duration>1040</duration></forward><note><pitch><step>A</step><octave>2</octave></pitch><duration>360</duration><voice>1</voice></note><note><pitch><step>A</step><octave>2</octave></pitch><duration>360</duration><voice>1</voice></note><note><pitch><step>D</step><octave>2</octave></pitch><duration>360</duration><voice>1</voice></note><forward><duration>160</duration></forward><note><pitch><step>A</step><octave>2</octave></pitch><duration>360</duration><voice>1</voice></note></measure><measure number="196" /><measure number="113"><forward><duration>800</duration></forward><note><pitch><step>A</step><octave>2</octave></pitch><duration>360</duration><voice>1</voice></note><forward><duration>120</duration></forward><note><pitch><step>A</step><octave>2</octave></pitch><duration>360</duration><voice>1</voice></note><note><pitch><step>D</step><octave>2</octave></pitch><duration>360</duration><voice>1</voice></note></measure><measure number="96"><forward><duration>1520</duration></forward><note><pitch><step>A</step><octave>2</octave></pitch><duration>360</duration><voice>1</voice></note><note><pitch><step>D</step><octave>2</octave></pitch><duration>360</duration><voice>1</voice></note></measure><measure number="196" /><measure number="175"><forward><duration>560</duration></forward><note><pitch><step>C</step><alter>1.0</alter><octave>3</octave></pitch><duration>360</duration><voice>1</voice></note><forward><duration>120</duration></forward><note><pitch><step>A</step><octave>2</octave></pitch><duration>360</duration><voice>1</voice></note><note><pitch><step>A</step><octave>2</octave></pitch><duration>360</duration><voice>1</voice></note></measure><measure number="196"><forward><duration>680</duration></forward><note><pitch><step>D</step><octave>2</octave></pitch><duration>360</duration><voice>1</voice></note></measure><measure number="322"><forward><duration>800</duration></forward><note><pitch><step>A</step><octave>2</octave></pitch><duration>360</duration><voice>1</voice></note></measure><measure number="90"><forward><duration>1040</duration></forward><note><pitch><step>D</step><octave>2</octave></pitch><duration>360</duration><voice>1</voice></note><note><pitch><step>A</step><octave>2</octave></pitch><duration>360</duration><voice>1</voice></note><note><pitch><step>A</step><octave>2</octave></pitch><duration>360</duration><voice>1</voice></note><note><pitch><step>D</step><octave>2</octave></pitch><duration>360</duration><voice>1</voice></note></measure><measure number="186"><forward><duration>160</duration></forward><note><pitch><step>D</step><octave>2</octave></pitch><duration>360</duration><voice>1</voice></note></measure></part></score-partwise>